<svg xmlns="http://www.w3.org/2000/svg" width="212.09" height="39.96" viewBox="0 0 212.09 39.96"><defs><style>.a{fill:#006365;}</style></defs><title>F1-H1</title><path class="a" d="M61.58,12.94V2.76C61.58,1,62.4.1,63.91.1H69.2C72.66.1,74.53,1.49,74.53,4a3.09,3.09,0,0,1-2.69,3.24,3.79,3.79,0,0,1,3.21,3.91c0,3.12-1.89,4.49-6.41,4.49H63.91C62.4,15.63,61.58,14.69,61.58,12.94Zm6.25-6.58c1.35,0,2-.53,2-1.49S69.17,3.5,67.9,3.5H66.07V6.36Zm.27,5.83c1.6,0,2.26-.46,2.26-1.58s-.68-1.46-2.3-1.46h-2v3Z"/><path class="a" d="M80.53,13.51v-4L75.4,1.82c-.14-.24.66-1.8,3-1.8.78,0,1.53.48,2.14,1.66l2.26,4.1,2.37-4.1C85.84.46,86.57,0,87.32,0c2.1,0,3,1.61,2.83,1.82L85.09,9.55v4c0,1.46-.68,2.23-2,2.23h-.66C81.19,15.75,80.53,15,80.53,13.51Z"/><path class="a" d="M91,13V2.76C91,1,91.84.1,93.34.1h7.84a1.85,1.85,0,0,1,2.12,2v.12c0,1.32-.66,2-2.12,2H95.58V5.81h3.74c1.5,0,2.12.67,2.12,1.85v.07c0,1.25-.64,2-2.12,2H95.58v1.8h5.72c1.44,0,2.1.65,2.1,1.9v.12a1.88,1.88,0,0,1-2.1,2.11h-8C91.84,15.63,91,14.74,91,13Z"/><path class="a" d="M108.73,12.94V2.76c0-1.73.82-2.66,2.33-2.66h5.29c3.46,0,5.33,1.39,5.33,3.89A3.09,3.09,0,0,1,119,7.22a3.79,3.79,0,0,1,3.21,3.91c0,3.12-1.89,4.49-6.41,4.49h-4.74C109.55,15.63,108.73,14.69,108.73,12.94ZM115,6.36c1.34,0,2-.53,2-1.49S116.32,3.5,115,3.5h-1.82V6.36Zm.27,5.83c1.6,0,2.26-.46,2.26-1.58s-.68-1.46-2.3-1.46h-2v3Z"/><path class="a" d="M127.68,13.51v-4l-5.13-7.73c-.14-.24.66-1.8,3-1.8.77,0,1.53.48,2.14,1.66l2.26,4.1,2.37-4.1C133,.46,133.72,0,134.47,0c2.1,0,3,1.61,2.83,1.82l-5.06,7.73v4c0,1.46-.68,2.23-2,2.23h-.66C128.34,15.75,127.68,15,127.68,13.51Z"/><path class="a" d="M138.17,13V2.76C138.17,1,139,.1,140.49.1h7.84a1.85,1.85,0,0,1,2.12,2v.12c0,1.32-.66,2-2.12,2h-5.61V5.81h3.74c1.5,0,2.12.67,2.12,1.85v.07c0,1.25-.64,2-2.12,2h-3.74v1.8h5.72c1.44,0,2.1.65,2.1,1.9v.12a1.88,1.88,0,0,1-2.1,2.11h-8C139,15.63,138.17,14.74,138.17,13Z"/><path class="a" d="M0,36.94V26.76C0,25,.82,24.1,2.33,24.1h7.2c1.44,0,2.1.67,2.1,1.92v.14c0,1.32-.66,2-2.1,2h-5v2.52H7.93c1.5,0,2.1.67,2.1,1.82v.1c0,1.25-.62,1.94-2.1,1.94H4.65v3c0,1.46-.68,2.23-2,2.23H1.91C.66,39.72,0,38.69,0,36.94Z"/><path class="a" d="M13.09,37.51V26.21c0-1.49.66-2.23,1.92-2.23h.66c1.3,0,2,.74,2,2.23v11.3c0,1.46-.68,2.23-2,2.23H15C13.75,39.75,13.09,39,13.09,37.51Z"/><path class="a" d="M19.79,37V26.21c0-1.51.66-2.23,1.91-2.23h.66c1.3,0,2,.72,2,2.23v9.24h4.49c1.41,0,2.1.67,2.1,2v.07a1.87,1.87,0,0,1-2.1,2.11H22.12C20.61,39.63,19.79,38.74,19.79,37Z"/><path class="a" d="M32.28,37V26.76c0-1.73.82-2.66,2.33-2.66h7.84a1.85,1.85,0,0,1,2.12,2v.12c0,1.32-.66,2-2.12,2H36.84v1.56h3.74c1.5,0,2.12.67,2.12,1.85v.07c0,1.25-.64,2-2.12,2H36.84v1.8h5.72c1.44,0,2.1.65,2.1,1.9v.12a1.88,1.88,0,0,1-2.1,2.11h-8C33.1,39.63,32.28,38.74,32.28,37Z"/><path class="a" d="M59.07,36.41H54.31l-.41,1.2c-.55,1.66-1.5,2.23-2.48,2.23-1.25,0-2.51-1.06-2.35-1.49L53.85,25.3c.23-.77.84-1.32,2.9-1.32s2.6.55,2.83,1.32l5,13c.16.43-1.07,1.54-2.44,1.54-1,0-2-.55-2.62-2.28Zm-4-3.46h3.17l-1.6-4.51Z"/><path class="a" d="M74.83,36.41H70.06l-.41,1.2c-.55,1.66-1.5,2.23-2.48,2.23-1.25,0-2.51-1.06-2.35-1.49L69.61,25.3c.23-.77.84-1.32,2.9-1.32s2.6.55,2.83,1.32l5,13c.16.43-1.07,1.54-2.44,1.54-1,0-2-.55-2.62-2.28Zm-4-3.46H74l-1.6-4.51Z"/><path class="a" d="M81.33,37.51V26.21c0-1.49.71-2.23,1.87-2.23h.43a2.19,2.19,0,0,1,2.05,1.13L91,32.35V26.21c0-1.46.68-2.23,2-2.23h.39c1.25,0,1.92.77,1.92,2.23v11.3c0,1.49-.71,2.23-1.85,2.23H93a2.1,2.1,0,0,1-2-1.06l-5.4-7.37v6.19c0,1.46-.68,2.23-2,2.23h-.39C82,39.75,81.33,39,81.33,37.51Z"/><path class="a" d="M101,37V26.76a2.35,2.35,0,0,1,2.37-2.66h3.9c4.86,0,7.84,3,7.84,7.68s-3.08,7.85-7.93,7.85h-3.65A2.57,2.57,0,0,1,101,37Zm6.06-1.44c2.14,0,3.53-1.37,3.53-3.74s-1.35-3.62-3.47-3.62h-1.62v7.37Z"/><path class="a" d="M116.67,37V26.76c0-1.73.82-2.66,2.33-2.66h7.84a1.85,1.85,0,0,1,2.12,2v.12c0,1.32-.66,2-2.12,2h-5.61v1.56H125c1.5,0,2.12.67,2.12,1.85v.07c0,1.25-.64,2-2.12,2h-3.74v1.8h5.72c1.44,0,2.1.65,2.1,1.9v.12a1.88,1.88,0,0,1-2.1,2.11h-8C117.49,39.63,116.67,38.74,116.67,37Z"/><path class="a" d="M134.4,37.51V26.21c0-1.49.66-2.23,1.92-2.23H137c1.3,0,2,.74,2,2.23v4.61l3.56-5.21A3,3,0,0,1,145,24c1.55,0,2.74,1.51,2.6,1.8l-4.13,6L147.83,38c.16.29-1.09,1.78-2.76,1.78a2.94,2.94,0,0,1-2.51-1.61L139,32.88v4.63c0,1.46-.68,2.23-2,2.23h-.66C135.06,39.75,134.4,39,134.4,37.51Z"/><path class="a" d="M158.25,36.41h-4.76l-.41,1.2c-.55,1.66-1.5,2.23-2.49,2.23-1.25,0-2.51-1.06-2.35-1.49L153,25.3c.23-.77.84-1.32,2.9-1.32s2.6.55,2.83,1.32l5,13c.16.43-1.07,1.54-2.44,1.54-1,0-2-.55-2.62-2.28Zm-4-3.46h3.17l-1.6-4.51Z"/><path class="a" d="M164.23,36.77a3,3,0,0,1,1.5-2.28,7.13,7.13,0,0,0,4.38,1.8c1.41,0,2.05-.43,2.05-1.22,0-1-1.16-1-2.64-1.3-2.46-.53-4.95-1.63-4.95-4.85s2.23-5.16,6.29-5.16c3.88,0,5.56,1.42,5.56,3a3.09,3.09,0,0,1-1.62,2.4,6,6,0,0,0-3.9-1.68c-1.32,0-2,.43-2,1.2s1.19.84,2.74,1.2c2.89.67,5.11,2,5.11,4.85,0,3.38-2.21,5.28-6.66,5.28S164.23,38.4,164.23,36.77Z"/><path class="a" d="M177.52,36.77a3,3,0,0,1,1.5-2.28,7.13,7.13,0,0,0,4.38,1.8c1.41,0,2.05-.43,2.05-1.22,0-1-1.16-1-2.64-1.3-2.46-.53-4.95-1.63-4.95-4.85s2.23-5.16,6.29-5.16c3.88,0,5.56,1.42,5.56,3a3.09,3.09,0,0,1-1.62,2.4,6,6,0,0,0-3.9-1.68c-1.32,0-2,.43-2,1.2s1.19.84,2.74,1.2c2.89.67,5.11,2,5.11,4.85,0,3.38-2.21,5.28-6.66,5.28S177.52,38.4,177.52,36.77Z"/><path class="a" d="M200.64,36.41h-4.76l-.41,1.2c-.55,1.66-1.5,2.23-2.49,2.23-1.25,0-2.51-1.06-2.35-1.49l4.79-13.06c.23-.77.84-1.32,2.9-1.32s2.6.55,2.83,1.32l5,13c.16.43-1.07,1.54-2.44,1.54-1,0-2-.55-2.62-2.28Zm-4-3.46h3.17l-1.6-4.51Z"/><path class="a" d="M208.14,33,207,26.74c-.43-1.78.52-2.93,2.17-2.93h.57A2.16,2.16,0,0,1,212,26.74L210.83,33c-.25,1-.55,1.44-1.16,1.44h-.43C208.66,34.44,208.39,34,208.14,33Zm-.8,4.87v-.38c0-1.32.59-1.94,1.85-1.94h.52c1.3,0,1.89.62,1.89,1.94v.38c0,1.32-.59,1.94-1.89,1.94h-.52C208,39.82,207.34,39.19,207.34,37.87Z"/></svg>