<svg xmlns="http://www.w3.org/2000/svg" width="169.57" height="39.99" viewBox="0 0 169.57 39.99"><defs><style>.a{fill:#fff;}</style></defs><title>F3-H1</title><path class="a" d="M7.54,13.95,4.05,1.68A2.93,2.93,0,0,1,6.9,0C7.81,0,9,.58,9.41,2.62l1.23,6.7,1.55-6.07A2.31,2.31,0,0,1,14.7,1.49a2.37,2.37,0,0,1,2.44,1.75l1.55,6.07,1.23-6.77C20.24.67,21.33,0,22.4,0a2.67,2.67,0,0,1,2.67,1.63L21.72,13.95c-.34,1.37-1.28,1.85-2.69,1.85a2.4,2.4,0,0,1-2.69-1.85L14.61,7.54,12.9,13.95a2.42,2.42,0,0,1-2.71,1.85C8.77,15.79,7.9,15.39,7.54,13.95Z"/><path class="a" d="M26.9,13.54V2.23C26.9.74,27.56,0,28.81,0h.66c1.3,0,2,.74,2,2.23v11.3c0,1.46-.68,2.23-2,2.23h-.66C27.56,15.77,26.9,15,26.9,13.54Z"/><path class="a" d="M32.89,12.89a2.38,2.38,0,0,1,1.5-2.4,3.3,3.3,0,0,0,2.69,1.42c1.41,0,2-.65,2-2.5V2.23C39.07.74,39.75,0,41,0h.66c1.3,0,2,.74,2,2.23V9.48c0,4.46-2,6.5-5.88,6.5C34.6,16,32.89,14.81,32.89,12.89Z"/><path class="a" d="M49.19,13.75v-.22a3.52,3.52,0,0,1,1.21-2.76L56,4.08H51.38c-1.32,0-2-.5-2-1.87V2c0-1.32.68-1.87,2-1.87h8.25C61.3.12,62,1.06,62,2v.24A3.51,3.51,0,0,1,60.75,5L55,11.67h5.06c1.32,0,2,.53,2,1.9v.19c0,1.32-.68,1.9-2,1.9H51.5C49.85,15.65,49.19,14.69,49.19,13.75Z"/><path class="a" d="M63.6,13V2.78c0-1.73.82-2.66,2.33-2.66h7.84a1.85,1.85,0,0,1,2.12,2v.12c0,1.32-.66,2-2.12,2H68.16V5.83H71.9c1.5,0,2.12.67,2.12,1.85v.07c0,1.25-.64,2-2.12,2H68.16v1.8h5.72c1.44,0,2.1.65,2.1,1.9v.12a1.88,1.88,0,0,1-2.1,2.11h-8C64.42,15.65,63.6,14.76,63.6,13Z"/><path class="a" d="M76.89,2.18V2.11c0-1.32.73-2,2.1-2h9.46c1.41,0,2.12.67,2.12,2v.07A1.89,1.89,0,0,1,88.45,4.3H86.06v9.24c0,1.46-.73,2.23-2.05,2.23h-.64c-1.25,0-1.89-.77-1.89-2.23V4.3H79A1.89,1.89,0,0,1,76.89,2.18Z"/><path class="a" d="M91.12,2.18V2.11c0-1.32.73-2,2.1-2h9.46c1.41,0,2.12.67,2.12,2v.07a1.89,1.89,0,0,1-2.12,2.11h-2.39v9.24c0,1.46-.73,2.23-2.05,2.23H97.6c-1.25,0-1.89-.77-1.89-2.23V4.3H93.22A1.89,1.89,0,0,1,91.12,2.18Z"/><path class="a" d="M106,13V2.78c0-1.73.82-2.66,2.33-2.66h7.84a1.85,1.85,0,0,1,2.12,2v.12c0,1.32-.66,2-2.12,2h-5.61V5.83h3.74c1.5,0,2.12.67,2.12,1.85v.07c0,1.25-.64,2-2.12,2h-3.74v1.8h5.72c1.44,0,2.1.65,2.1,1.9v.12a1.88,1.88,0,0,1-2.1,2.11h-8C106.79,15.65,106,14.76,106,13Z"/><path class="a" d="M119.92,13.54V2.23c0-1.49.71-2.23,1.87-2.23h.43a2.19,2.19,0,0,1,2.05,1.13l5.29,7.25V2.23c0-1.46.68-2.23,2-2.23h.39c1.25,0,1.92.77,1.92,2.23v11.3c0,1.49-.71,2.23-1.85,2.23h-.37a2.1,2.1,0,0,1-2-1.06l-5.4-7.37v6.19c0,1.46-.68,2.23-2,2.23h-.39C120.58,15.77,119.92,15,119.92,13.54Z"/><path class="a" d="M139.3,13.75v-.22a3.52,3.52,0,0,1,1.21-2.76l5.61-6.7h-4.63c-1.32,0-2-.5-2-1.87V2c0-1.32.68-1.87,2-1.87h8.25c1.66,0,2.33.94,2.33,1.87v.24A3.51,3.51,0,0,1,150.86,5l-5.72,6.7h5.06c1.32,0,2,.53,2,1.9v.19c0,1.32-.68,1.9-2,1.9H141.6C140,15.65,139.3,14.69,139.3,13.75Z"/><path class="a" d="M153.71,13V2.78c0-1.73.82-2.66,2.33-2.66h7.84a1.85,1.85,0,0,1,2.12,2v.12c0,1.32-.66,2-2.12,2h-5.61V5.83H162c1.5,0,2.12.67,2.12,1.85v.07c0,1.25-.64,2-2.12,2h-3.74v1.8H164c1.44,0,2.1.65,2.1,1.9v.12a1.88,1.88,0,0,1-2.1,2.11h-8C154.53,15.65,153.71,14.76,153.71,13Z"/><path class="a" d="M5.37,26.23,7.67,34,10,26.23A2.62,2.62,0,0,1,12.39,24c1.48,0,2.9,1.2,2.71,1.66L10.25,38a2.5,2.5,0,0,1-2.64,1.8A2.41,2.41,0,0,1,5,38L0,25.66C-.17,25.2,1.34,24,2.84,24A2.77,2.77,0,0,1,5.37,26.23Z"/><path class="a" d="M15.27,31.87c0-4.7,3.26-8.09,7.8-8.09s7.77,3.36,7.77,8.09S27.6,40,23.06,40,15.27,36.63,15.27,31.87Zm11.06,0c0-2.28-1.3-3.84-3.26-3.84s-3.28,1.49-3.28,3.84,1.3,3.82,3.28,3.82S26.32,34.18,26.32,31.87Z"/><path class="a" d="M31.89,31.87c0-4.7,3.26-8.09,7.8-8.09s7.77,3.36,7.77,8.09S44.22,40,39.69,40,31.89,36.63,31.89,31.87Zm11.06,0c0-2.28-1.3-3.84-3.26-3.84s-3.28,1.49-3.28,3.84,1.3,3.82,3.28,3.82S42.95,34.18,42.95,31.87Z"/><path class="a" d="M56.47,37.73l-2.1-2.93h-.82v2.74c0,1.44-.68,2.23-2,2.23H50.9c-1.25,0-1.91-1-1.91-2.78V26.78c0-1.73.82-2.66,2.33-2.66h4.56C60,24.12,62,25.9,62,29.21a4.41,4.41,0,0,1-3.19,4.56l3.33,4.34c.14.19-.66,1.66-2.62,1.66C58.13,39.77,57.42,39.12,56.47,37.73Zm-3-6.34h1.92c1.37,0,2.05-.65,2.05-1.8s-.66-1.82-2.1-1.82H53.48Z"/><path class="a" d="M66.75,36.89a2.38,2.38,0,0,1,1.5-2.4,3.3,3.3,0,0,0,2.69,1.42c1.41,0,2-.65,2-2.5V26.23c0-1.49.68-2.23,1.94-2.23h.66c1.3,0,2,.74,2,2.23v7.25c0,4.46-2,6.5-5.88,6.5C68.46,40,66.75,38.81,66.75,36.89Z"/><path class="a" d="M79.61,37V26.78c0-1.73.82-2.66,2.33-2.66h7.84a1.85,1.85,0,0,1,2.12,2v.12c0,1.32-.66,2-2.12,2H84.17v1.56h3.74c1.5,0,2.12.67,2.12,1.85v.07c0,1.25-.64,2-2.12,2H84.17v1.8h5.72c1.44,0,2.1.65,2.1,1.9v.12a1.88,1.88,0,0,1-2.1,2.11h-8C80.43,39.65,79.61,38.76,79.61,37Z"/><path class="a" d="M97.35,37.54V26.23c0-1.49.66-2.23,1.92-2.23h.66c1.3,0,2,.74,2,2.23v4.61l3.56-5.21A3,3,0,0,1,108,24c1.55,0,2.74,1.51,2.6,1.8l-4.13,6L110.77,38c.16.29-1.09,1.78-2.76,1.78a2.94,2.94,0,0,1-2.51-1.61l-3.6-5.26v4.63c0,1.46-.68,2.23-2,2.23h-.66C98,39.77,97.35,39,97.35,37.54Z"/><path class="a" d="M112.1,37V26.23c0-1.51.66-2.23,1.92-2.23h.66c1.3,0,2,.72,2,2.23v9.24h4.49c1.41,0,2.1.67,2.1,2v.07a1.87,1.87,0,0,1-2.1,2.11h-6.72C112.92,39.65,112.1,38.76,112.1,37Z"/><path class="a" d="M134.12,36.43h-4.76l-.41,1.2c-.55,1.66-1.5,2.23-2.49,2.23-1.25,0-2.51-1.06-2.35-1.49l4.79-13.06c.23-.77.84-1.32,2.9-1.32s2.6.55,2.83,1.32l5,13c.16.43-1.07,1.54-2.44,1.54-1,0-2-.55-2.62-2.28Zm-4-3.46h3.17l-1.6-4.51Z"/><path class="a" d="M149.88,36.43h-4.76l-.41,1.2c-.55,1.66-1.5,2.23-2.49,2.23-1.25,0-2.51-1.06-2.35-1.49l4.79-13.06c.23-.77.84-1.32,2.9-1.32s2.6.55,2.83,1.32l5,13c.16.43-1.07,1.54-2.44,1.54-1,0-2-.55-2.62-2.28Zm-4-3.46h3.17l-1.6-4.51Z"/><path class="a" d="M163.85,37.73l-2.1-2.93h-.82v2.74c0,1.44-.68,2.23-2,2.23h-.64c-1.25,0-1.92-1-1.92-2.78V26.78c0-1.73.82-2.66,2.33-2.66h4.56c4.1,0,6.15,1.78,6.15,5.09a4.41,4.41,0,0,1-3.19,4.56l3.33,4.34c.14.19-.66,1.66-2.62,1.66C165.52,39.77,164.81,39.12,163.85,37.73Zm-3-6.34h1.91c1.37,0,2.05-.65,2.05-1.8s-.66-1.82-2.1-1.82h-1.87Z"/></svg>