<svg xmlns="http://www.w3.org/2000/svg" width="115.18" height="97.64" viewBox="0 0 115.18 97.64"><defs><style>.a{fill:#006365;}</style></defs><title>F3-winkelkar</title><path class="a" d="M105.48,34.59l-.12.7a4.39,4.39,0,0,1-4.23,3.57H91.45a3.74,3.74,0,0,1-3.73-3.74V33.87a3.58,3.58,0,0,1,3.62-3.63l11,.41a3.3,3.3,0,0,1,3.19,3.94m-4.56,17.63a5.47,5.47,0,0,1-2.53,1.11L91.47,54h-.31a3.42,3.42,0,0,1-3.45-3.48v-.42a3.74,3.74,0,0,1,3.73-3.74H99.6a4.16,4.16,0,0,1,3.13,1.07,1.5,1.5,0,0,1,.35,1.21,6.42,6.42,0,0,1-2.16,3.6M80.23,35.13a3.74,3.74,0,0,1-3.74,3.74H66.7A3.74,3.74,0,0,1,63,35.13v-2.2a3.59,3.59,0,0,1,3.63-3.63l9.94.38a3.89,3.89,0,0,1,3.71,3.85Zm0,16.19a4.11,4.11,0,0,1-3.66,4l-9.85.91h-.31A3.43,3.43,0,0,1,63,52.77V50.08a3.74,3.74,0,0,1,3.74-3.74h9.79a3.74,3.74,0,0,1,3.74,3.74ZM55.48,35.13a3.74,3.74,0,0,1-3.74,3.74H40.94a4.61,4.61,0,0,1-3.1-1.33A4.46,4.46,0,0,1,36.5,35.4L35.64,32a3.18,3.18,0,0,1,0-1.61,2.76,2.76,0,0,1,.45-1,3,3,0,0,1,2.4-1.09l13.26.5a3.9,3.9,0,0,1,3.71,3.85Zm0,18.46a4.11,4.11,0,0,1-3.66,4l-6,.55h-.32A4.19,4.19,0,0,1,44,57.85,4.33,4.33,0,0,1,41.39,55l-1.2-4.78a3.07,3.07,0,0,1,.5-2.69s.1-.06.14-.11a3.08,3.08,0,0,1,2.36-1h8.55a3.74,3.74,0,0,1,3.74,3.74Zm55.31-30.84-78.34-3-2.85-9.41A13.88,13.88,0,0,0,17.94,1L4.83,0a4.49,4.49,0,0,0-.68,9l13.11,1A5,5,0,0,1,21,13L34.55,61.51A7.2,7.2,0,0,0,42,66.77l57-5.23a14.56,14.56,0,0,0,11.79-9.18l4.09-23.93c1-3.13-.79-5.68-4.09-5.68M51.46,90a4.6,4.6,0,1,1,4.6-4.59A4.59,4.59,0,0,1,51.46,90m0-16.85A12.25,12.25,0,1,0,63.71,85.39,12.25,12.25,0,0,0,51.46,73.14M88.22,90a4.6,4.6,0,1,1,4.59-4.59A4.6,4.6,0,0,1,88.22,90m0-16.85a12.25,12.25,0,1,0,12.25,12.25A12.26,12.26,0,0,0,88.22,73.14"/></svg>