<svg xmlns="http://www.w3.org/2000/svg" width="53.69" height="55.49" viewBox="0 0 53.69 55.49"><defs><style>.a{fill:#fff;}</style></defs><title>F4-baguette</title><path class="a" d="M50.76,6.86c.12,2.07-1.44,4.88-4.5,8.11L15,47.6c-3.13,3.28-5.91,5-8,5a3.74,3.74,0,0,1-2.76-1.35c-3.13-3.44-.65-10.8,6.32-19.4a17.29,17.29,0,0,0,.58,7.5,1.45,1.45,0,0,0,1.87.87,1.42,1.42,0,0,0,.56-.37,1.44,1.44,0,0,0,.31-1.5c-.94-2.59-.85-8.49,1.44-11.86a.92.92,0,0,0,.11-.2l3.32-3.74a17.58,17.58,0,0,0,.53,7.85,1.45,1.45,0,0,0,1.87.88,1.32,1.32,0,0,0,.56-.37,1.45,1.45,0,0,0,.32-1.5c-.95-2.59-.85-8.48,1.43-11.85a1.33,1.33,0,0,0,.22-.57l.63-.7,1.6-1.45a18.1,18.1,0,0,0,.44,8.46,1.46,1.46,0,0,0,1.87.87,1.37,1.37,0,0,0,.56-.37,1.46,1.46,0,0,0,.32-1.5,16.09,16.09,0,0,1,1.19-11.44L32.43,8.9c7-5.57,13.62-7.42,16.86-4.73a3.72,3.72,0,0,1,1.47,2.69m.39-4.94C46.66-1.81,39,0,30.57,6.64l-1.76,1.6a1.34,1.34,0,0,0-.67.54,1.31,1.31,0,0,0-.11.17l-5.78,5.24L12,25.8c-11,11.8-14.71,22-9.85,27.38A6.55,6.55,0,0,0,7,55.49c3,0,6.33-1.89,10.15-5.87l28.52-29.8L48.38,17c3.74-3.93,5.47-7.3,5.3-10.29a6.56,6.56,0,0,0-2.52-4.76"/></svg>