<svg xmlns="http://www.w3.org/2000/svg" width="52.61" height="39.8" viewBox="0 0 52.61 39.8"><defs><style>.a{fill:#006365;}</style></defs><title>F8-mandje</title><path class="a" d="M48.83,7.6,41,17.13a4,4,0,0,0-1.36-.18L39,13.35a8.15,8.15,0,0,0-1.55-3.16l.75-1,.46-.49a9.06,9.06,0,0,0,.57,4,.89.89,0,0,0,1,.51l.21-.06A.89.89,0,0,0,40.84,12a7.9,7.9,0,0,1,.28-5.85l0,0L42,5.23a12.53,12.53,0,0,1,5.75-3.37A3,3,0,0,1,50,2.25a1.71,1.71,0,0,1,.78,1.19c.09.7-.18,2-2,4.17M41.24,20.23s0,0,0,.06a2,2,0,0,1,0,.22.75.75,0,0,1,0,.08,2.5,2.5,0,0,1-.05.29L38.78,31.53a5.36,5.36,0,0,1-3.92,3.74L20.41,37.82a5.37,5.37,0,0,1-5-2.18L9.55,26.45a1.73,1.73,0,0,1-.29-1.61A1.73,1.73,0,0,1,10.65,24l.43-.08,3.86-.68,1.77-.31,11.16-2,2.2-.39,4.06-.72,4.06-.72,1.12-.2a1.73,1.73,0,0,1,1.6.35,1.4,1.4,0,0,1,.35,1M7.44,16.34a2.7,2.7,0,0,1,.81-1.29l.49-.44-1.48-3.3-.91.85A5.63,5.63,0,0,1,4,13.77H3.95c-.06,0-.07,0-.07,0s0,0,0-.09,0-.71,1.47-2.31l1.11-1.25L4.77,9.88C3,9.63,2.05,9.23,1.84,9c-.05-.06,0-.1,0-.11a.17.17,0,0,1,.08-.12,1.74,1.74,0,0,1,.75-.25,14,14,0,0,1,3.29,0l.55.05.3-.46C8,6.18,8.64,6,8.76,6h0a2.54,2.54,0,0,1-.07,1.42l-.3,1.36,1.36-.3.39-.08a2.47,2.47,0,0,1,1.4,0c0,.12-.28.82-2.5,1.95l-.66.34L9.5,14.3h.67a2.66,2.66,0,0,1,1.37.39,4.38,4.38,0,0,1,1.53,1.67,23.22,23.22,0,0,1,1.48,5l-4.24.75a4.46,4.46,0,0,0-.61.16A27.63,27.63,0,0,1,7.88,19.7a4.61,4.61,0,0,1-.44-3.36M17.06,19a2.94,2.94,0,0,1,2.38-3.4l7.85-1.38a5.22,5.22,0,0,0,.05,1.22L28,19,17.39,20.82Zm12.51-1.23-.47-2.64a3.88,3.88,0,0,1,0-1.08,2.94,2.94,0,0,1,2.47,2.39l.33,1.86-2.16.38Zm.56-7.42c.19-.53.43-1.2.53-1.63L30.82,8l-.62-.33a.43.43,0,0,1-.14-.29.57.57,0,0,1,0-.27.13.13,0,0,1,0-.05l3.43-.61a.42.42,0,0,1,.14.29.57.57,0,0,1,0,.27l0,0-.47.52.39.58c.24.36.66.87,1,1.33l0,0,.56.68.28.35h0c.28.36.57.74.82,1.12a5.67,5.67,0,0,1,.93,2l.63,3.55-4.06.72-.33-1.86a4.87,4.87,0,0,0-3.95-3.94c.19-.62.41-1.25.61-1.82m21-9.52A4.75,4.75,0,0,0,47.4.1a14.11,14.11,0,0,0-6.67,3.83L36.85,8l-.56.73L36,8.38l0,0-.62-.76v0a2.37,2.37,0,0,0,.07-1.13A2,2,0,0,0,33.23,4.7l-3.44.61a1.83,1.83,0,0,0-1.41,1.25,2.36,2.36,0,0,0-.07,1.13,2.32,2.32,0,0,0,.46,1.05c-.1.31-.23.67-.33,1-.27.76-.57,1.6-.79,2.45L19.1,13.67a4.86,4.86,0,0,0-3.81,3.42,11.55,11.55,0,0,0-.63-1.55,6.16,6.16,0,0,0-2.21-2.38,4.48,4.48,0,0,0-1.6-.59l-.3-1c2.28-1.29,3.19-2.58,2.7-3.85C12.9,6.8,12,6.4,10.63,6.5A2.08,2.08,0,0,0,9.54,4.32a1.82,1.82,0,0,0-1.08-.13c-.92.16-1.85,1-2.9,2.47a14.14,14.14,0,0,0-3.24.07,3.37,3.37,0,0,0-1.56.62,1.91,1.91,0,0,0-.29,2.76c.18.22.68.81,2.55,1.26a4.21,4.21,0,0,0-1,2.29A1.85,1.85,0,0,0,4,15.57a4.38,4.38,0,0,0,2.42-1.08,4.57,4.57,0,0,0-.65,1.35,6.38,6.38,0,0,0,.63,4.81,27.84,27.84,0,0,0,1.79,2.49,3.05,3.05,0,0,0-.65.93,3.63,3.63,0,0,0,.43,3.42l5.89,9.19a7.27,7.27,0,0,0,6.92,3L35.2,37.17a7.27,7.27,0,0,0,5.46-5.22L43.05,21.3a3.7,3.7,0,0,0-.6-3.16l7.76-9.4c1.8-2.18,2.57-4,2.37-5.54A3.48,3.48,0,0,0,51.07.79"/></svg>