<svg xmlns="http://www.w3.org/2000/svg" width="216.8" height="64.2" viewBox="0 0 216.8 64.2"><defs><style>.a{fill:#fff;}</style></defs><title>F9-H1</title><path class="a" d="M31,13.75V3c0-1.73.82-2.66,2.33-2.66h3.9c4.22,0,6.52,1.92,6.52,5.64s-2.21,5.52-6.38,5.52H35.57v2.26c0,1.42-.68,2.23-2,2.23H32.9C31.69,16,31,15.22,31,13.75ZM35.5,8h1.66a1.86,1.86,0,0,0,2.12-2c0-1.3-.75-2-2.19-2H35.5Z"/><path class="a" d="M52.37,13.95,50.27,11h-.82v2.74c0,1.44-.68,2.23-2,2.23h-.64c-1.25,0-1.91-1-1.91-2.78V3c0-1.73.82-2.66,2.33-2.66h4.56c4.1,0,6.16,1.78,6.16,5.09A4.41,4.41,0,0,1,54.74,10l3.33,4.34c.14.19-.66,1.66-2.62,1.66C54,16,53.33,15.34,52.37,13.95Zm-3-6.34H51.3c1.37,0,2.05-.65,2.05-1.8S52.69,4,51.25,4H49.39Z"/><path class="a" d="M59,8.09C59,3.38,62.29,0,66.83,0S74.6,3.36,74.6,8.09s-3.24,8.11-7.77,8.11S59,12.84,59,8.09Zm11.06,0c0-2.28-1.3-3.84-3.26-3.84s-3.28,1.49-3.28,3.84,1.3,3.82,3.28,3.82S70.09,10.39,70.09,8.09Z"/><path class="a" d="M76.13,13.18V3c0-1.73.82-2.66,2.33-2.66h7.2c1.44,0,2.1.67,2.1,1.92V2.4c0,1.32-.66,2-2.1,2h-5V6.91h3.44c1.5,0,2.1.67,2.1,1.82v.1c0,1.25-.62,1.94-2.1,1.94H80.78v3c0,1.46-.68,2.23-2,2.23H78C76.79,16,76.13,14.93,76.13,13.18Z"/><path class="a" d="M89.19,13.75V2.45c0-1.49.66-2.23,1.92-2.23h.66c1.3,0,2,.74,2,2.23v11.3c0,1.46-.68,2.23-2,2.23h-.66C89.86,16,89.19,15.22,89.19,13.75Z"/><path class="a" d="M95.08,2.4V2.33c0-1.32.73-2,2.1-2h9.46c1.41,0,2.12.67,2.12,2V2.4a1.89,1.89,0,0,1-2.12,2.11h-2.39v9.24c0,1.46-.73,2.23-2.05,2.23h-.64c-1.25,0-1.89-.77-1.89-2.23V4.51H97.17A1.89,1.89,0,0,1,95.08,2.4Z"/><path class="a" d="M109.92,13.23V3c0-1.73.82-2.66,2.33-2.66h7.84a1.85,1.85,0,0,1,2.12,2v.12c0,1.32-.66,2-2.12,2h-5.61V6h3.74c1.5,0,2.12.67,2.12,1.85V8c0,1.25-.64,2-2.12,2h-3.74v1.8h5.72c1.44,0,2.1.65,2.1,1.9v.12a1.88,1.88,0,0,1-2.1,2.11h-8C110.74,15.87,109.92,15,109.92,13.23Z"/><path class="a" d="M123.85,13.23V3c0-1.73.82-2.66,2.33-2.66H134a1.85,1.85,0,0,1,2.12,2v.12c0,1.32-.66,2-2.12,2h-5.61V6h3.74c1.5,0,2.12.67,2.12,1.85V8c0,1.25-.64,2-2.12,2h-3.74v1.8h5.72c1.44,0,2.1.65,2.1,1.9v.12a1.88,1.88,0,0,1-2.1,2.11h-8C124.67,15.87,123.85,15,123.85,13.23Z"/><path class="a" d="M145.28,13.95,143.18,11h-.82v2.74c0,1.44-.68,2.23-2,2.23h-.64c-1.25,0-1.92-1-1.92-2.78V3c0-1.73.82-2.66,2.33-2.66h4.56c4.1,0,6.15,1.78,6.15,5.09A4.41,4.41,0,0,1,147.65,10L151,14.33c.14.19-.66,1.66-2.62,1.66C146.94,16,146.24,15.34,145.28,13.95Zm-3-6.34h1.91c1.37,0,2.05-.65,2.05-1.8S145.6,4,144.16,4h-1.87Z"/><path class="a" d="M156.29,13.75V2.45c0-1.49.71-2.23,1.87-2.23h.43a2.19,2.19,0,0,1,2.05,1.13l5.29,7.25V2.45c0-1.46.68-2.23,2-2.23h.39c1.25,0,1.92.77,1.92,2.23v11.3c0,1.49-.71,2.23-1.85,2.23H168a2.1,2.1,0,0,1-2-1.06l-5.4-7.37v6.19c0,1.46-.68,2.23-2,2.23h-.39C157,16,156.29,15.22,156.29,13.75Z"/><path class="a" d="M172.16,9V2.45c0-1.49.75-2.23,2-2.23h.57c1.32,0,2,.74,2,2.23V9.07q0,2.88,2.19,2.88c1.48,0,2.17-.91,2.17-2.9V2.45c0-1.51.75-2.23,2-2.23h.59c1.3,0,2,.72,2,2.23V9c0,4.68-2.3,7.08-6.77,7.08S172.16,13.73,172.16,9Z"/><path class="a" d="M76.22,26.45l2.3,7.73,2.28-7.73a2.62,2.62,0,0,1,2.44-2.23c1.48,0,2.9,1.2,2.71,1.66L81.1,38.19A2.5,2.5,0,0,1,78.46,40a2.41,2.41,0,0,1-2.6-1.8l-5-12.31c-.18-.46,1.32-1.66,2.83-1.66A2.77,2.77,0,0,1,76.22,26.45Z"/><path class="a" d="M94.46,36.65H89.7l-.41,1.2c-.55,1.66-1.5,2.23-2.48,2.23-1.25,0-2.51-1.06-2.35-1.49l4.79-13.06c.23-.77.84-1.32,2.9-1.32s2.6.55,2.83,1.32l5,13c.16.43-1.07,1.54-2.44,1.54-1,0-2-.55-2.62-2.28Zm-4-3.46h3.17L92,28.68Z"/><path class="a" d="M101,37.75V26.45c0-1.49.71-2.23,1.87-2.23h.43a2.19,2.19,0,0,1,2.05,1.13l5.29,7.25V26.45c0-1.46.68-2.23,2-2.23H113c1.25,0,1.92.77,1.92,2.23v11.3c0,1.49-.71,2.23-1.85,2.23h-.36a2.1,2.1,0,0,1-2-1.06l-5.4-7.37v6.19c0,1.46-.68,2.23-2,2.23h-.39C101.62,40,101,39.22,101,37.75Z"/><path class="a" d="M120,37.1a2.38,2.38,0,0,1,1.5-2.4,3.3,3.3,0,0,0,2.69,1.42c1.41,0,2-.65,2-2.5V26.45c0-1.49.68-2.23,1.94-2.23h.66c1.3,0,2,.74,2,2.23V33.7c0,4.46-2,6.5-5.88,6.5C121.68,40.2,120,39,120,37.1Z"/><path class="a" d="M132.83,37.23V27c0-1.73.82-2.66,2.33-2.66H143a1.85,1.85,0,0,1,2.12,2v.12c0,1.32-.66,2-2.12,2h-5.61V30h3.74c1.5,0,2.12.67,2.12,1.85V32c0,1.25-.64,2-2.12,2h-3.74v1.8h5.72c1.44,0,2.1.65,2.1,1.9v.12a1.88,1.88,0,0,1-2.1,2.11h-8C133.65,39.87,132.83,39,132.83,37.23Z"/><path class="a" d="M3.49,62.16,0,49.9a2.93,2.93,0,0,1,2.85-1.63c.91,0,2.14.53,2.51,2.57l1.23,6.7,1.55-6.07a2.31,2.31,0,0,1,2.51-1.75,2.37,2.37,0,0,1,2.44,1.75l1.55,6.07,1.23-6.77c.32-1.87,1.41-2.5,2.48-2.5A2.67,2.67,0,0,1,21,49.9L17.67,62.16C17.33,63.53,16.39,64,15,64a2.4,2.4,0,0,1-2.69-1.85l-1.73-6.41L8.85,62.16A2.42,2.42,0,0,1,6.13,64C4.72,64,3.85,63.6,3.49,62.16Z"/><path class="a" d="M22.69,61.23V51c0-1.73.82-2.66,2.33-2.66h7.84a1.85,1.85,0,0,1,2.12,2v.12c0,1.32-.66,2-2.12,2H27.25V54H31c1.5,0,2.12.67,2.12,1.85V56c0,1.25-.64,2-2.12,2H27.25v1.8H33c1.44,0,2.1.65,2.1,1.9v.12A1.88,1.88,0,0,1,33,63.87H25C23.51,63.87,22.69,63,22.69,61.23Z"/><path class="a" d="M36.62,61.23V50.45c0-1.51.66-2.23,1.91-2.23h.66c1.3,0,2,.72,2,2.23v9.24h4.49c1.41,0,2.1.67,2.1,2v.07a1.87,1.87,0,0,1-2.1,2.11H38.94C37.44,63.87,36.62,63,36.62,61.23Z"/><path class="a" d="M49.11,61.75V50.45c0-1.49.66-2.23,1.91-2.23h.66c1.3,0,2,.74,2,2.23v4.61l3.56-5.21a3,3,0,0,1,2.51-1.63c1.55,0,2.74,1.51,2.6,1.8l-4.13,6,4.33,6.24c.16.29-1.09,1.78-2.76,1.78a2.94,2.94,0,0,1-2.51-1.61l-3.6-5.26v4.63c0,1.46-.68,2.23-2,2.23H51C49.77,64,49.11,63.22,49.11,61.75Z"/><path class="a" d="M63.2,56.09c0-4.7,3.26-8.09,7.8-8.09s7.77,3.36,7.77,8.09S75.54,64.2,71,64.2,63.2,60.84,63.2,56.09Zm11.06,0c0-2.28-1.3-3.84-3.26-3.84s-3.28,1.49-3.28,3.84S69,59.9,71,59.9,74.26,58.39,74.26,56.09Z"/><path class="a" d="M80.3,61.75V50.52c0-1.54.73-2.3,2-2.3h1.3a1.77,1.77,0,0,1,2,1.3l2.39,6.22,2.42-6.22a1.74,1.74,0,0,1,2-1.3h1.28c1.37,0,2.1.77,2.1,2.3V61.75C95.8,63.22,95.32,64,94,64H93.3c-1.25,0-1.78-.77-1.78-2.23V55.1L90,59.67c-.21.6-.23,1.18-1.94,1.18s-1.66-.55-1.92-1.18L84.59,55.3v6.46c0,1.46-.46,2.23-1.78,2.23h-.73C80.83,64,80.3,63.22,80.3,61.75Z"/><path class="a" d="M97.2,61a3,3,0,0,1,1.5-2.28,7.13,7.13,0,0,0,4.38,1.8c1.41,0,2.05-.43,2.05-1.22,0-1-1.16-1-2.64-1.3-2.46-.53-4.95-1.63-4.95-4.85S99.77,48,103.83,48c3.88,0,5.56,1.42,5.56,3a3.09,3.09,0,0,1-1.62,2.4,6,6,0,0,0-3.9-1.68c-1.32,0-2,.43-2,1.2s1.19.84,2.74,1.2c2.89.67,5.11,2,5.11,4.85,0,3.38-2.21,5.28-6.66,5.28S97.2,62.64,97.2,61Z"/><path class="a" d="M110.31,50.4v-.07c0-1.32.73-2,2.1-2h9.46c1.41,0,2.12.67,2.12,2v.07a1.89,1.89,0,0,1-2.12,2.11h-2.39v9.24c0,1.46-.73,2.23-2.05,2.23h-.64c-1.25,0-1.89-.77-1.89-2.23V52.51H112.4A1.89,1.89,0,0,1,110.31,50.4Z"/><path class="a" d="M132.92,60.65h-4.76l-.41,1.2c-.55,1.66-1.5,2.23-2.49,2.23-1.25,0-2.51-1.06-2.35-1.49l4.79-13.06c.23-.77.84-1.32,2.9-1.32s2.6.55,2.83,1.32l5,13c.16.43-1.07,1.54-2.44,1.54-1,0-2-.55-2.62-2.28Zm-4-3.46h3.17l-1.6-4.51Z"/><path class="a" d="M148.68,60.65h-4.76l-.41,1.2c-.55,1.66-1.5,2.23-2.49,2.23-1.25,0-2.51-1.06-2.35-1.49l4.79-13.06c.23-.77.84-1.32,2.9-1.32s2.6.55,2.83,1.32l5,13c.16.43-1.07,1.54-2.44,1.54-1,0-2-.55-2.62-2.28Zm-4-3.46h3.17l-1.6-4.51Z"/><path class="a" d="M155.18,61.75V50.45c0-1.49.71-2.23,1.87-2.23h.43a2.19,2.19,0,0,1,2.05,1.13l5.29,7.25V50.45c0-1.46.68-2.23,2-2.23h.39c1.25,0,1.92.77,1.92,2.23v11.3c0,1.49-.71,2.23-1.85,2.23h-.36a2.1,2.1,0,0,1-2-1.06l-5.4-7.37v6.19c0,1.46-.68,2.23-2,2.23h-.39C155.84,64,155.18,63.22,155.18,61.75Z"/><path class="a" d="M171.11,61.18V51c0-1.73.82-2.66,2.33-2.66h5.29c3.46,0,5.33,1.39,5.33,3.89a3.09,3.09,0,0,1-2.69,3.24,3.79,3.79,0,0,1,3.21,3.91c0,3.12-1.89,4.49-6.41,4.49h-4.74C171.93,63.87,171.11,62.93,171.11,61.18Zm6.25-6.58c1.34,0,2-.53,2-1.49s-.66-1.37-1.94-1.37H175.6V54.6Zm.27,5.83c1.6,0,2.26-.46,2.26-1.58s-.68-1.46-2.3-1.46h-2v3Z"/><path class="a" d="M185.59,56.09c0-4.7,3.26-8.09,7.8-8.09s7.77,3.36,7.77,8.09-3.24,8.11-7.77,8.11S185.59,60.84,185.59,56.09Zm11.06,0c0-2.28-1.3-3.84-3.26-3.84s-3.28,1.49-3.28,3.84,1.3,3.82,3.28,3.82S196.65,58.39,196.65,56.09Z"/><path class="a" d="M202.69,61.23V51a2.35,2.35,0,0,1,2.37-2.66H209c4.86,0,7.84,3,7.84,7.68s-3.08,7.85-7.93,7.85h-3.65A2.57,2.57,0,0,1,202.69,61.23Zm6.06-1.44c2.14,0,3.53-1.37,3.53-3.74s-1.35-3.62-3.47-3.62H207.2v7.37Z"/></svg>