<svg xmlns="http://www.w3.org/2000/svg" width="739.69" height="739.69" viewBox="0 0 739.69 739.69"><defs><style>.a{fill:#c63e55;}.b{fill:#fff;}.c{fill:#ffdc22;}</style></defs><title>promobol_1</title><path class="a" d="M439.32,727.28c197.41-38.37,326.33-229.51,288-426.91S497.77-26,300.37,12.41-26,241.92,12.41,439.33s229.5,326.33,426.91,288"/><path class="b" d="M369.07,739.69A369.83,369.83,0,0,1,63.32,163.09,369.73,369.73,0,0,1,732.79,299.3,369.72,369.72,0,0,1,440.39,732.79,373.61,373.61,0,0,1,369.07,739.69ZM370.6,11.23a362.12,362.12,0,0,0-69.16,6.7A358.52,358.52,0,0,0,169.37,667.07a356.14,356.14,0,0,0,268.88,54.7h0A358.51,358.51,0,0,0,570.32,72.63,356,356,0,0,0,370.6,11.23Z"/><path class="b" d="M681,181.11c-76.83-126.74-227-198.6-381-168.67C168.29,38.06,67,131.78,25.7,250Z"/><path class="b" d="M17.48,256.5l2.92-8.36C63.68,124.35,170.44,31.92,299,6.93,450.44-22.49,605.89,46.32,685.84,178.2l4.59,7.56ZM369,11.42a355.24,355.24,0,0,0-67.84,6.53C179.4,41.62,77.82,127.65,34,243.47l637.49-67C605.12,72.86,489.77,11.42,369,11.42Z"/><path class="a" d="M160.64,161l-13.91-34.35c-.2-.61,2.17-5,7.83-5.59,2.66-.28,6.42.87,8.11,6.65l5.63,19,2.68-18c.37-3.54,3.2-5.46,6.79-5.83,3.39-.36,6.59,1.2,7.66,4.31l6.37,17.06,1.54-19.93c.36-5.51,3.37-7.64,6.5-8,5.32-.56,8.41,3.18,8.29,3.89l-6.07,36.45c-.58,4.06-3.16,5.73-7.3,6.16s-6.79-.55-8.42-4.51l-7-18-3,19c-.64,4.13-3.37,5.75-7.37,6.17S162.14,165.09,160.64,161Z"/><path class="a" d="M216,152.49,212.9,123c-.53-5,1.59-7.95,6-8.41l22.9-2.41c4.26-.45,6.43,1.57,6.81,5.17l0,.35c.4,3.81-1.32,6-5.58,6.47l-16.38,1.72.48,4.5,10.92-1.15c4.39-.46,6.39,1.29,6.75,4.69l0,.21c.38,3.61-1.27,5.88-5.59,6.33l-10.92,1.15.55,5.2L245.59,145c4.19-.44,6.32,1.22,6.7,4.83l0,.35c.4,3.81-1.29,6.3-5.49,6.74L223.6,159.4C219.21,159.86,216.54,157.55,216,152.49Z"/><path class="a" d="M257.35,148.14,254.08,117c-.46-4.37,1.25-6.65,4.92-7l1.93-.2c3.79-.4,6,1.47,6.47,5.84l2.8,26.69,13.12-1.38c4.13-.43,6.33,1.3,6.73,5.11l0,.21c.41,4-1.36,6.31-5.48,6.74l-19.65,2.06C260.55,155.52,257.88,153.2,257.35,148.14Z"/><path class="a" d="M293.72,145.86l-3.43-32.65c-.45-4.3,1.25-6.65,4.91-7l1.93-.2c3.79-.4,6,1.54,6.47,5.84l1.4,13.31,8.8-16.14c2-3.78,4.43-5.23,6.83-5.48,4.53-.48,8.45,3.53,8.14,4.4l-10.25,18.46,14.55,16.7c.55.78-2.66,5.46-7.52,6-2.53.27-5.18-.64-7.81-3.87l-12.12-14.07L307,144.46c.45,4.23-1.32,6.65-5.12,7.05l-1.93.2C296.33,152.11,294.17,150.09,293.72,145.86Z"/><path class="a" d="M332.48,125.25c-1.43-13.59,7.07-24.36,20.32-25.75s23.73,7.32,25.16,21-7,24.43-20.25,25.82S333.92,139,332.48,125.25Zm32.29-3.39c-.69-6.59-5-10.69-10.69-10.09s-9.14,5.31-8.42,12.1,5,10.62,10.75,10S365.47,128.51,364.77,121.85Z"/><path class="a" d="M384.86,136.28l-3.41-32.44c-.46-4.44,1.43-6.88,5.23-7.28l3.8-.4c3.53-.37,4.82.4,6.32,3.12l8.88,17.22,5.17-18.7c.95-3.18,2.27-4,5.34-4.34l3.73-.39c4-.42,6.36,1.57,6.83,6l3.41,32.44c.45,4.23-.72,6.59-4.52,7l-2.13.22c-3.66.38-5.43-1.67-5.87-5.9l-2-19.2-3.14,13.65c-.41,1.79-.31,3.47-5.3,4s-5-1.08-5.95-2.81l-5.79-12.15,2,18.65c.45,4.23-.66,6.59-4.52,7l-2.13.22C387.07,142.57,385.3,140.51,384.86,136.28Z"/><path class="a" d="M435.16,128.82c-.35-3.33,3.27-7.35,3.7-7a21,21,0,0,0,13.33,3.86c4.13-.44,5.86-1.88,5.62-4.17-.29-2.77-3.69-2.41-8.12-2.93-7.36-.77-14.95-3.2-15.92-12.49s5-15.59,16.81-16.83C461.91,88,467.26,91.6,467.73,96c.41,3.88-3.7,7.68-4,7.43a17.57,17.57,0,0,0-11.89-3.66c-3.87.41-5.66,1.86-5.43,4.08.28,2.63,3.72,2.06,8.36,2.63,8.66,1.05,15.52,4.19,16.39,12.43,1,9.78-4.85,15.93-17.84,17.29C440.65,137.57,435.65,133.54,435.16,128.82Z"/><path class="a" d="M470.48,94.13l0-.21c-.4-3.81,1.52-6,5.52-6.4l27.63-2.9c4.13-.43,6.4,1.29,6.8,5.1l0,.21c.42,4-1.42,6.32-5.55,6.75l-7,.73,2.8,26.69c.45,4.23-1.45,6.67-5.32,7.08l-1.86.2c-3.66.38-5.76-1.64-6.21-5.87l-2.8-26.69-7.25.76C473.26,100,470.9,98.09,470.48,94.13Z"/><path class="a" d="M511,108.16l-.22-2.15a4.84,4.84,0,0,1,4.54-5.52l17.11-1.8a4.81,4.81,0,0,1,5.59,4.46l.22,2.15a4.77,4.77,0,0,1-4.54,5.52l-17.11,1.8A4.81,4.81,0,0,1,511,108.16Z"/><path class="a" d="M240,201l-13.92,1.46-.84,3.59c-1.09,5-3.71,6.91-6.58,7.21-3.66.38-7.65-2.28-7.31-3.58l10-39.18c.43-2.29,2.06-4.07,8.05-4.7s7.76.8,8.66,2.94l18.47,36c.59,1.2-2.67,4.77-6.66,5.19-2.8.29-6-1-8.35-5.78Zm-12.7-8.76,9.25-1-6-12.54Z"/><path class="a" d="M287.07,196l-13.92,1.46-.83,3.59c-1.09,5-3.72,6.91-6.58,7.21-3.66.38-7.64-2.28-7.31-3.58l10-39.18c.43-2.29,2.06-4.07,8.05-4.7s7.76.8,8.66,2.94l18.46,36c.6,1.2-2.66,4.77-6.66,5.19-2.8.29-6-1-8.35-5.78Zm-12.7-8.76,9.25-1-6-12.54Z"/><path class="a" d="M306.63,197.2l-3.43-32.65c-.45-4.3,1.39-6.66,4.78-7l1.27-.13c3.13-.33,4.23.54,6.34,2.63l17.65,19.31-1.87-17.75c-.44-4.23,1.32-6.66,5.12-7.05l1.13-.12c3.66-.38,5.83,1.63,6.27,5.86l3.43,32.65c.45,4.3-1.39,6.66-4.72,7l-1.06.11c-3.2.34-4.21-.4-6.25-2.43l-18-19.62,1.88,17.89c.45,4.23-1.32,6.66-5.12,7.05l-1.13.12C309.24,203.44,307.08,201.43,306.63,197.2Z"/><path class="a" d="M354.26,190.51l-3.09-29.39c-.52-5,1.59-7.95,6-8.41l15.45-1.62c10.12-1.06,16,2.38,16.76,9.59.55,5.2-1.95,8.4-6.87,10.18,6.63.92,10,4.77,10.58,10.31.95,9-4.16,13.54-17.35,14.93l-13.85,1.46C357.47,198,354.79,195.57,354.26,190.51Zm16.25-20.91c3.93-.41,5.7-2.14,5.41-4.91s-2.35-3.75-6.08-3.36l-5.33.56.87,8.25Zm2.57,16.76c4.66-.49,6.46-2,6.11-5.27-.31-3-2.44-4-7.17-3.52l-5.79.61.92,8.81Z"/><path class="a" d="M395.25,171.35c-1.43-13.59,7.07-24.36,20.32-25.75s23.73,7.32,25.16,21-7,24.43-20.24,25.82S396.69,185.07,395.25,171.35Zm32.3-3.39c-.69-6.58-5-10.69-10.69-10.09s-9.14,5.31-8.42,12.1,5,10.63,10.75,10S428.24,174.61,427.55,168Z"/><path class="a" d="M447.33,180.87l-3.1-29.53c-.52-5,2.12-8,6.12-8.42l11.39-1.2c14.18-1.49,23.8,6.12,25.24,19.78,1.46,13.86-6.61,23.61-20.79,25.11l-10.66,1.12A7.52,7.52,0,0,1,447.33,180.87Zm17.28-6c6.26-.66,9.91-5,9.18-11.9s-5-10.05-11.22-9.4l-4.73.5,2.24,21.28Z"/><path d="M105.58,360.35l-3.33-31.67a13.64,13.64,0,0,1-4.16,1.23c-7,.74-12.83-4.06-13.6-11.42-1-9.14,4.68-13.35,5.63-13a15,15,0,0,0,7.57,1.24,10.58,10.58,0,0,0,9.54-9l6.69-.7c7.8-.82,12.37,2.87,13.26,11.35l5.17,49.18c.87,8.25-2.8,13-10.61,13.85l-3.35.35C110.91,372.52,106.44,368.6,105.58,360.35Z"/><path d="M135.32,324.19c-.32-3.06,2.41-5.84,2.7-5.61a18.27,18.27,0,0,0,10.76,2.29c1.75-.19,2.63-.6,2.55-1.32s-1.8-.93-4.14-1.21c-3.86-.45-11.8-.93-12.68-9.32-.72-6.83,4.16-11.67,13.84-12.69s14.77,1.08,15.33,6.34c.35,3.31-2.76,6.27-3,6.1-2.77-1.94-6.92-3.28-10-3-1.56.16-2.5.66-2.41,1.44s2.13.82,4.72,1.14c3.92.45,12.27,1,13.12,9.14.75,7.09-4.23,11.62-15,12.75S135.88,329.52,135.32,324.19Z"/><path d="M173.49,316l-1.07-10.21c-3.9.41-6.23-1.12-6.58-4.43l-.08-.78c-.37-3.51,1.52-5.61,5.48-6l-.25-2.41c-.5-4.74,1.63-7.6,6.05-8.06l1.23-.13c4.1-.43,7.07,1,7.6,6.63l.25,2.41,2.21-.23q5.85-.61,6.38,4.46l.08.78c.37,3.51-1.51,5.62-5.48,6l-2.34.25.89,8.52a2,2,0,0,0,2.37,1.92,3.69,3.69,0,0,0,2.92-2.21c.16-.35,3.37,1.42,3.75,5.06.52,4.94-3.43,8.64-9.93,9.33C178.81,327.71,174.35,324.1,173.49,316Z"/><path d="M198.16,308.65c-1.05-10,5.51-18.2,15.85-19.28s18.22,5.12,19.19,14.35l.07.65c.15,2.09-.28,3.58-2.36,3.8l-19.7,2.07c1.06,2.58,3.6,3.57,6.85,3.22s5.71-1.92,6.54-4c0-.06,6.95-.86,7.55,4.87.52,4.94-4.32,8.27-13.62,9.25C206.95,324.75,199.27,319.31,198.16,308.65Zm12.57-4.87,8.91-.94c-.44-2.91-2.17-4.37-4.83-4.09A4.59,4.59,0,0,0,210.72,303.78Z"/><path d="M252.91,295.26l0-.34c-.79-7.47,3.17-11.72,11.42-12.59l44-4.63c8.48-.89,13,2.47,13.79,9.94l0,.33c.82,7.8-2.87,12.36-11.35,13.25l-8.14.86,3.84,36.58c.87,8.25-3,13.06-10.83,13.88l-3.9.41c-7.47.79-11.72-3.16-12.59-11.42L275.35,305l-8.59.9C258.52,306.73,253.73,303.06,252.91,295.26Z"/><path d="M330.93,336.1,325.88,288c-.89-8.47,2.69-13,10.16-13.8l4-.42c7.8-.82,12.36,2.87,13.25,11.34l1.31,12.49,16.28-1.71-1.31-12.49c-.89-8.47,2.69-13,10.16-13.81l4-.42c7.8-.82,12.37,2.87,13.26,11.34l5.05,48.06c.87,8.25-2.8,13-10.61,13.86l-4,.42c-7.47.79-11.95-3.14-12.81-11.39l-1.36-12.94L357,320.28l1.36,12.94c.87,8.25-2.8,13-10.61,13.86l-4,.42C336.27,348.28,331.79,344.35,330.93,336.1Z"/><path d="M409,307l-2.88-27.43c-.89-8.47,3.25-13.08,10.72-13.86l3.34-.35c7.8-.82,12.37,2.87,13.26,11.34l2.91,27.65c.71,6.8,3.51,9.78,8.52,9.25s6.93-3.77,6.19-10.8l-2.91-27.65c-.89-8.47,3.25-13.08,10.72-13.87l3.35-.35c7.8-.82,12.36,2.87,13.25,11.34l2.88,27.43q3.55,33.79-31.12,37.43T409,307Z"/><path d="M490,319.37,485,271.31c-.89-8.47,2.69-13,10.16-13.8l3.91-.41c7.8-.82,12.36,2.87,13.25,11.34l5.05,48.06c.87,8.25-2.8,13-10.61,13.86l-3.91.41C495.37,331.55,490.9,327.63,490,319.37Z"/><path d="M524.12,314.44c-.64-6.13,6.08-14.05,7-13.48,5.27,2.94,15.23,5.5,21.93,4.8,5.46-.57,7.38-1.68,7.14-3.91-.29-2.79-4.78-2.54-11-3.12-12.64-1.15-25.65-4.86-27.24-20-1.68-15.94,8.54-26,30.28-28.32,20.4-2.14,29.09,3.25,29.92,11.17.76,7.25-7.13,14.73-7.74,14.34-5.66-3.46-13.55-5.56-19.68-4.92-5.35.56-7.15,1.65-6.92,3.88.26,2.45,5.4,2,12,2.68,15.39,1.65,26.42,6.81,27.78,19.74,1.77,16.84-8.48,26.6-32.34,29.11C532.4,328.79,525,322.8,524.12,314.44Z"/><path d="M593.76,287.28l-.46-4.35c-.5-4.8,2.44-10.07,9.13-10.77L632.65,269c6.8-.71,10.66,3.84,11.16,8.64l.46,4.35c.53,5-2.31,10.16-9.11,10.88L604.94,296C598.24,296.73,594.28,292.3,593.76,287.28Z"/><path d="M106,465.26l-4.75-45.16c-.89-8.47,2.69-13,10.16-13.8l3.9-.41c7.81-.82,12.37,2.87,13.26,11.34l3.85,36.57L150,451.95c8.47-.89,13,2.47,13.78,9.94l0,.34c.82,7.8-2.87,12.36-11.34,13.25l-31.11,3.27C112.33,479.69,107,475.29,106,465.26Z"/><path d="M167.51,458.79l-4.42-42c-1.05-10,3.2-15.67,12.23-16.62l36.8-3.87c8.7-.91,12.94,1.91,13.69,9l.06.56c.79,7.47-2.82,10.67-11.52,11.59L191,419.9l.5,4.79,13.71-1.44c9-.95,12.88,1.35,13.57,7.93l0,.33c.74,7-2.64,10.31-11.56,11.25l-13.71,1.44.6,5.69L218,447.4c8.7-.91,12.87,1.24,13.61,8.27l.06.56c.79,7.47-2.77,11.23-11.46,12.14l-37.24,3.91C173.88,473.23,168.57,468.82,167.51,458.79Z"/><path d="M261.13,403.4l10.15,24.75,4.68-26.3c1.53-9.07,7.14-13.61,13.16-14.24,8.81-.93,18,5.09,17.16,7.78L289,451.31c-2.35,7.69-6.61,11.07-14.42,11.89s-12.2-1.31-16.36-8.66l-29.38-51c-1.38-2.45,6.92-10.3,16-11.25C251.87,391.53,258.08,395.94,261.13,403.4Z"/><path d="M314.91,443.3l-4.42-42c-1.05-10,3.2-15.67,12.23-16.62l36.8-3.87c8.7-.91,12.94,1.91,13.69,9l.06.56c.79,7.47-2.82,10.67-11.52,11.59l-23.31,2.45.5,4.79,13.72-1.44c9-.95,12.88,1.35,13.57,7.93l0,.33c.74,7-2.64,10.31-11.55,11.25L341,428.71l.6,5.69,23.75-2.5c8.7-.91,12.87,1.24,13.61,8.27l.06.56c.79,7.47-2.77,11.23-11.46,12.14l-37.24,3.91C321.28,457.73,316,453.33,314.91,443.3Z"/><path d="M421.35,435.94l-8.16-9.07-1.12.12.94,8.92c.87,8.25-2.8,13-10.61,13.86l-3.9.41c-7.47.79-12.12-4.81-13.17-14.85L381,393.85c-1.05-10,3.2-15.67,12.23-16.62l23.08-2.43c21.18-2.23,32.36,5.39,34,21.34,1,9.7-2.77,17.66-11.2,22.15L455.64,435c.89.92-2.84,9.43-14.55,10.66C432.28,446.63,427.87,443.26,421.35,435.94ZM409.74,409.2l6.69-.7c5-.53,7.35-3,6.91-7.26s-3-6.34-8.39-5.77l-6.58.69Z"/><path d="M462.06,430.76,457,382.7c-.89-8.47,2.69-13,10.16-13.8l3.9-.41c7.8-.82,12.37,2.87,13.26,11.34l5.05,48.06c.87,8.25-2.8,13-10.61,13.86l-3.9.41C467.4,442.94,462.93,439,462.06,430.76Z"/><path d="M499.19,426.86l-5.11-48.62c-.87-8.25,2.86-12.47,9.55-13.18l2.23-.23c6.13-.64,8.08.72,12.07,4.37L542.08,393l-2-19.07c-.87-8.25,2.8-13,10.61-13.85l2.23-.23c7.47-.79,11.95,3.14,12.81,11.39l5.11,48.62c.87,8.25-2.86,12.48-9.55,13.18l-2.23.23c-6.13.64-8.18-.61-12.07-4.37l-24.09-23.29,1.95,18.51c.87,8.25-2.8,13-10.61,13.86l-2.23.23C504.53,439,500.06,435.11,499.19,426.86Z"/><path d="M632.12,416.27c-2.73,6.26-8.89,10.86-19.27,11.95-19.62,2.06-35.54-12-37.81-33.68-2.3-21.86,12.09-39.37,36.63-42,18.29-1.92,29.76,3.18,30.95,14.45,1,9.37-11.24,14.26-12.11,13.45A18.62,18.62,0,0,0,616,375.68c-8.25.87-14.4,7.83-13.39,17.42,1,9.93,7.91,15.18,15.61,14.37,4.91-.52,8.2-2.44,9.46-5.5l-2.34.25c-8.47.89-12.79-.46-13.57-7.93l-.12-1.12c-.82-7.81,3.16-9.58,11.64-10.47l19.07-2c7.47-.79,8.8,2.23,9.49,9.82l3.15,30c.08.78-4,3.12-8.86,3.64S635.22,423.27,632.12,416.27Z"/><path d="M245.68,565.33c-2.72,6.26-8.89,10.86-19.26,11.95-19.62,2.07-35.54-12-37.81-33.68-2.3-21.86,12.09-39.37,36.63-42,18.29-1.92,29.76,3.18,30.94,14.45,1,9.37-11.24,14.26-12.11,13.45a18.6,18.6,0,0,0-14.48-4.79c-8.25.87-14.4,7.83-13.39,17.41,1,9.93,7.91,15.18,15.61,14.37,4.91-.52,8.2-2.44,9.45-5.5l-2.34.25c-8.48.89-12.79-.46-13.57-7.93l-.12-1.11c-.82-7.81,3.16-9.58,11.64-10.47l19.07-2c7.47-.79,8.8,2.23,9.49,9.83l3.15,30c.08.78-4,3.13-8.86,3.64S248.78,572.33,245.68,565.33Z"/><path d="M311.2,556,303,546.9l-1.11.12.94,8.92c.87,8.25-2.8,13-10.61,13.86l-3.9.41c-7.47.79-12.12-4.82-13.17-14.86l-4.36-41.48c-1.05-10,3.2-15.67,12.23-16.62l23.08-2.43c21.19-2.23,32.36,5.39,34,21.34,1,9.71-2.77,17.66-11.2,22.15l16.53,16.75c.89.92-2.84,9.43-14.55,10.66C322.14,566.65,317.72,563.28,311.2,556Zm-11.6-26.74,6.69-.7c5-.53,7.35-3,6.91-7.27s-3-6.33-8.39-5.77l-6.58.69Z"/><path d="M397.3,546l-20.52,2.16-.16.59c-2.36,9.71-7.7,13.66-13.5,14.27-7.36.77-15.46-4.46-14.83-7l16.3-60.45c.78-4.37,4-7.86,16.29-9.15s15.6,1.52,17.28,5.63l29.71,55.27c1.27,2.35-5.44,9.37-13.58,10.22-5.69.6-12-1.89-16.86-11.3Zm-18.52-17.45,12-1.27-7.74-15.75Z"/><path d="M414.83,495.13l0-.34c-.79-7.47,3.16-11.72,11.42-12.59l44-4.63c8.48-.89,13,2.47,13.79,9.94l0,.34c.82,7.8-2.87,12.36-11.35,13.25l-8.14.86,3.84,36.57c.87,8.25-3,13.06-10.83,13.88l-3.9.41c-7.47.79-11.72-3.17-12.59-11.42l-3.84-36.57-8.59.9C420.43,506.6,415.65,502.93,414.83,495.13Z"/><path d="M493.18,535.93l-5.05-48.06c-.89-8.47,2.69-13,10.16-13.8l3.9-.41c7.8-.82,12.36,2.87,13.25,11.34l5.05,48.06c.87,8.25-2.8,13-10.61,13.86l-3.9.41C498.52,548.12,494,544.19,493.18,535.93Z"/><path d="M527.27,531c-.64-6.13,6.08-14.05,7-13.48,5.27,2.94,15.23,5.5,21.93,4.8,5.46-.57,7.38-1.68,7.14-3.9-.29-2.79-4.77-2.54-11-3.12-12.64-1.15-25.65-4.86-27.25-20-1.68-15.94,8.54-26,30.28-28.32,20.41-2.14,29.09,3.25,29.92,11.17.76,7.25-7.13,14.73-7.74,14.34-5.66-3.46-13.55-5.57-19.68-4.92-5.35.56-7.15,1.65-6.92,3.88.26,2.46,5.4,2,12,2.69,15.39,1.64,26.42,6.8,27.78,19.73,1.77,16.84-8.48,26.6-32.34,29.11C535.54,545.35,528.15,539.36,527.27,531Z"/><path class="b" d="M97.58,352.35l-3.33-31.67a13.64,13.64,0,0,1-4.16,1.23c-7,.74-12.83-4.06-13.6-11.42-1-9.14,4.68-13.35,5.63-13a15,15,0,0,0,7.57,1.24,10.58,10.58,0,0,0,9.54-9l6.69-.7c7.8-.82,12.37,2.87,13.26,11.35l5.17,49.18c.87,8.25-2.8,13-10.61,13.85l-3.35.35C102.91,364.52,98.44,360.6,97.58,352.35Z"/><path class="b" d="M127.32,316.19c-.32-3.06,2.41-5.84,2.7-5.61a18.27,18.27,0,0,0,10.76,2.29c1.75-.19,2.63-.6,2.55-1.32s-1.8-.93-4.14-1.21c-3.86-.45-11.8-.93-12.68-9.32-.72-6.83,4.16-11.67,13.84-12.69s14.77,1.08,15.33,6.34c.35,3.31-2.76,6.27-3,6.1-2.77-1.94-6.92-3.28-10-3-1.56.16-2.5.66-2.41,1.44s2.13.82,4.72,1.14c3.92.45,12.27,1,13.12,9.14.75,7.09-4.23,11.62-15,12.75S127.88,321.52,127.32,316.19Z"/><path class="b" d="M165.49,308l-1.07-10.21c-3.9.41-6.23-1.12-6.58-4.43l-.08-.78c-.37-3.51,1.52-5.61,5.48-6l-.25-2.41c-.5-4.74,1.63-7.6,6.05-8.06l1.23-.13c4.1-.43,7.07,1,7.6,6.63l.25,2.41,2.21-.23q5.85-.61,6.38,4.46l.08.78c.37,3.51-1.51,5.62-5.48,6l-2.34.25.89,8.52a2,2,0,0,0,2.37,1.92,3.69,3.69,0,0,0,2.92-2.21c.16-.35,3.37,1.42,3.75,5.06.52,4.94-3.43,8.64-9.93,9.33C170.81,319.71,166.35,316.1,165.49,308Z"/><path class="b" d="M190.16,300.65c-1.05-10,5.51-18.2,15.85-19.28s18.22,5.12,19.19,14.35l.07.65c.15,2.09-.28,3.58-2.36,3.8l-19.7,2.07c1.06,2.58,3.6,3.57,6.85,3.22s5.71-1.92,6.54-4c0-.06,6.95-.86,7.55,4.87.52,4.94-4.32,8.27-13.62,9.25C198.95,316.75,191.27,311.31,190.16,300.65Zm12.57-4.87,8.91-.94c-.44-2.91-2.17-4.37-4.83-4.09A4.59,4.59,0,0,0,202.72,295.78Z"/><path class="b" d="M244.91,287.26l0-.34c-.79-7.47,3.17-11.72,11.42-12.59l44-4.63c8.48-.89,13,2.47,13.79,9.94l0,.33c.82,7.8-2.87,12.36-11.35,13.25l-8.14.86,3.84,36.58c.87,8.25-3,13.06-10.83,13.88l-3.9.41c-7.47.79-11.72-3.16-12.59-11.42L267.35,297l-8.59.9C250.52,298.73,245.73,295.06,244.91,287.26Z"/><path class="b" d="M322.93,328.1,317.88,280c-.89-8.47,2.69-13,10.16-13.8l4-.42c7.8-.82,12.36,2.87,13.25,11.34l1.31,12.49,16.28-1.71-1.31-12.49c-.89-8.47,2.69-13,10.16-13.81l4-.42c7.8-.82,12.37,2.87,13.26,11.34l5.05,48.06c.87,8.25-2.8,13-10.61,13.86l-4,.42c-7.47.79-11.95-3.14-12.81-11.39l-1.36-12.94L349,312.28l1.36,12.94c.87,8.25-2.8,13-10.61,13.86l-4,.42C328.27,340.28,323.79,336.35,322.93,328.1Z"/><path class="b" d="M401,299l-2.88-27.43c-.89-8.47,3.25-13.08,10.72-13.86l3.34-.35c7.8-.82,12.37,2.87,13.26,11.34l2.91,27.65c.71,6.8,3.51,9.78,8.52,9.25s6.93-3.77,6.19-10.8l-2.91-27.65c-.89-8.47,3.25-13.08,10.72-13.87l3.35-.35c7.8-.82,12.36,2.87,13.25,11.34l2.88,27.43q3.55,33.79-31.12,37.43T401,299Z"/><path class="b" d="M482,311.37,477,263.31c-.89-8.47,2.69-13,10.16-13.8l3.91-.41c7.8-.82,12.36,2.87,13.25,11.34l5.05,48.06c.87,8.25-2.8,13-10.61,13.86l-3.91.41C487.37,323.55,482.9,319.63,482,311.37Z"/><path class="b" d="M516.12,306.44c-.64-6.13,6.08-14.05,7-13.48,5.27,2.94,15.23,5.5,21.93,4.8,5.46-.57,7.38-1.68,7.14-3.91-.29-2.79-4.78-2.54-11-3.12-12.64-1.15-25.65-4.86-27.24-20-1.68-15.94,8.54-26,30.28-28.32,20.4-2.14,29.09,3.25,29.92,11.17.76,7.25-7.13,14.73-7.74,14.34-5.66-3.46-13.55-5.56-19.68-4.92-5.35.56-7.15,1.65-6.92,3.88.26,2.45,5.4,2,12,2.68,15.39,1.65,26.42,6.81,27.78,19.74,1.77,16.84-8.48,26.6-32.34,29.11C524.4,320.79,517,314.8,516.12,306.44Z"/><path class="b" d="M585.76,279.28l-.46-4.35c-.5-4.8,2.44-10.07,9.13-10.77L624.65,261c6.8-.71,10.66,3.84,11.16,8.64l.46,4.35c.53,5-2.31,10.16-9.11,10.88L596.94,288C590.24,288.73,586.28,284.3,585.76,279.28Z"/><path class="b" d="M98,457.26,93.22,412.1c-.89-8.47,2.69-13,10.16-13.8l3.9-.41c7.81-.82,12.37,2.87,13.26,11.34l3.85,36.57L142,443.95c8.47-.89,13,2.47,13.78,9.94l0,.34c.82,7.8-2.87,12.36-11.34,13.25l-31.11,3.27C104.33,471.69,99,467.29,98,457.26Z"/><path class="b" d="M159.51,450.79l-4.42-42c-1.05-10,3.2-15.67,12.23-16.62l36.8-3.87c8.7-.91,12.94,1.91,13.69,9l.06.56c.79,7.47-2.82,10.67-11.52,11.59L183,411.9l.5,4.79,13.71-1.44c9-.95,12.88,1.35,13.57,7.93l0,.33c.74,7-2.64,10.31-11.56,11.25l-13.71,1.44.6,5.69L210,439.4c8.7-.91,12.87,1.24,13.61,8.27l.06.56c.79,7.47-2.77,11.23-11.46,12.14l-37.24,3.91C165.88,465.23,160.57,460.82,159.51,450.79Z"/><path class="b" d="M253.13,395.4l10.15,24.75,4.68-26.3c1.53-9.07,7.14-13.61,13.16-14.24,8.81-.93,18,5.09,17.16,7.78L281,443.31c-2.35,7.69-6.61,11.07-14.42,11.89s-12.2-1.31-16.36-8.66l-29.38-51c-1.38-2.45,6.92-10.3,16-11.25C243.87,383.53,250.08,387.94,253.13,395.4Z"/><path class="b" d="M306.91,435.3l-4.42-42c-1.05-10,3.2-15.67,12.23-16.62l36.8-3.87c8.7-.91,12.94,1.91,13.69,9l.06.56c.79,7.47-2.82,10.67-11.52,11.59l-23.31,2.45.5,4.79,13.72-1.44c9-.95,12.88,1.35,13.57,7.93l0,.33c.74,7-2.64,10.31-11.55,11.25L333,420.71l.6,5.69,23.75-2.5c8.7-.91,12.87,1.24,13.61,8.27l.06.56c.79,7.47-2.77,11.23-11.46,12.14l-37.24,3.91C313.28,449.73,308,445.33,306.91,435.3Z"/><path class="b" d="M413.35,427.94l-8.16-9.07-1.12.12.94,8.92c.87,8.25-2.8,13-10.61,13.86l-3.9.41c-7.47.79-12.12-4.81-13.17-14.85L373,385.85c-1.05-10,3.2-15.67,12.23-16.62l23.08-2.43c21.18-2.23,32.36,5.39,34,21.34,1,9.7-2.77,17.66-11.2,22.15L447.64,427c.89.92-2.84,9.43-14.55,10.66C424.28,438.63,419.87,435.26,413.35,427.94ZM401.74,401.2l6.69-.7c5-.53,7.35-3,6.91-7.26s-3-6.34-8.39-5.77l-6.58.69Z"/><path class="b" d="M454.06,422.76,449,374.7c-.89-8.47,2.69-13,10.16-13.8l3.9-.41c7.8-.82,12.37,2.87,13.26,11.34l5.05,48.06c.87,8.25-2.8,13-10.61,13.86l-3.9.41C459.4,434.94,454.93,431,454.06,422.76Z"/><path class="b" d="M491.19,418.86l-5.11-48.62c-.87-8.25,2.86-12.47,9.55-13.18l2.23-.23c6.13-.64,8.08.72,12.07,4.37L534.08,385l-2-19.07c-.87-8.25,2.8-13,10.61-13.85l2.23-.23c7.47-.79,11.95,3.14,12.81,11.39l5.11,48.62c.87,8.25-2.86,12.48-9.55,13.18l-2.23.23c-6.13.64-8.18-.61-12.07-4.37l-24.09-23.29,1.95,18.51c.87,8.25-2.8,13-10.61,13.86l-2.23.23C496.53,431,492.06,427.11,491.19,418.86Z"/><path class="b" d="M624.12,408.27c-2.73,6.26-8.89,10.86-19.27,11.95-19.62,2.06-35.54-12-37.81-33.68-2.3-21.86,12.09-39.37,36.63-42,18.29-1.92,29.76,3.18,30.95,14.45,1,9.37-11.24,14.26-12.11,13.45A18.62,18.62,0,0,0,608,367.68c-8.25.87-14.4,7.83-13.39,17.42,1,9.93,7.91,15.18,15.61,14.37,4.91-.52,8.2-2.44,9.46-5.5l-2.34.25c-8.47.89-12.79-.46-13.57-7.93l-.12-1.12c-.82-7.81,3.16-9.58,11.64-10.47l19.07-2c7.47-.79,8.8,2.23,9.49,9.82l3.15,30c.08.78-4,3.12-8.86,3.64S627.22,415.27,624.12,408.27Z"/><path class="c" d="M237.68,557.33c-2.72,6.26-8.89,10.86-19.26,11.95-19.62,2.07-35.54-12-37.81-33.68-2.3-21.86,12.09-39.37,36.63-42,18.29-1.92,29.76,3.18,30.94,14.45,1,9.37-11.24,14.26-12.11,13.45a18.6,18.6,0,0,0-14.48-4.79c-8.25.87-14.4,7.83-13.39,17.41,1,9.93,7.91,15.18,15.61,14.37,4.91-.52,8.2-2.44,9.45-5.5l-2.34.25c-8.48.89-12.79-.46-13.57-7.93l-.12-1.11c-.82-7.81,3.16-9.58,11.64-10.47l19.07-2c7.47-.79,8.8,2.23,9.49,9.83l3.15,30c.08.78-4,3.13-8.86,3.64S240.78,564.33,237.68,557.33Z"/><path class="c" d="M303.2,548,295,538.9l-1.11.12.94,8.92c.87,8.25-2.8,13-10.61,13.86l-3.9.41c-7.47.79-12.12-4.82-13.17-14.86l-4.36-41.48c-1.05-10,3.2-15.67,12.23-16.62l23.08-2.43c21.19-2.23,32.36,5.39,34,21.34,1,9.71-2.77,17.66-11.2,22.15l16.53,16.75c.89.92-2.84,9.43-14.55,10.66C314.14,558.65,309.72,555.28,303.2,548Zm-11.6-26.74,6.69-.7c5-.53,7.35-3,6.91-7.27s-3-6.33-8.39-5.77l-6.58.69Z"/><path class="c" d="M389.3,538l-20.52,2.16-.16.59c-2.36,9.71-7.7,13.66-13.5,14.27-7.36.77-15.46-4.46-14.83-7l16.3-60.45c.78-4.37,4-7.86,16.29-9.15s15.6,1.52,17.28,5.63l29.71,55.27c1.27,2.35-5.44,9.37-13.58,10.22-5.69.6-12-1.89-16.86-11.3Zm-18.52-17.45,12-1.27-7.74-15.75Z"/><path class="c" d="M406.83,487.13l0-.34c-.79-7.47,3.16-11.72,11.42-12.59l44-4.63c8.48-.89,13,2.47,13.79,9.94l0,.34c.82,7.8-2.87,12.36-11.35,13.25l-8.14.86,3.84,36.57c.87,8.25-3,13.06-10.83,13.88l-3.9.41c-7.47.79-11.72-3.17-12.59-11.42l-3.84-36.57-8.59.9C412.43,498.6,407.65,494.93,406.83,487.13Z"/><path class="c" d="M485.18,527.93l-5.05-48.06c-.89-8.47,2.69-13,10.16-13.8l3.9-.41c7.8-.82,12.36,2.87,13.25,11.34l5.05,48.06c.87,8.25-2.8,13-10.61,13.86l-3.9.41C490.52,540.12,486,536.19,485.18,527.93Z"/><path class="c" d="M519.27,523c-.64-6.13,6.08-14.05,7-13.48,5.27,2.94,15.23,5.5,21.93,4.8,5.46-.57,7.38-1.68,7.14-3.9-.29-2.79-4.77-2.54-11-3.12-12.64-1.15-25.65-4.86-27.25-20-1.68-15.94,8.54-26,30.28-28.32,20.41-2.14,29.09,3.25,29.92,11.17.76,7.25-7.13,14.73-7.74,14.34-5.66-3.46-13.55-5.57-19.68-4.92-5.35.56-7.15,1.65-6.92,3.88.26,2.46,5.4,2,12,2.69,15.39,1.64,26.42,6.8,27.78,19.73,1.77,16.84-8.48,26.6-32.34,29.11C527.54,537.35,520.15,531.36,519.27,523Z"/></svg>