<svg xmlns="http://www.w3.org/2000/svg" width="195.63" height="47.98" viewBox="0 0 195.63 47.98"><defs><style>.a{fill:#006365;}</style></defs><title>F1-H1</title><path class="a" d="M15.1,15.55V3.34c0-2.07,1-3.2,2.79-3.2h6.35c4.16,0,6.4,1.67,6.4,4.66,0,2.16-1.15,3.37-3.23,3.89a4.55,4.55,0,0,1,3.86,4.69c0,3.74-2.27,5.38-7.69,5.38H17.9C16.09,18.77,15.1,17.65,15.1,15.55Zm7.5-7.89C24.22,7.66,25,7,25,5.87s-.79-1.64-2.33-1.64H20.49V7.66Zm.33,7c1.92,0,2.71-.55,2.71-1.9S24.82,11,22.87,11H20.49v3.66Z"/><path class="a" d="M37.84,16.24V11.49L31.68,2.22c-.16-.29.79-2.16,3.58-2.16.93,0,1.83.58,2.57,2L40.55,7,43.39,2c.82-1.47,1.7-2,2.6-2C48.51,0,49.55,2,49.39,2.22l-6.07,9.27v4.75c0,1.76-.82,2.68-2.38,2.68h-.79C38.63,18.92,37.84,18,37.84,16.24Z"/><path class="a" d="M50.43,15.61V3.34c0-2.07,1-3.2,2.79-3.2h9.41a2.22,2.22,0,0,1,2.54,2.42v.14c0,1.58-.79,2.42-2.54,2.42H55.9V7h4.49c1.81,0,2.54.81,2.54,2.22V9.3c0,1.5-.77,2.36-2.54,2.36H55.9v2.16h6.87c1.72,0,2.52.78,2.52,2.27v.14a2.26,2.26,0,0,1-2.52,2.53H53.22C51.41,18.77,50.43,17.71,50.43,15.61Z"/><path class="a" d="M71.68,15.55V3.34c0-2.07,1-3.2,2.79-3.2h6.35c4.16,0,6.4,1.67,6.4,4.66C87.22,7,86.08,8.18,84,8.7a4.55,4.55,0,0,1,3.86,4.69c0,3.74-2.27,5.38-7.69,5.38H74.48C72.67,18.77,71.68,17.65,71.68,15.55Zm7.5-7.89c1.61,0,2.41-.63,2.41-1.79s-.79-1.64-2.33-1.64H77.07V7.66Zm.33,7c1.92,0,2.71-.55,2.71-1.9S81.4,11,79.45,11H77.07v3.66Z"/><path class="a" d="M94.42,16.24V11.49L88.26,2.22c-.16-.29.79-2.16,3.58-2.16.93,0,1.83.58,2.57,2L97.13,7,100,2c.82-1.47,1.7-2,2.6-2C105.09,0,106.13,2,106,2.22l-6.07,9.27v4.75c0,1.76-.82,2.68-2.38,2.68h-.79C95.21,18.92,94.42,18,94.42,16.24Z"/><path class="a" d="M107,15.61V3.34c0-2.07,1-3.2,2.79-3.2h9.41a2.22,2.22,0,0,1,2.54,2.42v.14c0,1.58-.79,2.42-2.54,2.42h-6.73V7H117c1.81,0,2.54.81,2.54,2.22V9.3c0,1.5-.77,2.36-2.54,2.36h-4.49v2.16h6.87c1.72,0,2.52.78,2.52,2.27v.14a2.26,2.26,0,0,1-2.52,2.53H109.8C108,18.77,107,17.71,107,15.61Z"/><path class="a" d="M128.24,15.55V3.34c0-2.07,1-3.2,2.79-3.2h8.65c1.72,0,2.52.81,2.52,2.3v.17c0,1.58-.79,2.39-2.52,2.39h-6V8h4.13c1.81,0,2.52.81,2.52,2.19v.12c0,1.5-.74,2.33-2.52,2.33h-3.94v3.54c0,1.76-.82,2.68-2.41,2.68h-.88C129,18.89,128.24,17.65,128.24,15.55Z"/><path class="a" d="M143.94,16.24V2.68c0-1.79.79-2.68,2.3-2.68H147c1.56,0,2.38.89,2.38,2.68V16.24c0,1.76-.82,2.68-2.38,2.68h-.79C144.73,18.92,143.94,18,143.94,16.24Z"/><path class="a" d="M152,15.61V2.68c0-1.81.79-2.68,2.3-2.68h.79c1.56,0,2.38.86,2.38,2.68V13.76h5.39c1.7,0,2.52.81,2.52,2.39v.09a2.24,2.24,0,0,1-2.52,2.53h-8.07C153,18.77,152,17.71,152,15.61Z"/><path class="a" d="M167,15.61V3.34c0-2.07,1-3.2,2.79-3.2h9.41a2.22,2.22,0,0,1,2.54,2.42v.14c0,1.58-.79,2.42-2.54,2.42h-6.73V7h4.49c1.81,0,2.54.81,2.54,2.22V9.3c0,1.5-.77,2.36-2.54,2.36h-4.49v2.16h6.87c1.72,0,2.52.78,2.52,2.27v.14a2.26,2.26,0,0,1-2.52,2.53h-9.55C168,18.77,167,17.71,167,15.61Z"/><path class="a" d="M12,43.72H6.31l-.49,1.44c-.66,2-1.81,2.68-3,2.68-1.5,0-3-1.27-2.82-1.79L5.76,30.38c.27-.92,1-1.58,3.47-1.58s3.12.66,3.39,1.58l6,15.61c.19.52-1.29,1.84-2.93,1.84-1.15,0-2.38-.66-3.15-2.74ZM7.24,39.57H11L9.13,34.16Z"/><path class="a" d="M30.93,43.72H25.21l-.49,1.44c-.66,2-1.81,2.68-3,2.68-1.5,0-3-1.27-2.82-1.79l5.75-15.66c.27-.92,1-1.58,3.47-1.58s3.12.66,3.39,1.58L37.5,46c.19.52-1.29,1.84-2.93,1.84-1.15,0-2.38-.66-3.15-2.74Zm-4.79-4.15h3.8L28,34.16Z"/><path class="a" d="M38.73,45V31.48c0-1.79.85-2.68,2.24-2.68h.52A2.63,2.63,0,0,1,44,30.15l6.35,8.7V31.48c0-1.76.82-2.68,2.38-2.68h.47c1.5,0,2.3.92,2.3,2.68V45c0,1.79-.85,2.68-2.22,2.68h-.44a2.52,2.52,0,0,1-2.44-1.27l-6.48-8.84V45c0,1.76-.82,2.68-2.38,2.68H41C39.52,47.72,38.73,46.8,38.73,45Z"/><path class="a" d="M62.37,44.41V32.14c0-2.07,1.2-3.2,2.85-3.2h4.68c5.83,0,9.41,3.54,9.41,9.21s-3.69,9.42-9.52,9.42H65.41A3.09,3.09,0,0,1,62.37,44.41Zm7.28-1.73c2.57,0,4.24-1.64,4.24-4.49s-1.61-4.35-4.16-4.35H67.79v8.84Z"/><path class="a" d="M81.14,44.41V32.14c0-2.07,1-3.2,2.79-3.2h9.41a2.22,2.22,0,0,1,2.54,2.42v.14c0,1.58-.79,2.42-2.54,2.42H86.61V35.8H91.1c1.81,0,2.54.81,2.54,2.22v.09c0,1.5-.77,2.36-2.54,2.36H86.61v2.16h6.87c1.72,0,2.52.78,2.52,2.27V45a2.26,2.26,0,0,1-2.52,2.53H83.93C82.12,47.57,81.14,46.51,81.14,44.41Z"/><path class="a" d="M102.4,45V31.48c0-1.79.79-2.68,2.3-2.68h.79c1.56,0,2.38.89,2.38,2.68V37l4.27-6.25a3.6,3.6,0,0,1,3-2c1.86,0,3.28,1.81,3.12,2.16l-5,7.14,5.2,7.49c.19.35-1.31,2.13-3.31,2.13a3.53,3.53,0,0,1-3-1.93l-4.32-6.31V45c0,1.76-.82,2.68-2.38,2.68h-.79C103.19,47.72,102.4,46.8,102.4,45Z"/><path class="a" d="M131,43.72H125.3l-.49,1.44c-.66,2-1.81,2.68-3,2.68-1.5,0-3-1.27-2.82-1.79l5.75-15.66c.27-.92,1-1.58,3.47-1.58s3.12.66,3.39,1.58l6,15.61c.19.52-1.29,1.84-2.93,1.84-1.15,0-2.38-.66-3.15-2.74Zm-4.79-4.15H130l-1.92-5.41Z"/><path class="a" d="M138.18,44.15A3.6,3.6,0,0,1,140,41.41a8.55,8.55,0,0,0,5.25,2.16c1.7,0,2.46-.52,2.46-1.47,0-1.15-1.4-1.15-3.17-1.55-3-.63-5.94-2-5.94-5.82s2.68-6.19,7.55-6.19c4.65,0,6.68,1.7,6.68,3.54A3.71,3.71,0,0,1,150.88,35a7.14,7.14,0,0,0-4.68-2c-1.59,0-2.38.52-2.38,1.44,0,1.09,1.42,1,3.28,1.44,3.47.81,6.13,2.39,6.13,5.82,0,4.06-2.65,6.33-8,6.33S138.18,46.11,138.18,44.15Z"/><path class="a" d="M154.13,44.15a3.6,3.6,0,0,1,1.81-2.74,8.55,8.55,0,0,0,5.25,2.16c1.7,0,2.46-.52,2.46-1.47,0-1.15-1.4-1.15-3.17-1.55-3-.63-5.94-2-5.94-5.82s2.68-6.19,7.55-6.19c4.65,0,6.68,1.7,6.68,3.54A3.71,3.71,0,0,1,166.83,35a7.14,7.14,0,0,0-4.68-2c-1.59,0-2.38.52-2.38,1.44,0,1.09,1.42,1,3.28,1.44,3.47.81,6.13,2.39,6.13,5.82,0,4.06-2.65,6.33-8,6.33S154.13,46.11,154.13,44.15Z"/><path class="a" d="M181.88,43.72h-5.72l-.49,1.44c-.66,2-1.81,2.68-3,2.68-1.5,0-3-1.27-2.82-1.79l5.75-15.66c.27-.92,1-1.58,3.47-1.58s3.12.66,3.39,1.58l6,15.61c.19.52-1.29,1.84-2.93,1.84-1.15,0-2.38-.66-3.15-2.74Zm-4.79-4.15h3.8L179,34.16Z"/><path class="a" d="M190.88,39.63l-1.39-7.52c-.52-2.13.63-3.51,2.6-3.51h.68c2.11,0,3.26,1.38,2.74,3.51l-1.4,7.52c-.3,1.18-.66,1.73-1.4,1.73h-.52C191.51,41.35,191.18,40.81,190.88,39.63Zm-1,5.84V45c0-1.58.71-2.33,2.22-2.33h.63c1.56,0,2.27.75,2.27,2.33v.46c0,1.58-.71,2.33-2.27,2.33h-.63C190.66,47.8,189.92,47.06,189.92,45.47Z"/></svg>