<svg xmlns="http://www.w3.org/2000/svg" width="203.48" height="47.98" viewBox="0 0 203.48 47.98"><defs><style>.a{fill:#fff;}</style></defs><title>F2-H2</title><path class="a" d="M9.06,16.73,4.87,2a3.52,3.52,0,0,1,3.42-2c1.09,0,2.57.63,3,3.08l1.48,8,1.86-7.28a2.77,2.77,0,0,1,3-2.1,2.85,2.85,0,0,1,2.93,2.1l1.86,7.28,1.48-8.12c.38-2.25,1.7-3,3-3,2.19,0,3.28,1.67,3.2,2l-4,14.71c-.41,1.64-1.53,2.22-3.23,2.22s-2.74-.52-3.23-2.22L17.54,9l-2.05,7.69c-.44,1.67-1.61,2.22-3.26,2.22S9.5,18.46,9.06,16.73Z"/><path class="a" d="M32.29,16.24V2.68c0-1.79.79-2.68,2.3-2.68h.79c1.56,0,2.38.89,2.38,2.68V16.24c0,1.76-.82,2.68-2.38,2.68h-.79C33.08,18.92,32.29,18,32.29,16.24Z"/><path class="a" d="M39.51,15.46a2.86,2.86,0,0,1,1.81-2.88,4,4,0,0,0,3.23,1.7c1.7,0,2.38-.78,2.38-3V2.68C46.93.89,47.75,0,49.25,0H50c1.56,0,2.38.89,2.38,2.68v8.7c0,5.36-2.44,7.8-7.06,7.8C41.56,19.18,39.51,17.77,39.51,15.46Z"/><path class="a" d="M59.07,16.5v-.26a4.22,4.22,0,0,1,1.45-3.31l6.73-8H61.7c-1.59,0-2.41-.61-2.41-2.25V2.39c0-1.58.82-2.25,2.41-2.25h9.9c2,0,2.79,1.12,2.79,2.25v.29A4.21,4.21,0,0,1,72.95,6l-6.87,8h6.07c1.59,0,2.41.63,2.41,2.27v.23c0,1.58-.82,2.27-2.41,2.27H61.84C59.87,18.77,59.07,17.62,59.07,16.5Z"/><path class="a" d="M76.37,15.61V3.34c0-2.07,1-3.2,2.79-3.2h9.41a2.22,2.22,0,0,1,2.54,2.42v.14c0,1.58-.79,2.42-2.54,2.42H81.84V7h4.49c1.81,0,2.54.81,2.54,2.22V9.3c0,1.5-.77,2.36-2.54,2.36H81.84v2.16H88.7c1.72,0,2.52.78,2.52,2.27v.14a2.26,2.26,0,0,1-2.52,2.53H79.16C77.35,18.77,76.37,17.71,76.37,15.61Z"/><path class="a" d="M92.32,2.62V2.53c0-1.58.88-2.39,2.52-2.39h11.35c1.7,0,2.54.81,2.54,2.39v.09a2.26,2.26,0,0,1-2.54,2.53h-2.87V16.24c0,1.76-.87,2.68-2.46,2.68h-.77c-1.5,0-2.27-.92-2.27-2.68V5.15h-3A2.27,2.27,0,0,1,92.32,2.62Z"/><path class="a" d="M109.39,2.62V2.53c0-1.58.88-2.39,2.52-2.39h11.35c1.7,0,2.54.81,2.54,2.39v.09a2.26,2.26,0,0,1-2.54,2.53h-2.87V16.24c0,1.76-.87,2.68-2.46,2.68h-.77c-1.5,0-2.27-.92-2.27-2.68V5.15h-3A2.27,2.27,0,0,1,109.39,2.62Z"/><path class="a" d="M127.2,15.61V3.34c0-2.07,1-3.2,2.79-3.2h9.41a2.22,2.22,0,0,1,2.54,2.42v.14c0,1.58-.79,2.42-2.54,2.42h-6.73V7h4.49c1.81,0,2.54.81,2.54,2.22V9.3c0,1.5-.77,2.36-2.54,2.36h-4.49v2.16h6.87c1.72,0,2.52.78,2.52,2.27v.14a2.26,2.26,0,0,1-2.52,2.53H130C128.18,18.77,127.2,17.71,127.2,15.61Z"/><path class="a" d="M143.94,16.24V2.68c0-1.79.85-2.68,2.24-2.68h.52a2.63,2.63,0,0,1,2.46,1.35l6.35,8.7V2.68c0-1.76.82-2.68,2.38-2.68h.46c1.5,0,2.3.92,2.3,2.68V16.24c0,1.79-.85,2.68-2.22,2.68H158a2.52,2.52,0,0,1-2.44-1.27l-6.48-8.84v7.43c0,1.76-.82,2.68-2.38,2.68h-.46C144.74,18.92,143.94,18,143.94,16.24Z"/><path class="a" d="M167.17,16.5v-.26a4.22,4.22,0,0,1,1.45-3.31l6.73-8H169.8c-1.59,0-2.41-.61-2.41-2.25V2.39c0-1.58.82-2.25,2.41-2.25h9.9c2,0,2.79,1.12,2.79,2.25v.29A4.2,4.2,0,0,1,181,6l-6.87,8h6.07c1.59,0,2.41.63,2.41,2.27v.23c0,1.58-.82,2.27-2.41,2.27H169.93C168,18.77,167.17,17.62,167.17,16.5Z"/><path class="a" d="M184.46,15.61V3.34c0-2.07,1-3.2,2.79-3.2h9.41a2.22,2.22,0,0,1,2.54,2.42v.14c0,1.58-.79,2.42-2.54,2.42h-6.73V7h4.49c1.81,0,2.54.81,2.54,2.22V9.3c0,1.5-.77,2.36-2.54,2.36h-4.49v2.16h6.87c1.72,0,2.52.78,2.52,2.27v.14a2.26,2.26,0,0,1-2.52,2.53h-9.55C185.45,18.77,184.46,17.71,184.46,15.61Z"/><path class="a" d="M6.45,31.48l2.76,9.27,2.74-9.27c.52-1.87,1.72-2.68,2.93-2.68,1.78,0,3.47,1.44,3.26,2L12.3,45.56a3,3,0,0,1-3.17,2.16A2.9,2.9,0,0,1,6,45.56L0,30.79c-.22-.55,1.59-2,3.39-2A3.32,3.32,0,0,1,6.45,31.48Z"/><path class="a" d="M18.32,38.25c0-5.64,3.91-9.7,9.36-9.7s9.33,4,9.33,9.7S33.12,48,27.68,48,18.32,43.95,18.32,38.25Zm13.27,0c0-2.74-1.56-4.61-3.91-4.61s-3.94,1.79-3.94,4.61,1.56,4.58,3.94,4.58S31.59,41,31.59,38.25Z"/><path class="a" d="M38.27,38.25c0-5.64,3.91-9.7,9.36-9.7s9.33,4,9.33,9.7S53.07,48,47.62,48,38.27,43.95,38.27,38.25Zm13.27,0c0-2.74-1.56-4.61-3.91-4.61s-3.94,1.79-3.94,4.61,1.56,4.58,3.94,4.58S51.54,41,51.54,38.25Z"/><path class="a" d="M67.76,45.27l-2.52-3.51h-1V45c0,1.73-.82,2.68-2.41,2.68h-.77c-1.5,0-2.3-1.24-2.3-3.34V32.14c0-2.07,1-3.2,2.79-3.2H67c4.92,0,7.39,2.13,7.39,6.1a5.29,5.29,0,0,1-3.83,5.47l4,5.21c.16.23-.79,2-3.15,2C69.76,47.72,68.91,46.94,67.76,45.27Zm-3.58-7.6h2.3c1.64,0,2.46-.78,2.46-2.16s-.79-2.19-2.52-2.19H64.18Z"/><path class="a" d="M80.13,44.26a2.86,2.86,0,0,1,1.81-2.88,4,4,0,0,0,3.23,1.7c1.7,0,2.38-.78,2.38-3V31.48c0-1.79.82-2.68,2.33-2.68h.79c1.56,0,2.38.89,2.38,2.68v8.7C93,45.53,90.61,48,86,48,82.18,48,80.13,46.57,80.13,44.26Z"/><path class="a" d="M95.56,44.41V32.14c0-2.07,1-3.2,2.79-3.2h9.41a2.22,2.22,0,0,1,2.54,2.42v.14c0,1.58-.79,2.42-2.54,2.42H101V35.8h4.49c1.81,0,2.54.81,2.54,2.22v.09c0,1.5-.77,2.36-2.54,2.36H101v2.16h6.87c1.72,0,2.52.78,2.52,2.27V45a2.26,2.26,0,0,1-2.52,2.53H98.35C96.54,47.58,95.56,46.51,95.56,44.41Z"/><path class="a" d="M116.82,45V31.48c0-1.79.79-2.68,2.3-2.68h.79c1.56,0,2.38.89,2.38,2.68V37l4.27-6.25a3.6,3.6,0,0,1,3-2c1.86,0,3.28,1.81,3.12,2.16l-5,7.14,5.2,7.49c.19.34-1.31,2.13-3.31,2.13a3.53,3.53,0,0,1-3-1.93l-4.32-6.31V45c0,1.76-.82,2.68-2.38,2.68h-.79C117.61,47.72,116.82,46.8,116.82,45Z"/><path class="a" d="M134.52,44.41V31.48c0-1.81.79-2.68,2.3-2.68h.79c1.56,0,2.38.86,2.38,2.68V42.57h5.39c1.7,0,2.52.81,2.52,2.39V45a2.24,2.24,0,0,1-2.52,2.53h-8.07C135.5,47.58,134.52,46.51,134.52,44.41Z"/><path class="a" d="M160.95,43.72h-5.72l-.49,1.44c-.66,2-1.81,2.68-3,2.68-1.5,0-3-1.27-2.82-1.79l5.75-15.66c.27-.92,1-1.58,3.47-1.58s3.12.66,3.39,1.58l6,15.61c.19.52-1.29,1.84-2.93,1.84-1.15,0-2.38-.66-3.15-2.74Zm-4.79-4.15H160L158,34.16Z"/><path class="a" d="M179.85,43.72h-5.72l-.49,1.44c-.66,2-1.81,2.68-3,2.68-1.5,0-3-1.27-2.82-1.79l5.75-15.66c.27-.92,1-1.58,3.47-1.58s3.12.66,3.39,1.58l6,15.61c.19.52-1.29,1.84-2.93,1.84-1.15,0-2.38-.66-3.15-2.74Zm-4.79-4.15h3.8L177,34.16Z"/><path class="a" d="M196.62,45.27l-2.52-3.51h-1V45c0,1.73-.82,2.68-2.41,2.68h-.77c-1.5,0-2.3-1.24-2.3-3.34V32.14c0-2.07,1-3.2,2.79-3.2h5.47c4.92,0,7.39,2.13,7.39,6.1a5.29,5.29,0,0,1-3.83,5.47l4,5.21c.16.23-.79,2-3.15,2C198.62,47.72,197.77,46.94,196.62,45.27ZM193,37.67h2.3c1.64,0,2.46-.78,2.46-2.16s-.79-2.19-2.52-2.19H193Z"/></svg>