<?xml version="1.0" encoding="utf-8"?>
<!-- Generator: Adobe Illustrator 21.1.0, SVG Export Plug-In . SVG Version: 6.00 Build 0)  -->
<svg version="1.1" id="Layer_1" xmlns="http://www.w3.org/2000/svg" xmlns:xlink="http://www.w3.org/1999/xlink" x="0px" y="0px"
	 viewBox="0 0 51.1 43.7" style="enable-background:new 0 0 51.1 43.7;" xml:space="preserve">
<style type="text/css">
	.st0{fill:#006365;}
</style>
<title>F6-mandje</title>
<path class="st0" d="M45.3,25l-11.6,4.1c-0.3-0.3-0.7-0.6-1.1-0.9l1.3-3.4c0.4-1.1,0.5-2.3,0.3-3.5l1.2-0.5l0.7-0.2
	c-0.8,1.1-1.3,2.4-1.6,3.7c0,0.4,0.2,0.8,0.6,0.9l0.2,0.1c0.5,0.1,0.9-0.3,1-0.8c0,0,0,0,0,0c0.4-2,1.6-3.7,3.2-4.9l0,0l1.1-0.3
	c2.2-0.6,4.5-0.6,6.7,0.1c0.8,0.2,1.4,0.8,1.8,1.5c0.2,0.4,0.2,1,0,1.4C48.9,23.1,48,24,45.3,25 M32.3,31.9L32.3,31.9l-0.1,0.2v0.1
	c-0.1,0.1-0.1,0.2-0.2,0.2l-7.5,7.9c-1.4,1.3-3.4,1.8-5.3,1.2L5.4,36.3c-1.8-0.8-3-2.5-3.1-4.4L1.9,20.9c-0.1-0.6,0.1-1.2,0.6-1.5
	c0.5-0.3,1.1-0.3,1.6,0l0.4,0.2l3.7,1.4l1.7,0.6l10.6,4.1l2.1,0.8l3.9,1.5l3.9,1.5l1.1,0.4c0.6,0.2,1,0.6,1.2,1.1
	C32.6,31.3,32.5,31.7,32.3,31.9 M5.3,11.2c0.4-0.4,0.8-0.6,1.4-0.7l0.7-0.1l0.4-3.6L6.5,7C5.6,7.3,4.7,7.3,3.7,7.2H3.7
	c0,0-0.1,0-0.1-0.1s0,0,0-0.1S4,6.4,6.1,5.8l1.6-0.5l-1.3-1c-1.4-1.2-2-2-2-2.3c0-0.1,0-0.1,0-0.1c0,0,0.1-0.1,0.1-0.1
	C4.7,1.8,5,1.9,5.2,2c1,0.4,2,1,2.8,1.7L8.5,4L9,3.7c2-1,2.7-0.8,2.8-0.8l0,0c0,0.1-0.1,0.5-0.8,1.2l-1,1l1.3,0.4l0.4,0.1
	c0.9,0.3,1.2,0.6,1.2,0.7S12.3,7,9.8,6.8L9,6.8l-1,3.7l0.6,0.3c0.4,0.2,0.8,0.6,1,1c0.3,0.7,0.5,1.5,0.5,2.2c-0.2,1.7-0.7,3.4-1.3,5
	l-4-1.5c-0.2-0.1-0.4-0.1-0.6-0.2c-0.1-1-0.2-2-0.2-3C4,13.1,4.5,12,5.3,11.2 M12.2,18.4c0.6-1.5,2.3-2.2,3.8-1.7l7.4,2.9
	c-0.2,0.3-0.4,0.7-0.6,1.1L21.6,24l-10-3.9L12.2,18.4z M23.6,23.8l1-2.5c0.1-0.3,0.3-0.6,0.5-0.9c1,0.8,1.3,2.1,0.9,3.3l-0.7,1.8
	l-2-0.8L23.6,23.8z M27.9,17.7c0.4-0.4,1-0.8,1.3-1.1l0.5-0.5l-0.4-0.6c0-0.1,0-0.2,0-0.3c0-0.1,0.1-0.2,0.1-0.2l0,0l3.3,1.3
	c0,0.1,0,0.2,0,0.3c0,0.1-0.1,0.2-0.1,0.2l0,0l-0.7,0.2v0.7c0,0.4,0.1,1.1,0.2,1.7l0,0c0,0.3,0.1,0.6,0.1,0.9c0,0.1,0,0.3,0.1,0.5
	l0,0c0.1,0.5,0.1,0.9,0.1,1.4c0.1,0.7,0,1.5-0.2,2.2l-1.3,3.4l-3.8-1.4l0.7-1.8c0.7-1.9,0.2-4.1-1.4-5.4
	C26.9,18.5,27.4,18.1,27.9,17.7 M50.7,20.3c-0.6-1.2-1.6-2.1-2.8-2.5c-2.5-0.8-5.2-0.8-7.7-0.1l-5.4,1.5L34,19.5l-0.1-0.5l0,0
	c0-0.3-0.1-0.7-0.1-1l0,0c0.3-0.3,0.5-0.6,0.6-0.9c0.4-1,0-2.2-1-2.6l-3.3-1.2c-0.6-0.2-1.4-0.1-1.9,0.4c-0.3,0.3-0.5,0.6-0.6,0.9
	c-0.1,0.4-0.2,0.8-0.1,1.1l-0.8,0.7c-0.6,0.5-1.3,1.1-1.9,1.7l-8.1-3.1c-1.7-0.6-3.7-0.3-5,1c0.1-0.5,0.2-1.1,0.3-1.6
	c0.1-1.1-0.2-2.3-0.7-3.3c-0.3-0.5-0.6-1-1.1-1.3l0.3-1c2.6,0.1,4.1-0.6,4.3-1.9c0.2-0.9-0.4-1.8-1.6-2.4c0.6-0.7,0.7-1.7,0.2-2.4
	c-0.2-0.3-0.5-0.5-0.9-0.7c-0.9-0.3-2.1-0.1-3.8,0.6C7.8,1.3,6.9,0.7,5.9,0.3C5.4,0.1,4.8,0,4.2,0c-0.5,0.1-1,0.3-1.3,0.8
	C2.6,1.2,2.5,1.7,2.5,2.2c0,0.3,0.2,1,1.5,2.4c-0.8,0.3-1.5,0.8-2,1.5C1.5,7,1.8,8.1,2.7,8.7c0,0,0,0,0.1,0C3.6,9.1,4.5,9.2,5.4,9
	C4.9,9.2,4.5,9.5,4.1,9.8c-1.2,1.2-1.9,2.8-1.9,4.5c0,1,0.1,2,0.2,3.1c-0.4,0.1-0.7,0.2-1,0.5c-1,0.7-1.5,1.9-1.4,3.2l0.3,10.9
	c0.2,2.7,1.9,5.1,4.4,6.2l13.7,5.3c2.6,0.9,5.4,0.2,7.4-1.7l7.5-7.9c0.8-0.8,1.2-1.9,1.1-3l11.5-4.1c2.7-0.9,4.3-2.1,4.9-3.5
	C51.2,22.2,51.1,21.2,50.7,20.3"/>
</svg>
