<?xml version="1.0" encoding="utf-8"?>
<!-- Generator: Adobe Illustrator 21.1.0, SVG Export Plug-In . SVG Version: 6.00 Build 0)  -->
<svg version="1.1" id="Layer_1" xmlns="http://www.w3.org/2000/svg" xmlns:xlink="http://www.w3.org/1999/xlink" x="0px" y="0px"
	 viewBox="0 0 160.8 102.5" style="enable-background:new 0 0 160.8 102.5;" xml:space="preserve">
<style type="text/css">
	.st0{fill:#006365;}
</style>
<title>F5-vrachtwagen</title>
<g>
	<path class="st0" d="M46.7,52.6c0,1.8-1.4,3.2-3.2,3.2l0,0H19.1c-2.9,0-4.7-2.3-3.4-4.9c6-12.3,18.4-16.5,23.8-16.5h4.1
		c1.8,0,3.2,1.4,3.2,3.2l0,0V52.6z M155.5,76.6V6.3c0-3.5-2.9-6.4-6.4-6.3c0,0,0,0,0,0H60.8c-3.5,0-6.4,2.8-6.4,6.3c0,0,0,0,0,0
		v23.6c-0.7-2.1-2.7-3.6-5-3.6h-9.9c-12.7,0-35,12.2-35,40v10.3C1.9,77.1,0,79.3,0,81.8v0.5c0,2.9,2.4,5.3,5.3,5.3c0,0,0,0,0,0h6.5
		c1-9.9,9.8-17.1,19.7-16.1c8.5,0.9,15.3,7.6,16.1,16.1h62.9c1.1-9.9,10.1-17,19.9-15.8c7,0.8,12.9,5.6,15.1,12.3
		c0.4,1.1,0.6,2.3,0.8,3.5h9.1c2.9,0,5.3-2.4,5.3-5.3c0,0,0,0,0,0v-0.5C160.7,78.9,158.4,76.6,155.5,76.6"/>
	<path class="st0" d="M41.4,84.7c-2.9-6.5-10.4-9.4-16.8-6.5c-2.9,1.3-5.2,3.6-6.5,6.5c-0.7,1.6-1,3.4-1,5.1c0,7,5.7,12.8,12.7,12.8
		s12.8-5.7,12.8-12.7C42.5,88.1,42.2,86.3,41.4,84.7"/>
	<path class="st0" d="M139.8,84.2c-3.1-6.3-10.8-8.9-17.1-5.8c-2.5,1.2-4.5,3.3-5.8,5.8c-0.5,1.1-0.9,2.3-1.1,3.5
		c-1.2,6.9,3.5,13.5,10.4,14.7c6.9,1.2,13.5-3.5,14.7-10.4C141.4,89.3,141,86.6,139.8,84.2"/>
</g>
</svg>
