<svg xmlns="http://www.w3.org/2000/svg" xmlns:xlink="http://www.w3.org/1999/xlink" width="115.75" height="55.54" viewBox="0 0 115.75 55.54"><defs><style>.a{fill:none;}.b{clip-path:url(#a);}.c{fill:#006365;}.d{fill:#fff;}</style><clipPath id="a"><rect class="a" width="115.75" height="55.54"/></clipPath></defs><title>F5-btn</title><g class="b"><path class="c" d="M10,0S0,0,0,10v35.5s0,10,10,10h95.71s10,0,10-10V10s0-10-10-10Z"/><path class="d" d="M31.32,11.5v-.07c0-1.21.7-1.82,2-1.82h9.1c1.36,0,2,.61,2,1.82v.07c0,1.25-.68,1.93-2,1.93h-2.3v8.44a1.8,1.8,0,0,1-2,2h-.61c-1.21,0-1.82-.7-1.82-2V13.43H33.34A1.77,1.77,0,0,1,31.32,11.5Z"/><path class="d" d="M45.69,21.39V12.05c0-1.58.79-2.43,2.24-2.43h7.54c1.4,0,2,.7,2,1.84v.11c0,1.21-.64,1.84-2,1.84H50.07v1.43h3.6c1.45,0,2,.61,2,1.69v.07c0,1.14-.61,1.8-2,1.8h-3.6V20h5.5c1.38,0,2,.59,2,1.73v.11a1.76,1.76,0,0,1-2,1.93H47.92C46.47,23.8,45.69,23,45.69,21.39Z"/><path class="d" d="M58.6,21.19A2.76,2.76,0,0,1,60,19.11a7,7,0,0,0,4.21,1.64c1.36,0,2-.39,2-1.12,0-.88-1.12-.88-2.54-1.18C61.32,18,58.93,17,58.93,14S61.08,9.31,65,9.31c3.73,0,5.35,1.29,5.35,2.7a2.84,2.84,0,0,1-1.56,2.19A5.87,5.87,0,0,0,65,12.66c-1.27,0-1.91.39-1.91,1.1s1.14.77,2.63,1.1c2.79.61,4.91,1.82,4.91,4.43,0,3.09-2.13,4.82-6.4,4.82S58.6,22.68,58.6,21.19Z"/><path class="d" d="M71.29,11.5v-.07c0-1.21.7-1.82,2-1.82h9.1c1.36,0,2,.61,2,1.82v.07c0,1.25-.68,1.93-2,1.93h-2.3v8.44a1.8,1.8,0,0,1-2,2h-.61c-1.21,0-1.82-.7-1.82-2V13.43H73.31A1.77,1.77,0,0,1,71.29,11.5Z"/></g><path class="d" d="M17.32,43.8V33.47c0-1.36.64-2,1.84-2h.64c1.27,0,1.93.68,1.93,2v3.29h4.54V33.47c0-1.36.64-2,1.84-2h.66c1.25,0,1.91.68,1.91,2V43.8c0,1.34-.66,2-1.91,2H28.1c-1.21,0-1.84-.7-1.84-2V40.44H21.72V43.8c0,1.34-.66,2-1.93,2h-.64C18,45.84,17.32,45.14,17.32,43.8Z"/><path class="d" d="M32.66,43.31V34c0-1.58.79-2.43,2.24-2.43h7.54c1.4,0,2,.7,2,1.84v.11c0,1.21-.64,1.84-2,1.84H37v1.43h3.6c1.45,0,2,.61,2,1.69v.07c0,1.14-.61,1.8-2,1.8H37V42h5.5c1.38,0,2,.59,2,1.73v.11a1.76,1.76,0,0,1-2,1.93H34.9C33.45,45.73,32.66,44.92,32.66,43.31Z"/><path class="d" d="M45.55,33.43v-.07c0-1.21.7-1.82,2-1.82h9.1c1.36,0,2,.61,2,1.82v.07c0,1.25-.68,1.93-2,1.93h-2.3V43.8a1.8,1.8,0,0,1-2,2h-.61c-1.21,0-1.82-.7-1.82-2V35.36H47.57A1.77,1.77,0,0,1,45.55,33.43Z"/><path class="d" d="M63.64,43.8V33.47c0-1.36.68-2,1.8-2h.42a2.13,2.13,0,0,1,2,1l5.09,6.62V33.47c0-1.34.66-2,1.91-2h.37c1.21,0,1.84.7,1.84,2V43.8c0,1.36-.68,2-1.78,2h-.35a2.05,2.05,0,0,1-2-1l-5.2-6.73V43.8c0,1.34-.66,2-1.91,2h-.37C64.28,45.84,63.64,45.14,63.64,43.8Z"/><path class="d" d="M79,39.5v-6a1.79,1.79,0,0,1,1.93-2h.55c1.27,0,1.93.68,1.93,2v6.05q0,2.63,2.11,2.63c1.42,0,2.08-.83,2.08-2.65v-6a1.78,1.78,0,0,1,1.93-2h.57c1.25,0,1.91.66,1.91,2v6C92,43.78,89.78,46,85.48,46S79,43.78,79,39.5Z"/><path class="d" d="M94.9,39.68,93.79,34a2,2,0,0,1,2.08-2.68h.55c1.69,0,2.61,1.05,2.19,2.68l-1.12,5.72c-.24.9-.53,1.32-1.12,1.32H96C95.41,41,95.15,40.57,94.9,39.68Zm-.77,4.45v-.35A1.55,1.55,0,0,1,95.91,42h.5c1.25,0,1.82.57,1.82,1.78v.35c0,1.21-.57,1.78-1.82,1.78h-.5A1.56,1.56,0,0,1,94.14,44.13Z"/></svg>