<svg xmlns="http://www.w3.org/2000/svg" width="174.28" height="40.2" viewBox="0 0 174.28 40.2"><defs><style>.a{fill:#fff;}</style></defs><title>F5-H1</title><path class="a" d="M30.71,13.75V2.45c0-1.49.66-2.23,1.91-2.23h.66c1.3,0,2,.74,2,2.23V7.06l3.56-5.21A3,3,0,0,1,41.33.22c1.55,0,2.74,1.51,2.6,1.8L39.81,8l4.33,6.24C44.3,14.5,43,16,41.38,16a2.94,2.94,0,0,1-2.51-1.61l-3.6-5.26v4.63c0,1.46-.68,2.23-2,2.23h-.66C31.37,16,30.71,15.22,30.71,13.75Z"/><path class="a" d="M45.62,13.75V2.45c0-1.49.66-2.23,1.92-2.23h.66c1.3,0,2,.74,2,2.23v11.3c0,1.46-.68,2.23-2,2.23h-.66C46.28,16,45.62,15.22,45.62,13.75Z"/><path class="a" d="M52.33,13.23V3c0-1.73.82-2.66,2.33-2.66h7.84a1.85,1.85,0,0,1,2.12,2v.12c0,1.32-.66,2-2.12,2H56.89V6h3.74c1.5,0,2.12.67,2.12,1.85V8c0,1.25-.64,2-2.12,2H56.89v1.8h5.72c1.44,0,2.1.65,2.1,1.9v.12a1.88,1.88,0,0,1-2.1,2.11h-8C53.15,15.87,52.33,15,52.33,13.23Z"/><path class="a" d="M65.66,13a3,3,0,0,1,1.5-2.28,7.13,7.13,0,0,0,4.38,1.8c1.41,0,2.05-.43,2.05-1.22,0-1-1.16-1-2.64-1.3C68.49,9.48,66,8.38,66,5.16S68.24,0,72.3,0c3.88,0,5.56,1.42,5.56,3a3.09,3.09,0,0,1-1.62,2.4,6,6,0,0,0-3.9-1.68c-1.32,0-2,.43-2,1.2s1.19.84,2.74,1.2c2.9.67,5.11,2,5.11,4.85,0,3.38-2.21,5.28-6.66,5.28S65.66,14.64,65.66,13Z"/><path class="a" d="M87.83,2.45l2.3,7.73,2.28-7.73A2.62,2.62,0,0,1,94.85.22c1.48,0,2.89,1.2,2.71,1.66L92.7,14.19A2.49,2.49,0,0,1,90.06,16a2.41,2.41,0,0,1-2.6-1.8l-5-12.31C82.29,1.42,83.79.22,85.29.22A2.77,2.77,0,0,1,87.83,2.45Z"/><path class="a" d="M97.7,8.09C97.7,3.38,101,0,105.49,0s7.77,3.36,7.77,8.09S110,16.2,105.49,16.2,97.7,12.84,97.7,8.09Zm11.06,0c0-2.28-1.3-3.84-3.26-3.84s-3.28,1.49-3.28,3.84,1.3,3.82,3.28,3.82S108.75,10.39,108.75,8.09Z"/><path class="a" d="M114.32,8.09c0-4.7,3.26-8.09,7.8-8.09s7.77,3.36,7.77,8.09-3.24,8.11-7.77,8.11S114.32,12.84,114.32,8.09Zm11.06,0c0-2.28-1.3-3.84-3.26-3.84s-3.28,1.49-3.28,3.84,1.3,3.82,3.28,3.82S125.38,10.39,125.38,8.09Z"/><path class="a" d="M138.9,13.95,136.8,11H136v2.74c0,1.44-.68,2.23-2,2.23h-.64c-1.25,0-1.92-1-1.92-2.78V3c0-1.73.82-2.66,2.33-2.66h4.56c4.1,0,6.15,1.78,6.15,5.09A4.41,4.41,0,0,1,141.27,10l3.33,4.34c.14.19-.66,1.66-2.62,1.66C140.56,16,139.85,15.34,138.9,13.95Zm-3-6.34h1.91c1.37,0,2.05-.65,2.05-1.8S139.21,4,137.78,4h-1.87Z"/><path class="a" d="M0,26.4v-.07c0-1.32.73-2,2.1-2h9.46c1.41,0,2.12.67,2.12,2v.07a1.89,1.89,0,0,1-2.12,2.11H9.16v9.24c0,1.46-.73,2.23-2.05,2.23H6.47c-1.25,0-1.89-.77-1.89-2.23V28.51H2.1A1.89,1.89,0,0,1,0,26.4Z"/><path class="a" d="M14.84,37.75V26.45c0-1.49.66-2.23,1.91-2.23h.66c1.32,0,2,.74,2,2.23V30h4.72v-3.6c0-1.49.66-2.23,1.92-2.23h.68c1.3,0,2,.74,2,2.23v11.3c0,1.46-.68,2.23-2,2.23h-.68c-1.25,0-1.92-.77-1.92-2.23V34.08H19.42v3.67c0,1.46-.68,2.23-2,2.23h-.66C15.5,40,14.84,39.22,14.84,37.75Z"/><path class="a" d="M30.64,33v-6.6c0-1.49.75-2.23,2-2.23h.57c1.32,0,2,.74,2,2.23v6.62q0,2.88,2.19,2.88c1.48,0,2.17-.91,2.17-2.9v-6.6c0-1.51.75-2.23,2-2.23h.59c1.3,0,2,.72,2,2.23V33c0,4.68-2.3,7.08-6.77,7.08S30.64,37.73,30.64,33Z"/><path class="a" d="M46.26,37.75V26.45c0-1.49.66-2.23,1.92-2.23h.66c1.3,0,2,.74,2,2.23v11.3c0,1.46-.68,2.23-2,2.23h-.66C46.92,40,46.26,39.22,46.26,37.75Z"/><path class="a" d="M52.35,37a3,3,0,0,1,1.5-2.28,7.13,7.13,0,0,0,4.38,1.8c1.41,0,2.05-.43,2.05-1.22,0-1-1.16-1-2.64-1.3-2.46-.53-4.95-1.63-4.95-4.85S54.92,24,59,24c3.88,0,5.56,1.42,5.56,3a3.09,3.09,0,0,1-1.62,2.4A6,6,0,0,0,59,27.67c-1.32,0-2,.43-2,1.2s1.19.84,2.74,1.2c2.9.67,5.11,2,5.11,4.85,0,3.38-2.21,5.28-6.66,5.28S52.35,38.64,52.35,37Z"/><path class="a" d="M66.26,37.23V26.45c0-1.51.66-2.23,1.91-2.23h.66c1.3,0,2,.72,2,2.23v9.24h4.49c1.41,0,2.1.67,2.1,2v.07a1.87,1.87,0,0,1-2.1,2.11H68.58C67.08,39.87,66.26,39,66.26,37.23Z"/><path class="a" d="M78.75,37.23V27c0-1.73.82-2.66,2.33-2.66h7.84a1.85,1.85,0,0,1,2.12,2v.12c0,1.32-.66,2-2.12,2H83.31V30H87c1.5,0,2.12.67,2.12,1.85V32c0,1.25-.64,2-2.12,2H83.31v1.8H89c1.44,0,2.1.65,2.1,1.9v.12A1.88,1.88,0,0,1,89,39.87h-8C79.57,39.87,78.75,39,78.75,37.23Z"/><path class="a" d="M97.29,26.45l2.3,7.73,2.28-7.73a2.62,2.62,0,0,1,2.44-2.23c1.48,0,2.89,1.2,2.71,1.66l-4.86,12.31A2.49,2.49,0,0,1,99.52,40a2.41,2.41,0,0,1-2.6-1.8l-5-12.31c-.18-.46,1.32-1.66,2.83-1.66A2.77,2.77,0,0,1,97.29,26.45Z"/><path class="a" d="M108.12,37.23V27c0-1.73.82-2.66,2.33-2.66h7.84a1.85,1.85,0,0,1,2.12,2v.12c0,1.32-.66,2-2.12,2h-5.61V30h3.74c1.5,0,2.12.67,2.12,1.85V32c0,1.25-.64,2-2.12,2h-3.74v1.8h5.72c1.44,0,2.1.65,2.1,1.9v.12a1.88,1.88,0,0,1-2.1,2.11h-8C108.94,39.87,108.12,39,108.12,37.23Z"/><path class="a" d="M129.52,37.95,127.43,35h-.82v2.74c0,1.44-.68,2.23-2,2.23H124c-1.25,0-1.92-1-1.92-2.78V27c0-1.73.82-2.66,2.33-2.66h4.56c4.1,0,6.15,1.78,6.15,5.09A4.41,4.41,0,0,1,131.89,34l3.33,4.34c.14.19-.66,1.66-2.62,1.66C131.19,40,130.48,39.34,129.52,37.95Zm-3-6.34h1.91c1.37,0,2.05-.65,2.05-1.8s-.66-1.82-2.1-1.82h-1.87Z"/><path class="a" d="M136.93,37.75V26.45c0-1.49.66-2.23,1.92-2.23h.66c1.3,0,2,.74,2,2.23v11.3c0,1.46-.68,2.23-2,2.23h-.66C137.6,40,136.93,39.22,136.93,37.75Z"/><path class="a" d="M143.64,37.75V26.45c0-1.49.71-2.23,1.87-2.23h.43A2.19,2.19,0,0,1,148,25.34l5.29,7.25V26.45c0-1.46.68-2.23,2-2.23h.39c1.25,0,1.92.77,1.92,2.23v11.3c0,1.49-.71,2.23-1.85,2.23h-.37a2.1,2.1,0,0,1-2-1.06l-5.4-7.37v6.19c0,1.46-.68,2.23-2,2.23h-.39C144.3,40,143.64,39.22,143.64,37.75Z"/><path class="a" d="M170.49,38.16a4.85,4.85,0,0,1-4.29,2c-4.26,0-7-3.38-7-8A7.7,7.7,0,0,1,167.26,24c3.69,0,5.84,1.54,5.84,3.58a2.38,2.38,0,0,1-2.28,2.18,4,4,0,0,0-3.28-1.66c-2.1,0-3.74,1.68-3.74,4.22s1.48,4.2,3.53,4.2c1.6,0,2.67-.77,2.89-2h-1.53c-1.44,0-2.14-.36-2.14-1.66v-.22c0-1.37.71-1.66,2.14-1.66h4c1.32,0,1.6.65,1.57,2v6.5c0,.14-.71.48-1.53.48A2.17,2.17,0,0,1,170.49,38.16Z"/></svg>