<svg xmlns="http://www.w3.org/2000/svg" width="154.4" height="154.42" viewBox="0 0 154.4 154.42"><defs><style>.a{fill:#c63e55;}.b{fill:#fff;}.c{fill:#ffdc22;}</style></defs><title>promobol</title><path class="a" d="M91.7,151.83A76,76,0,1,0,2.58,91.72,76,76,0,0,0,91.7,151.83"/><path class="b" d="M153,62.48A77.19,77.19,0,1,0,1.43,91.94,77.24,77.24,0,0,0,77,154.42,78.05,78.05,0,0,0,91.92,153a77.19,77.19,0,0,0,61-90.5Zm-13.72,56.58A74.84,74.84,0,0,1,3.73,91.49a74.36,74.36,0,0,1,2.53-38L141.67,39.23a74.8,74.8,0,0,1-2.43,79.84Z"/><path class="a" d="M33.48,33.62l-2.9-7.17a1.8,1.8,0,0,1,1.63-1.17c.56-.06,1.34.18,1.69,1.39l1.17,4,.56-3.76a1.41,1.41,0,0,1,1.42-1.22,1.45,1.45,0,0,1,1.6.9L40,30.12,40.3,26c.08-1.15.7-1.6,1.36-1.67a1.64,1.64,0,0,1,1.73.81l-1.27,7.61c-.12.85-.66,1.2-1.52,1.29a1.47,1.47,0,0,1-1.76-.94l-1.46-3.75-.64,4a1.48,1.48,0,0,1-1.54,1.29C34.35,34.66,33.79,34.47,33.48,33.62Z"/><path class="a" d="M45.05,31.84l-.65-6.17c-.11-1,.33-1.66,1.25-1.76l4.78-.5a1.13,1.13,0,0,1,1.42,1.08v.07c.08.8-.28,1.26-1.17,1.35l-3.42.36.1.94L49.66,27c.92-.1,1.33.27,1.41,1v0c.08.75-.26,1.23-1.17,1.32l-2.28.24.11,1.09,3.49-.37c.88-.09,1.32.26,1.4,1v.07a1.15,1.15,0,0,1-1.14,1.41l-4.85.51C45.72,33.38,45.16,32.89,45.05,31.84Z"/><path class="a" d="M53.7,30.93,53,24.43c-.1-.91.26-1.39,1-1.47l.4,0c.79-.08,1.25.31,1.35,1.22l.58,5.57,2.74-.29c.86-.09,1.32.27,1.41,1.07v0a1.14,1.14,0,0,1-1.14,1.41l-4.1.43C54.36,32.47,53.81,32,53.7,30.93Z"/><path class="a" d="M61.29,30.45l-.72-6.82c-.09-.9.26-1.39,1-1.47l.4,0c.79-.08,1.26.32,1.35,1.22l.29,2.78,1.84-3.37a1.84,1.84,0,0,1,1.43-1.15c.95-.1,1.76.74,1.7.92l-2.14,3.86,3,3.49c.12.16-.55,1.14-1.57,1.25a1.81,1.81,0,0,1-1.63-.81l-2.53-2.94.29,2.79c.09.88-.28,1.39-1.07,1.47l-.4,0C61.83,31.76,61.38,31.34,61.29,30.45Z"/><path class="a" d="M69.39,26.15a4.77,4.77,0,1,1,9.49-1,4.77,4.77,0,1,1-9.49,1Zm6.74-.71a2.07,2.07,0,0,0-2.23-2.11,2,2,0,0,0-1.76,2.53,2,2,0,1,0,4-.42Z"/><path class="a" d="M80.34,28.45l-.71-6.78c-.1-.93.3-1.44,1.09-1.52l.79-.08a1.08,1.08,0,0,1,1.32.65l1.85,3.6,1.08-3.9a1.07,1.07,0,0,1,1.11-.91l.78-.08c.83-.09,1.33.33,1.42,1.25l.71,6.78c.09.88-.15,1.38-.94,1.46l-.44,0c-.76.08-1.13-.35-1.23-1.23l-.42-4-.66,2.85c-.09.38-.06.72-1.11.83s-1-.23-1.24-.59l-1.21-2.54L83,28.17c.09.88-.14,1.38-.94,1.46l-.44,0C80.8,29.76,80.44,29.33,80.34,28.45Z"/><path class="a" d="M90.84,26.89a1.82,1.82,0,0,1,.77-1.47,4.39,4.39,0,0,0,2.78.81c.86-.09,1.22-.39,1.17-.87s-.77-.5-1.69-.61c-1.54-.16-3.12-.67-3.32-2.61s1-3.26,3.51-3.52,3.48.5,3.58,1.42a1.88,1.88,0,0,1-.83,1.55,3.67,3.67,0,0,0-2.48-.76c-.81.08-1.18.39-1.13.85s.78.43,1.74.55c1.81.22,3.24.87,3.42,2.6.21,2-1,3.33-3.72,3.61S90.95,27.88,90.84,26.89Z"/><path class="a" d="M98.23,19.65v0c-.08-.8.32-1.25,1.15-1.34l5.77-.61c.86-.09,1.34.27,1.42,1.07v0a1.15,1.15,0,0,1-1.16,1.41l-1.46.15.58,5.57a1.17,1.17,0,0,1-1.11,1.48l-.39,0c-.76.08-1.2-.34-1.29-1.23l-.59-5.57-1.51.16A1.15,1.15,0,0,1,98.23,19.65Z"/><path class="a" d="M106.71,22.58l0-.45A1,1,0,0,1,107.6,21l3.57-.38a1,1,0,0,1,1.17.93l0,.45a1,1,0,0,1-.95,1.15l-3.57.38A1,1,0,0,1,106.71,22.58Z"/><path class="a" d="M50.06,42l-2.91.31L47,43c-.23,1-.78,1.44-1.37,1.5-.76.08-1.6-.48-1.53-.75l2.09-8.18c.09-.48.43-.85,1.68-1s1.62.17,1.81.62l3.86,7.53c.13.25-.56,1-1.39,1.08-.58.06-1.24-.21-1.74-1.21Zm-2.65-1.83,1.93-.2-1.26-2.62Z"/><path class="a" d="M59.9,40.93,57,41.23l-.17.75c-.23,1-.78,1.44-1.37,1.5-.76.08-1.6-.48-1.53-.75L56,34.56c.09-.48.43-.85,1.68-1s1.62.17,1.81.62l3.85,7.53c.13.25-.56,1-1.39,1.08-.58.06-1.24-.21-1.74-1.21ZM57.25,39.1l1.93-.2-1.26-2.62Z"/><path class="a" d="M64,41.17l-.72-6.82c-.09-.9.29-1.39,1-1.47l.26,0a1.35,1.35,0,0,1,1.32.55l3.68,4-.39-3.71c-.09-.88.28-1.39,1.07-1.47l.24,0c.77-.08,1.22.34,1.31,1.22l.72,6.82c.09.9-.29,1.39-1,1.47l-.22,0a1.3,1.3,0,0,1-1.3-.51l-3.76-4.1.39,3.74c.09.88-.28,1.39-1.07,1.47l-.24,0C64.53,42.47,64.08,42.05,64,41.17Z"/><path class="a" d="M73.94,39.77l-.65-6.14c-.11-1,.33-1.66,1.25-1.76l3.23-.34c2.11-.22,3.34.5,3.5,2a1.88,1.88,0,0,1-1.44,2.13A2.31,2.31,0,0,1,82,37.82c.2,1.88-.87,2.83-3.62,3.12l-2.89.3C74.62,41.34,74.06,40.83,73.94,39.77Zm3.39-4.37c.82-.09,1.19-.45,1.13-1s-.49-.78-1.27-.7l-1.11.12.18,1.72Zm.54,3.5c1-.1,1.35-.42,1.28-1.1s-.51-.84-1.5-.74l-1.21.13L76.64,39Z"/><path class="a" d="M82.5,35.77a4.77,4.77,0,1,1,9.49-1,4.77,4.77,0,1,1-9.49,1Zm6.74-.71A2.07,2.07,0,0,0,87,33a2,2,0,0,0-1.76,2.53,2,2,0,1,0,4-.42Z"/><path class="a" d="M93.38,37.76l-.65-6.17A1.43,1.43,0,0,1,94,29.83l2.38-.25c3-.31,5,1.28,5.27,4.13A4.49,4.49,0,0,1,97.31,39l-2.22.23A1.57,1.57,0,0,1,93.38,37.76ZM97,36.5A2.05,2.05,0,0,0,98.9,34a2,2,0,0,0-2.34-2l-1,.1L96,36.6Z"/><path d="M22.31,74.46l-.69-6.61a2.83,2.83,0,0,1-.87.26,2.55,2.55,0,0,1-2.84-2.39c-.2-1.91,1-2.79,1.17-2.71a3.14,3.14,0,0,0,1.58.26,2.21,2.21,0,0,0,2-1.88l1.4-.15c1.63-.17,2.58.6,2.77,2.37l1.08,10.27c.18,1.72-.58,2.72-2.21,2.89l-.7.07C23.42,77,22.49,76.18,22.31,74.46Z"/><path class="b" d="M20.81,73l-.69-6.61a2.83,2.83,0,0,1-.87.26,2.55,2.55,0,0,1-2.84-2.39c-.2-1.91,1-2.79,1.17-2.71a3.14,3.14,0,0,0,1.58.26,2.21,2.21,0,0,0,2-1.88l1.4-.15c1.63-.17,2.58.6,2.77,2.37l1.08,10.27c.18,1.72-.58,2.72-2.21,2.89l-.7.07C21.92,75.5,21,74.68,20.81,73Z"/><path d="M28.53,66.91a1.31,1.31,0,0,1,.56-1.17,3.82,3.82,0,0,0,2.25.48c.37,0,.55-.13.53-.27s-.38-.19-.86-.25c-.81-.09-2.46-.19-2.65-1.94-.15-1.42.87-2.44,2.89-2.65s3.08.23,3.2,1.32a1.48,1.48,0,0,1-.63,1.27,3.42,3.42,0,0,0-2.08-.62c-.33,0-.52.14-.5.3s.44.17,1,.24c.82.09,2.56.21,2.74,1.91.16,1.48-.88,2.42-3.12,2.66S28.65,68,28.53,66.91Z"/><path d="M36.51,65.2l-.22-2.13c-.81.09-1.3-.23-1.37-.92l0-.16c-.08-.73.32-1.17,1.14-1.26l-.05-.5a1.34,1.34,0,0,1,1.26-1.68l.26,0c.85-.09,1.48.2,1.59,1.38l.05.5.46,0q1.22-.13,1.33.93l0,.16c.08.73-.32,1.17-1.14,1.26l-.49.05.19,1.78a.41.41,0,0,0,.5.4.77.77,0,0,0,.61-.46c0-.07.7.3.78,1.06.11,1-.72,1.8-2.07,1.95A2.26,2.26,0,0,1,36.51,65.2Z"/><path d="M41.67,63.67a3.56,3.56,0,0,1,3.31-4,3.43,3.43,0,0,1,4,3v.14c0,.44-.06.75-.49.79L44.4,64a1.25,1.25,0,0,0,1.43.67,1.58,1.58,0,0,0,1.37-.84s1.45-.18,1.57,1c.11,1-.9,1.73-2.84,1.93C43.51,67,41.91,65.89,41.67,63.67Zm2.62-1,1.86-.2a.87.87,0,0,0-1-.85A1,1,0,0,0,44.3,62.65Z"/><path class="b" d="M27,65.41a1.31,1.31,0,0,1,.56-1.17,3.82,3.82,0,0,0,2.25.48c.37,0,.55-.13.53-.27s-.38-.19-.86-.25C28.7,64.1,27,64,26.86,62.25c-.15-1.42.87-2.44,2.89-2.65s3.08.23,3.2,1.32a1.48,1.48,0,0,1-.63,1.27,3.42,3.42,0,0,0-2.08-.62c-.33,0-.52.14-.5.3s.44.17,1,.24c.82.09,2.56.21,2.74,1.91.16,1.48-.88,2.42-3.12,2.66S27.15,66.53,27,65.41Z"/><path class="b" d="M35,63.7l-.22-2.13c-.81.09-1.3-.23-1.37-.92l0-.16c-.08-.73.32-1.17,1.14-1.26l-.05-.5A1.34,1.34,0,0,1,35.75,57L36,57c.85-.09,1.48.2,1.59,1.38l.05.5.46,0q1.22-.13,1.33.93l0,.16c.08.73-.32,1.17-1.14,1.26l-.49.05L38,63a.41.41,0,0,0,.5.4.77.77,0,0,0,.61-.46c0-.07.7.3.78,1.06.11,1-.72,1.8-2.07,1.95A2.26,2.26,0,0,1,35,63.7Z"/><path class="b" d="M40.17,62.17a3.56,3.56,0,0,1,3.31-4,3.43,3.43,0,0,1,4,3v.14c0,.44-.06.75-.49.79l-4.11.43a1.25,1.25,0,0,0,1.43.67,1.58,1.58,0,0,0,1.37-.84s1.45-.18,1.57,1c.11,1-.9,1.73-2.84,1.93C42,65.53,40.41,64.39,40.17,62.17Zm2.62-1,1.86-.2a.87.87,0,0,0-1-.85A1,1,0,0,0,42.8,61.15Z"/><path d="M53.09,60.87V60.8c-.16-1.56.66-2.45,2.38-2.63l9.19-1c1.77-.19,2.71.52,2.88,2.07v.07c.17,1.63-.6,2.58-2.37,2.77l-1.7.18.8,7.63A2.34,2.34,0,0,1,62,72.83l-.81.09c-1.56.16-2.45-.66-2.63-2.38l-.8-7.63L56,63.08C54.26,63.26,53.26,62.5,53.09,60.87Z"/><path d="M69.42,69.39l-1.05-10c-.19-1.77.56-2.72,2.12-2.88l.84-.09c1.63-.17,2.58.6,2.77,2.37l.27,2.61,3.4-.36-.27-2.61c-.19-1.77.56-2.72,2.12-2.88l.84-.09c1.63-.17,2.58.6,2.77,2.37l1.05,10c.18,1.72-.58,2.72-2.21,2.89l-.84.09c-1.56.16-2.49-.66-2.67-2.38l-.28-2.7-3.4.36.28,2.7c.18,1.72-.58,2.72-2.21,2.89l-.84.09C70.54,71.93,69.6,71.11,69.42,69.39Z"/><path d="M85.75,63.32l-.6-5.73a2.33,2.33,0,0,1,2.24-2.9l.7-.07c1.63-.17,2.58.6,2.77,2.37l.61,5.77c.15,1.42.73,2,1.78,1.93s1.45-.79,1.29-2.25l-.61-5.77a2.33,2.33,0,0,1,2.24-2.9l.7-.07c1.63-.17,2.58.6,2.77,2.37l.6,5.73q.74,7.05-6.5,7.81T85.75,63.32Z"/><path d="M102.68,65.89l-1.05-10c-.19-1.77.56-2.72,2.12-2.88l.82-.09c1.63-.17,2.58.6,2.77,2.37l1.05,10c.18,1.72-.58,2.72-2.21,2.89l-.82.09C103.79,68.44,102.86,67.62,102.68,65.89Z"/><path d="M109.82,64.86c-.13-1.28,1.27-2.94,1.47-2.81a9.22,9.22,0,0,0,4.58,1c1.14-.12,1.54-.35,1.49-.82s-1-.53-2.3-.65c-2.64-.24-5.35-1-5.69-4.18-.35-3.33,1.78-5.44,6.32-5.91,4.26-.45,6.07.68,6.25,2.33a3.74,3.74,0,0,1-1.62,3,7.14,7.14,0,0,0-4.11-1c-1.12.12-1.49.34-1.45.81s1.13.42,2.51.56c3.21.34,5.52,1.42,5.8,4.12.37,3.52-1.77,5.55-6.75,6.08C111.54,67.86,110,66.61,109.82,64.86Z"/><path class="b" d="M51.59,59.37V59.3c-.16-1.56.66-2.45,2.38-2.63l9.19-1c1.77-.19,2.71.52,2.88,2.07v.07c.17,1.63-.6,2.58-2.37,2.77l-1.7.18.8,7.63a2.34,2.34,0,0,1-2.26,2.9l-.81.09c-1.56.16-2.45-.66-2.63-2.38l-.8-7.63-1.79.19C52.76,61.76,51.76,61,51.59,59.37Z"/><path class="b" d="M67.92,67.89l-1.05-10c-.19-1.77.56-2.72,2.12-2.88l.84-.09c1.63-.17,2.58.6,2.77,2.37l.27,2.61,3.4-.36L76,56.9c-.19-1.77.56-2.72,2.12-2.88l.84-.09c1.63-.17,2.58.6,2.77,2.37l1.05,10c.18,1.72-.58,2.72-2.21,2.89l-.84.09c-1.56.16-2.49-.66-2.67-2.38l-.28-2.7-3.4.36.28,2.7c.18,1.72-.58,2.72-2.21,2.89l-.84.09C69,70.43,68.1,69.61,67.92,67.89Z"/><path class="b" d="M84.25,61.82l-.6-5.73a2.33,2.33,0,0,1,2.24-2.9l.7-.07c1.63-.17,2.58.6,2.77,2.37L90,61.27c.15,1.42.73,2,1.78,1.93s1.45-.79,1.29-2.25l-.61-5.77a2.33,2.33,0,0,1,2.24-2.9l.7-.07c1.63-.17,2.58.6,2.77,2.37l.6,5.73q.74,7.05-6.5,7.81T84.25,61.82Z"/><path class="b" d="M101.18,64.39l-1.05-10c-.19-1.77.56-2.72,2.12-2.88l.82-.09c1.63-.17,2.58.6,2.77,2.37l1.05,10c.18,1.72-.58,2.72-2.21,2.89l-.82.09C102.29,66.94,101.36,66.12,101.18,64.39Z"/><path class="b" d="M108.32,63.36c-.13-1.28,1.27-2.94,1.47-2.81a9.22,9.22,0,0,0,4.58,1c1.14-.12,1.54-.35,1.49-.82s-1-.53-2.3-.65c-2.64-.24-5.35-1-5.69-4.18-.35-3.33,1.78-5.44,6.32-5.91,4.26-.45,6.07.68,6.25,2.33a3.74,3.74,0,0,1-1.62,3,7.14,7.14,0,0,0-4.11-1c-1.12.12-1.49.34-1.45.81s1.13.42,2.51.56c3.21.34,5.52,1.42,5.8,4.12.37,3.52-1.77,5.55-6.75,6.08C110,66.36,108.5,65.11,108.32,63.36Z"/><path d="M124.33,59.19l-.1-.91A2,2,0,0,1,126.14,56l6.31-.66a2,2,0,0,1,2.33,1.8l.09.91a2,2,0,0,1-1.9,2.27l-6.31.66A2,2,0,0,1,124.33,59.19Z"/><path class="b" d="M122.83,57.69l-.1-.91a2,2,0,0,1,1.91-2.25l6.31-.66a2,2,0,0,1,2.33,1.8l.09.91a2,2,0,0,1-1.9,2.27l-6.31.66A2,2,0,0,1,122.83,57.69Z"/><path d="M22.38,96.36l-1-9.43c-.19-1.77.56-2.72,2.12-2.88l.81-.08c1.63-.17,2.58.6,2.77,2.37l.8,7.64,3.68-.39c1.77-.19,2.71.51,2.88,2.07v.07c.17,1.63-.6,2.58-2.37,2.77l-6.5.68C23.71,99.37,22.6,98.45,22.38,96.36Z"/><path d="M35.25,95l-.92-8.78c-.22-2.09.67-3.27,2.55-3.47L44.56,82c1.82-.19,2.7.4,2.86,1.89V84c.16,1.56-.59,2.23-2.41,2.42l-4.87.51.11,1,2.86-.3c1.89-.2,2.69.28,2.83,1.66v.07c.15,1.47-.55,2.15-2.41,2.35l-2.86.3.13,1.19,5-.52c1.82-.19,2.69.26,2.84,1.72v.12c.16,1.56-.58,2.34-2.39,2.53l-7.77.82C36.57,98,35.47,97.1,35.25,95Z"/><path d="M54.78,83.44l2.12,5.17,1-5.49a3.22,3.22,0,0,1,2.75-3c1.84-.19,3.76,1.06,3.58,1.62l-3.6,11.67a3.11,3.11,0,0,1-3,2.48,3,3,0,0,1-3.41-1.81L48.06,83.47c-.29-.51,1.45-2.15,3.33-2.35A3.35,3.35,0,0,1,54.78,83.44Z"/><path d="M66,91.77,65.09,83c-.22-2.09.67-3.27,2.55-3.47l7.68-.81c1.82-.19,2.7.4,2.86,1.89v.12c.16,1.56-.59,2.23-2.41,2.42l-4.87.51.11,1,2.86-.3c1.89-.2,2.69.28,2.83,1.66v.07c.15,1.47-.55,2.15-2.41,2.35l-2.86.3.12,1.19,5-.52c1.82-.19,2.69.26,2.84,1.72v.12c.16,1.56-.58,2.34-2.39,2.53l-7.78.82C67.34,94.78,66.23,93.87,66,91.77Z"/><path d="M88.25,90.23l-1.71-1.89-.23,0,.2,1.86c.18,1.72-.58,2.72-2.21,2.89l-.82.08c-1.56.16-2.53-1-2.75-3.1l-.91-8.66c-.22-2.09.67-3.27,2.55-3.47l4.82-.51c4.42-.46,6.75,1.13,7.11,4.45A4.4,4.4,0,0,1,92,86.55L95.41,90c.18.19-.59,2-3,2.23C90.53,92.46,89.61,91.76,88.25,90.23Zm-2.42-5.58,1.4-.15c1-.11,1.53-.63,1.44-1.52s-.63-1.32-1.75-1.2l-1.37.14Z"/><path d="M96.77,89.15l-1.05-10c-.19-1.77.56-2.72,2.12-2.88l.82-.09c1.63-.17,2.58.6,2.77,2.37l1.05,10c.18,1.72-.58,2.72-2.21,2.89l-.82.08C97.88,91.69,97,90.87,96.77,89.15Z"/><path d="M104.54,88.33l-1.07-10.15c-.18-1.72.6-2.6,2-2.75l.47,0a2.6,2.6,0,0,1,2.52.91l5,5-.42-4c-.18-1.72.58-2.72,2.21-2.89l.47,0c1.56-.16,2.49.66,2.67,2.38l1.07,10.15c.18,1.72-.6,2.61-2,2.75l-.47,0a2.53,2.53,0,0,1-2.52-.91l-5-4.86.41,3.86c.18,1.72-.58,2.72-2.21,2.89l-.47,0C105.66,90.88,104.72,90.06,104.54,88.33Z"/><path d="M132.29,86.12c-.57,1.31-1.86,2.27-4,2.5-4.1.43-7.42-2.52-7.89-7s2.52-8.22,7.65-8.76c3.82-.4,6.21.66,6.46,3,.21,2-2.35,3-2.53,2.81a3.89,3.89,0,0,0-3-1,3.15,3.15,0,0,0-2.79,3.64c.22,2.07,1.65,3.17,3.26,3a2.19,2.19,0,0,0,2-1.15l-.49.05c-1.77.19-2.67-.1-2.83-1.66l0-.23c-.17-1.63.66-2,2.43-2.19l4-.42c1.56-.16,1.84.47,2,2.05l.66,6.26c0,.16-.83.65-1.85.76A2.68,2.68,0,0,1,132.29,86.12Z"/><path class="b" d="M20.88,94.86l-1-9.43c-.19-1.77.56-2.72,2.12-2.88l.81-.08c1.63-.17,2.58.6,2.77,2.37l.8,7.64,3.68-.39c1.77-.19,2.71.51,2.88,2.07v.07c.17,1.63-.6,2.58-2.37,2.77l-6.5.68C22.21,97.87,21.1,97,20.88,94.86Z"/><path class="b" d="M33.75,93.5l-.92-8.78c-.22-2.09.67-3.27,2.55-3.47l7.68-.81c1.82-.19,2.7.4,2.86,1.89v.12c.16,1.56-.59,2.23-2.41,2.42l-4.87.51.11,1,2.86-.3c1.89-.2,2.69.28,2.83,1.66v.07c.15,1.47-.55,2.15-2.41,2.35l-2.86.3.13,1.19,5-.52c1.82-.19,2.69.26,2.84,1.72V93c.16,1.56-.58,2.34-2.39,2.53L37,96.32C35.07,96.52,34,95.6,33.75,93.5Z"/><path class="b" d="M53.28,81.94l2.12,5.17,1-5.49a3.22,3.22,0,0,1,2.75-3c1.84-.19,3.76,1.06,3.58,1.62l-3.6,11.67a3.11,3.11,0,0,1-3,2.48,3,3,0,0,1-3.41-1.81L46.56,82c-.29-.51,1.45-2.15,3.33-2.35A3.35,3.35,0,0,1,53.28,81.94Z"/><path class="b" d="M64.51,90.27l-.92-8.78c-.22-2.09.67-3.27,2.55-3.47l7.68-.81c1.82-.19,2.7.4,2.86,1.89v.12c.16,1.56-.59,2.23-2.41,2.42l-4.87.51.11,1,2.86-.3c1.89-.2,2.69.28,2.83,1.66v.07c.15,1.47-.55,2.15-2.41,2.35l-2.86.3.12,1.19,5-.52c1.82-.19,2.69.26,2.84,1.72v.12c.16,1.56-.58,2.34-2.39,2.53l-7.78.82C65.84,93.28,64.73,92.37,64.51,90.27Z"/><path class="b" d="M86.75,88.73,85,86.84l-.23,0,.2,1.86c.18,1.72-.58,2.72-2.21,2.89l-.82.08c-1.56.16-2.53-1-2.75-3.1l-.91-8.66c-.22-2.09.67-3.27,2.55-3.47L85.69,76c4.42-.46,6.75,1.13,7.11,4.45A4.4,4.4,0,0,1,90.46,85l3.45,3.5c.18.19-.59,2-3,2.23C89,91,88.11,90.26,86.75,88.73Zm-2.42-5.58,1.4-.15c1-.11,1.53-.63,1.44-1.52s-.63-1.32-1.75-1.2L84,80.43Z"/><path class="b" d="M95.27,87.65l-1.05-10c-.19-1.77.56-2.72,2.12-2.88l.82-.09c1.63-.17,2.58.6,2.77,2.37L101,87c.18,1.72-.58,2.72-2.21,2.89l-.82.08C96.38,90.19,95.45,89.37,95.27,87.65Z"/><path class="b" d="M103,86.83,102,76.68c-.18-1.72.6-2.6,2-2.75l.47,0a2.6,2.6,0,0,1,2.52.91l5,5-.42-4c-.18-1.72.58-2.72,2.21-2.89l.47,0c1.56-.16,2.49.66,2.67,2.38L118,85.38c.18,1.72-.6,2.61-2,2.75l-.47,0a2.53,2.53,0,0,1-2.52-.91l-5-4.86.41,3.86c.18,1.72-.58,2.72-2.21,2.89l-.47,0C104.16,89.38,103.22,88.56,103,86.83Z"/><path class="b" d="M130.79,84.62c-.57,1.31-1.86,2.27-4,2.5-4.1.43-7.42-2.52-7.89-7s2.52-8.22,7.65-8.76c3.82-.4,6.21.66,6.46,3,.21,2-2.35,3-2.53,2.81a3.89,3.89,0,0,0-3-1,3.15,3.15,0,0,0-2.79,3.64c.22,2.07,1.65,3.17,3.26,3a2.19,2.19,0,0,0,2-1.15l-.49.05c-1.77.19-2.67-.1-2.83-1.66l0-.23c-.17-1.63.66-2,2.43-2.19l4-.42c1.56-.16,1.84.47,2,2.05l.66,6.26c0,.16-.83.65-1.85.76A2.68,2.68,0,0,1,130.79,84.62Z"/><path d="M51.54,117.24c-.57,1.31-1.86,2.27-4,2.49-4.1.43-7.42-2.52-7.89-7s2.53-8.22,7.65-8.76c3.82-.4,6.21.67,6.46,3,.21,2-2.35,3-2.53,2.81a3.88,3.88,0,0,0-3-1,3.14,3.14,0,0,0-2.79,3.64c.22,2.07,1.65,3.17,3.26,3a2.19,2.19,0,0,0,2-1.15l-.49.05c-1.77.19-2.67-.1-2.83-1.66l0-.23c-.17-1.63.66-2,2.43-2.18l4-.42c1.56-.16,1.84.47,2,2.05l.66,6.26c0,.16-.83.65-1.85.76A2.68,2.68,0,0,1,51.54,117.24Z"/><path d="M65.24,115.29l-1.71-1.89-.23,0,.2,1.86c.18,1.72-.58,2.72-2.21,2.89l-.81.09c-1.56.16-2.53-1-2.75-3.1l-.91-8.66c-.22-2.1.67-3.27,2.55-3.47l4.82-.51c4.42-.46,6.76,1.13,7.11,4.45a4.39,4.39,0,0,1-2.34,4.62l3.45,3.5c.18.19-.59,2-3,2.23C67.52,117.52,66.6,116.81,65.24,115.29Zm-2.42-5.58,1.4-.15c1-.11,1.53-.63,1.44-1.52s-.63-1.32-1.75-1.2l-1.37.14Z"/><path d="M83.23,113.21l-4.28.45,0,.12c-.49,2-1.61,2.85-2.82,3-1.54.16-3.23-.93-3.1-1.46l3.4-12.62c.16-.91.84-1.64,3.4-1.91s3.26.32,3.61,1.17l6.2,11.54c.26.49-1.14,2-2.84,2.13-1.19.13-2.51-.39-3.52-2.36Zm-3.87-3.64,2.52-.26L80.26,106Z"/><path d="M86.91,102.58v-.07c-.16-1.56.66-2.45,2.38-2.63l9.2-1c1.77-.19,2.71.52,2.88,2.08v.07c.17,1.63-.6,2.58-2.37,2.77l-1.7.18.8,7.63a2.34,2.34,0,0,1-2.26,2.9l-.82.08c-1.56.16-2.45-.66-2.63-2.38l-.8-7.63-1.79.19C88.08,105,87.08,104.21,86.91,102.58Z"/><path d="M103.29,111.1l-1.05-10c-.19-1.77.56-2.72,2.12-2.88l.81-.08c1.63-.17,2.58.6,2.77,2.37l1.05,10c.18,1.72-.59,2.72-2.21,2.89l-.81.08C104.4,113.64,103.47,112.82,103.29,111.1Z"/><path d="M110.43,110.07c-.13-1.28,1.27-2.93,1.47-2.81a9.22,9.22,0,0,0,4.58,1c1.14-.12,1.54-.35,1.49-.82s-1-.53-2.3-.65c-2.64-.24-5.36-1-5.69-4.18-.35-3.33,1.78-5.44,6.32-5.91,4.26-.45,6.07.68,6.25,2.33a3.75,3.75,0,0,1-1.62,3,7.15,7.15,0,0,0-4.11-1c-1.12.12-1.49.35-1.45.81s1.13.42,2.51.56c3.21.34,5.52,1.42,5.8,4.12.37,3.51-1.77,5.55-6.75,6.08C112.15,113.06,110.61,111.81,110.43,110.07Z"/><path class="c" d="M50,115.74c-.57,1.31-1.86,2.27-4,2.49-4.1.43-7.42-2.52-7.89-7s2.53-8.22,7.65-8.76c3.82-.4,6.21.67,6.46,3,.21,2-2.35,3-2.53,2.81a3.88,3.88,0,0,0-3-1,3.14,3.14,0,0,0-2.79,3.64c.22,2.07,1.65,3.17,3.26,3a2.19,2.19,0,0,0,2-1.15l-.49.05c-1.77.19-2.67-.1-2.83-1.66l0-.23c-.17-1.63.66-2,2.43-2.18l4-.42c1.56-.16,1.84.47,2,2.05l.66,6.26c0,.16-.83.65-1.85.76A2.68,2.68,0,0,1,50,115.74Z"/><path class="c" d="M63.74,113.79,62,111.9l-.23,0,.2,1.86c.18,1.72-.58,2.72-2.21,2.89l-.81.09c-1.56.16-2.53-1-2.75-3.1L55.31,105c-.22-2.1.67-3.27,2.55-3.47l4.82-.51c4.42-.46,6.76,1.13,7.11,4.45a4.39,4.39,0,0,1-2.34,4.62l3.45,3.5c.18.19-.59,2-3,2.23C66,116,65.1,115.31,63.74,113.79Zm-2.42-5.58,1.4-.15c1-.11,1.53-.63,1.44-1.52s-.63-1.32-1.75-1.2l-1.37.14Z"/><path class="c" d="M81.73,111.71l-4.28.45,0,.12c-.49,2-1.61,2.85-2.82,3-1.54.16-3.23-.93-3.1-1.46l3.4-12.62c.16-.91.84-1.64,3.4-1.91s3.26.32,3.61,1.17L88.12,112c.26.49-1.14,2-2.84,2.13-1.19.13-2.51-.39-3.52-2.36Zm-3.87-3.64,2.52-.26-1.62-3.29Z"/><path class="c" d="M85.41,101.08V101c-.16-1.56.66-2.45,2.38-2.63l9.2-1c1.77-.19,2.71.52,2.88,2.08v.07c.17,1.63-.6,2.58-2.37,2.77l-1.7.18.8,7.63a2.34,2.34,0,0,1-2.26,2.9l-.82.08c-1.56.16-2.45-.66-2.63-2.38l-.8-7.63-1.79.19C86.58,103.48,85.58,102.71,85.41,101.08Z"/><path class="c" d="M101.79,109.6l-1.05-10c-.19-1.77.56-2.72,2.12-2.88l.81-.08c1.63-.17,2.58.6,2.77,2.37l1.05,10c.18,1.72-.59,2.72-2.21,2.89l-.81.08C102.9,112.14,102,111.32,101.79,109.6Z"/><path class="c" d="M108.93,108.57c-.13-1.28,1.27-2.93,1.47-2.81a9.22,9.22,0,0,0,4.58,1c1.14-.12,1.54-.35,1.49-.82s-1-.53-2.3-.65c-2.64-.24-5.36-1-5.69-4.18-.35-3.33,1.78-5.44,6.32-5.91,4.26-.45,6.07.68,6.25,2.33a3.75,3.75,0,0,1-1.62,3,7.15,7.15,0,0,0-4.11-1c-1.12.12-1.49.35-1.45.81s1.13.42,2.51.56c3.21.34,5.52,1.42,5.8,4.12.37,3.51-1.77,5.55-6.75,6.08C110.65,111.56,109.11,110.31,108.93,108.57Z"/></svg>