<svg xmlns="http://www.w3.org/2000/svg" width="92.63" height="45.47" viewBox="0 0 92.63 45.47"><defs><style>.a{fill:#fff;}</style></defs><title>F1-logo</title><path class="a" d="M42.7,13.37c.63-2-.15-3.86-2-5.84A23.71,23.71,0,0,0,23.35,0C10.47,0,0,10.2,0,22.74S10.47,45.47,23.35,45.47a23.64,23.64,0,0,0,13.44-4.14A3,3,0,0,0,37.55,37a3.23,3.23,0,0,0-4.43-.75,17.18,17.18,0,0,1-9.78,3,16.79,16.79,0,0,1-17-16.55,16.79,16.79,0,0,1,17-16.55A17.2,17.2,0,0,1,36.24,12l.31.45L31,27l-.12-9.6a.68.68,0,0,0-.72-.7H25.74a1.09,1.09,0,0,0-1,.7L20.61,27,20.49,17c-.07-2-1-2.54-2.29-2.54a4.94,4.94,0,0,0-1.92.63l-3.72,1.6a16.11,16.11,0,0,0-.88,3.48l2.3-.86a.53.53,0,0,1,.78.25l.16,8.89c0,2,.77,3.21,3.11,3.21h4.9a1.08,1.08,0,0,0,1-.7l2.88-7.78L27,31a.77.77,0,0,0,.82.7H35a1.17,1.17,0,0,0,1.06-.76Z"/><path class="a" d="M45.37,15.84A1.5,1.5,0,0,1,47,14.49h3.75c.93,0,1.32.44,1.14,1.35L49.32,30.19a1.43,1.43,0,0,1-1.6,1.35H44c-.93,0-1.32-.44-1.18-1.35Z"/><path class="a" d="M68.68,14.39a5.4,5.4,0,0,0-2.6.81l-4.64,2.36.15-.81.16-.91a1.52,1.52,0,0,0,0-.74.74.74,0,0,0-.2-.33,1.29,1.29,0,0,0-.93-.29H56.86a1.5,1.5,0,0,0-1.63,1.35L52.66,30.19c-.14.91.24,1.35,1.18,1.35h3.74a1.43,1.43,0,0,0,1.59-1.35l1.53-8.37,3.15-1.18c.52-.24.94,0,.83.54l-1.63,9c-.14.91.24,1.35,1.18,1.35H68a1.43,1.43,0,0,0,1.59-1.35L71.76,18.1c.38-2.26-.87-3.71-3.08-3.71"/><path class="a" d="M82,6.52c.94,0,1.32.44,1.14,1.35L81.11,20.33H82a2.28,2.28,0,0,0,1.8-1l2.08-3.88a1.56,1.56,0,0,1,1.35-.91h4.3a1,1,0,0,1,.9,1.52l-2.32,4.35a7.06,7.06,0,0,1-2.32,2.5,4.17,4.17,0,0,1,1.42,2.5l.87,4.56a1.41,1.41,0,0,1-1.49,1.62H84.37a1.11,1.11,0,0,1-1.08-.91l-.73-4.19a1.41,1.41,0,0,0-1.42-1h-.94l-.87,4.79a1.43,1.43,0,0,1-1.59,1.35H74c-.93,0-1.32-.44-1.18-1.35L76.66,7.87a1.5,1.5,0,0,1,1.63-1.35Z"/><path class="a" d="M46.21,9.88a3.23,3.23,0,0,1,3.49-3.27C51.77,6.61,53,7.67,53,9.14a3.24,3.24,0,0,1-3.49,3.27c-2.07,0-3.29-1.06-3.29-2.53"/></svg>