<svg xmlns="http://www.w3.org/2000/svg" width="104.97" height="80.99" viewBox="0 0 104.97 80.99"><defs><style>.a{fill:#b8d445;}</style></defs><title>F2-computer</title><path class="a" d="M77.51,36.41l-.78-.31-1-.39-1.11-.45-1.26-.51-5-2-.85-.34.14.34,1,2.53.47,1.15.31.78.42,1,.65,1.6.08.2.14.34v0l1.6,3.94.39,1,.63,1.55,1,2.42.24.6.54-1.2,1.67-3.72,1,1,6.78,6.78,3.26-3.26-7.53-7.53-.27-.26.48-.22,2.33-1,.9-.41,1.2-.54-3.11-1.26-.24-.1-2.38-1ZM61.93,76.56H43a2,2,0,1,1,0-4H61.93a2,2,0,1,1,0,4m36.59-8.47H6.45a6.45,6.45,0,1,0,0,12.9H98.52a6.45,6.45,0,0,0,0-12.9M13,7a.19.19,0,0,1,.19-.18H91.77A.19.19,0,0,1,92,7V57.32a.19.19,0,0,1-.18.18H13.2a.19.19,0,0,1-.19-.18Zm.19,57.32H91.77a7,7,0,0,0,7-7V7a7,7,0,0,0-7-7H13.2a7,7,0,0,0-7,7V57.32a7,7,0,0,0,7,7"/><path class="a" d="M20.31,26.76l-2.44-7.33c-.08-.2,1.17-1,2.13-1a1.48,1.48,0,0,1,1.59,1.33l.77,4.3,1.15-3.79a1.65,1.65,0,0,1,1.72-1.09,1.58,1.58,0,0,1,1.66,1.09l1,3.61.77-4.12a1.47,1.47,0,0,1,1.51-1.33c1,0,2.17.82,2.1,1l-2.39,7.33c-.22.8-1.11.93-1.72.93-1.11,0-1.62-.18-1.93-1.15L25.07,23,24,26.54c-.29,1-.86,1.15-1.92,1.15a1.68,1.68,0,0,1-1.73-.93"/><path class="a" d="M33.31,26V20.12c0-1.26.68-1.68,1.57-1.68h.37c.95,0,1.57.38,1.57,1.68V26c0,1.26-.64,1.7-1.53,1.7h-.36c-.95,0-1.6-.4-1.6-1.7M33.2,15.85A1.63,1.63,0,0,1,35,14.21c1.17,0,1.9.62,1.9,1.64a1.63,1.63,0,0,1-1.84,1.66c-1.17,0-1.9-.64-1.9-1.66"/><path class="a" d="M41.83,20a3.33,3.33,0,0,1,3-1.66c2.35,0,3.21,1.7,3.21,3.58v4c0,1.26-.64,1.7-1.55,1.7h-.35c-.95,0-1.61-.4-1.61-1.7V22.53c0-.82-.44-1.33-1.17-1.33a1.56,1.56,0,0,0-1.37.73v4c0,1.27-.66,1.7-1.55,1.7h-.36c-.93,0-1.59-.4-1.59-1.7V18.84c0-.13.64-.4,1.35-.4a1.94,1.94,0,0,1,2,1.57"/><path class="a" d="M49.54,26V15.14c0-.13.64-.4,1.35-.4,1,0,2.15.53,2.15,2.66v4.78l1.8-2.72a2.17,2.17,0,0,1,1.84-1.06c1.06,0,2,.88,1.9,1.08l-2.43,3.45,2.67,3.74c.09.18-.9,1.06-1.93,1.06A2.22,2.22,0,0,1,55,26.66l-2-2.83V26c0,1.26-.66,1.7-1.55,1.7h-.36c-.93,0-1.59-.4-1.59-1.7"/><path class="a" d="M59.61,26.25V26a1.29,1.29,0,0,1,1.48-1.48h.42C62.57,24.48,63,25,63,26v.29c0,1-.48,1.48-1.52,1.48h-.42a1.3,1.3,0,0,1-1.48-1.48"/><path class="a" d="M71.45,23.09a1.82,1.82,0,0,0-3.47-1v1.37a1.55,1.55,0,0,0,1.68,1.6,1.8,1.8,0,0,0,1.79-2M68,26.25a1.36,1.36,0,0,1-1.52,1.42h-.36c-.93,0-1.58-.4-1.58-1.7V15.14c0-.13.64-.4,1.35-.4,1,0,2.15.53,2.15,2.67v2.24a3.13,3.13,0,0,1,2.63-1.3c2.5,0,4.14,1.81,4.14,4.73s-1.64,4.76-4.14,4.76A2.84,2.84,0,0,1,68,26.25"/><path class="a" d="M78.63,22.18H82a1.48,1.48,0,0,0-1.59-1.55,1.72,1.72,0,0,0-1.73,1.55m-3,1a4.67,4.67,0,0,1,4.81-4.81,4.43,4.43,0,0,1,4.7,4.51v.22c0,.53-.18.91-.71.91H78.69a1.9,1.9,0,0,0,2.1,1.42A2.41,2.41,0,0,0,83,24.26s1.6.13,1.6,1.46-1.4,2.11-4,2.11c-3.08,0-5-1.77-5-4.67"/></svg>