<svg xmlns="http://www.w3.org/2000/svg" width="178.93" height="64.2" viewBox="0 0 178.93 64.2"><defs><style>.a{fill:#fff;}</style></defs><title>F2-H1</title><path class="a" d="M52.39,13.23V3A2.35,2.35,0,0,1,54.77.34h3.9c4.86,0,7.84,3,7.84,7.68s-3.08,7.85-7.93,7.85H54.92A2.57,2.57,0,0,1,52.39,13.23Zm6.06-1.44C60.6,11.78,62,10.42,62,8s-1.35-3.62-3.46-3.62H56.91v7.37Z"/><path class="a" d="M67.56,8.09c0-4.7,3.26-8.09,7.8-8.09s7.77,3.36,7.77,8.09-3.24,8.11-7.77,8.11S67.56,12.84,67.56,8.09Zm11.06,0c0-2.28-1.3-3.84-3.26-3.84s-3.28,1.49-3.28,3.84,1.3,3.82,3.28,3.82S78.61,10.39,78.61,8.09Z"/><path class="a" d="M84.66,13.23V3c0-1.73.82-2.66,2.33-2.66h7.84a1.85,1.85,0,0,1,2.12,2v.12c0,1.32-.66,2-2.12,2H89.22V6H93c1.5,0,2.12.67,2.12,1.85V8c0,1.25-.64,2-2.12,2H89.22v1.8h5.72c1.44,0,2.1.65,2.1,1.9v.12a1.88,1.88,0,0,1-2.1,2.11H87C85.48,15.87,84.66,15,84.66,13.23Z"/><path class="a" d="M101.66,13.1a2.38,2.38,0,0,1,1.5-2.4,3.3,3.3,0,0,0,2.69,1.42c1.41,0,2-.65,2-2.5V2.45c0-1.49.68-2.23,1.94-2.23h.66c1.3,0,2,.74,2,2.23V9.7c0,4.46-2,6.5-5.88,6.5C103.37,16.2,101.66,15,101.66,13.1Z"/><path class="a" d="M114.52,13.23V3c0-1.73.82-2.66,2.33-2.66h7.84a1.85,1.85,0,0,1,2.12,2v.12c0,1.32-.66,2-2.12,2h-5.61V6h3.74c1.5,0,2.12.67,2.12,1.85V8c0,1.25-.64,2-2.12,2h-3.74v1.8h5.72c1.44,0,2.1.65,2.1,1.9v.12a1.88,1.88,0,0,1-2.1,2.11h-8C115.34,15.87,114.52,15,114.52,13.23Z"/><path class="a" d="M0,37.18V27c0-1.73.82-2.66,2.33-2.66H7.61c3.47,0,5.33,1.39,5.33,3.89a3.09,3.09,0,0,1-2.69,3.24,3.79,3.79,0,0,1,3.21,3.91c0,3.12-1.89,4.49-6.41,4.49H2.33C.82,39.87,0,38.93,0,37.18ZM6.25,30.6c1.35,0,2-.53,2-1.49s-.66-1.37-1.94-1.37H4.49V30.6Zm.27,5.83c1.6,0,2.26-.46,2.26-1.58s-.68-1.46-2.3-1.46h-2v3Z"/><path class="a" d="M14.48,32.09c0-4.7,3.26-8.09,7.8-8.09S30,27.36,30,32.09s-3.24,8.11-7.77,8.11S14.48,36.84,14.48,32.09Zm11.06,0c0-2.28-1.3-3.84-3.26-3.84S19,29.74,19,32.09s1.3,3.82,3.28,3.82S25.53,34.39,25.53,32.09Z"/><path class="a" d="M31.1,32.09c0-4.7,3.26-8.09,7.8-8.09s7.77,3.36,7.77,8.09S43.43,40.2,38.9,40.2,31.1,36.84,31.1,32.09Zm11.06,0c0-2.28-1.3-3.84-3.26-3.84s-3.28,1.49-3.28,3.84,1.3,3.82,3.28,3.82S42.16,34.39,42.16,32.09Z"/><path class="a" d="M48.2,37.23V27a2.35,2.35,0,0,1,2.37-2.66h3.9c4.86,0,7.84,3,7.84,7.68s-3.08,7.85-7.93,7.85H50.73A2.57,2.57,0,0,1,48.2,37.23Zm6.06-1.44c2.14,0,3.53-1.37,3.53-3.74s-1.35-3.62-3.46-3.62H52.71v7.37Z"/><path class="a" d="M63.22,37a3,3,0,0,1,1.5-2.28,7.13,7.13,0,0,0,4.38,1.8c1.41,0,2.05-.43,2.05-1.22,0-1-1.16-1-2.64-1.3-2.46-.53-4.95-1.63-4.95-4.85S65.8,24,69.86,24c3.88,0,5.56,1.42,5.56,3a3.09,3.09,0,0,1-1.62,2.4,6,6,0,0,0-3.9-1.68c-1.32,0-2,.43-2,1.2s1.19.84,2.74,1.2c2.9.67,5.11,2,5.11,4.85,0,3.38-2.21,5.28-6.66,5.28S63.22,38.64,63.22,37Z"/><path class="a" d="M76.74,32.09c0-4.7,3.15-8.09,7.75-8.09,4.17,0,5.79,2.3,5.79,3.79,0,2-2.55,2.5-2.62,2.35a3.13,3.13,0,0,0-2.92-1.75c-1.89,0-3.31,1.44-3.31,3.7s1.44,3.72,3.31,3.72a3,3,0,0,0,3-1.87c.07-.14,2.64.34,2.64,2.35,0,1.51-1.64,3.91-5.88,3.91C79.87,40.2,76.74,36.84,76.74,32.09Z"/><path class="a" d="M91.84,37.75V26.45c0-1.49.66-2.23,1.92-2.23h.66c1.32,0,2,.74,2,2.23V30h4.72v-3.6c0-1.49.66-2.23,1.92-2.23h.68c1.3,0,2,.74,2,2.23v11.3c0,1.46-.68,2.23-2,2.23h-.68c-1.25,0-1.92-.77-1.92-2.23V34.08H96.42v3.67c0,1.46-.68,2.23-2,2.23h-.66C92.5,40,91.84,39.22,91.84,37.75Z"/><path class="a" d="M116.8,36.65H112l-.41,1.2c-.55,1.66-1.5,2.23-2.49,2.23-1.25,0-2.51-1.06-2.35-1.49l4.79-13.06c.23-.77.84-1.32,2.9-1.32s2.6.55,2.83,1.32l5,13c.16.43-1.07,1.54-2.44,1.54-1,0-2-.55-2.62-2.28Zm-4-3.46H116l-1.6-4.51Z"/><path class="a" d="M123.3,37.75V27c0-1.73.82-2.66,2.33-2.66h3.9c4.22,0,6.52,1.92,6.52,5.64s-2.21,5.52-6.38,5.52h-1.78v2.26c0,1.42-.68,2.23-2,2.23h-.66C124,40,123.3,39.22,123.3,37.75ZM127.81,32h1.66a1.86,1.86,0,0,0,2.12-2c0-1.3-.75-2-2.19-2h-1.6Z"/><path class="a" d="M137.19,37.75V27c0-1.73.82-2.66,2.33-2.66h3.9c4.22,0,6.52,1.92,6.52,5.64s-2.21,5.52-6.38,5.52h-1.78v2.26c0,1.42-.68,2.23-2,2.23h-.66C137.89,40,137.19,39.22,137.19,37.75ZM141.7,32h1.66a1.86,1.86,0,0,0,2.12-2c0-1.3-.75-2-2.19-2h-1.6Z"/><path class="a" d="M151.07,37.23V27c0-1.73.82-2.66,2.33-2.66h7.84a1.85,1.85,0,0,1,2.12,2v.12c0,1.32-.66,2-2.12,2h-5.61V30h3.74c1.5,0,2.12.67,2.12,1.85V32c0,1.25-.64,2-2.12,2h-3.74v1.8h5.72c1.44,0,2.1.65,2.1,1.9v.12a1.88,1.88,0,0,1-2.1,2.11h-8C151.89,39.87,151.07,39,151.07,37.23Z"/><path class="a" d="M165,37.75V26.45c0-1.49.71-2.23,1.87-2.23h.43a2.19,2.19,0,0,1,2.05,1.13l5.29,7.25V26.45c0-1.46.68-2.23,2-2.23H177c1.25,0,1.92.77,1.92,2.23v11.3c0,1.49-.71,2.23-1.85,2.23h-.37a2.1,2.1,0,0,1-2-1.06l-5.4-7.37v6.19c0,1.46-.68,2.23-2,2.23h-.39C165.66,40,165,39.22,165,37.75Z"/><path class="a" d="M49.07,56.09c0-4.7,3.26-8.09,7.8-8.09s7.77,3.36,7.77,8.09S61.4,64.2,56.86,64.2,49.07,60.84,49.07,56.09Zm11.06,0c0-2.28-1.3-3.84-3.26-3.84s-3.28,1.49-3.28,3.84,1.3,3.82,3.28,3.82S60.12,58.39,60.12,56.09Z"/><path class="a" d="M66.17,61.75V50.45c0-1.49.71-2.23,1.87-2.23h.43a2.19,2.19,0,0,1,2.05,1.13l5.29,7.25V50.45c0-1.46.68-2.23,2-2.23h.39c1.25,0,1.92.77,1.92,2.23v11.3c0,1.49-.71,2.23-1.85,2.23h-.36a2.1,2.1,0,0,1-2-1.06l-5.4-7.37v6.19c0,1.46-.68,2.23-2,2.23h-.39C66.83,64,66.17,63.22,66.17,61.75Z"/><path class="a" d="M82.1,61.23V50.45c0-1.51.66-2.23,1.92-2.23h.66c1.3,0,2,.72,2,2.23v9.24h4.49c1.41,0,2.1.67,2.1,2v.07a1.87,1.87,0,0,1-2.1,2.11H84.43C82.92,63.87,82.1,63,82.1,61.23Z"/><path class="a" d="M94.76,61.75V50.45c0-1.49.66-2.23,1.92-2.23h.66c1.3,0,2,.74,2,2.23v11.3c0,1.46-.68,2.23-2,2.23h-.66C95.42,64,94.76,63.22,94.76,61.75Z"/><path class="a" d="M101.46,61.75V50.45c0-1.49.71-2.23,1.87-2.23h.43a2.19,2.19,0,0,1,2.05,1.13l5.29,7.25V50.45c0-1.46.68-2.23,2-2.23h.39c1.25,0,1.92.77,1.92,2.23v11.3c0,1.49-.71,2.23-1.85,2.23h-.37a2.1,2.1,0,0,1-2-1.06l-5.4-7.37v6.19c0,1.46-.68,2.23-2,2.23h-.39C102.12,64,101.46,63.22,101.46,61.75Z"/><path class="a" d="M117.4,61.23V51c0-1.73.82-2.66,2.33-2.66h7.84a1.85,1.85,0,0,1,2.12,2v.12c0,1.32-.66,2-2.12,2H122V54h3.74c1.5,0,2.12.67,2.12,1.85V56c0,1.25-.64,2-2.12,2H122v1.8h5.72c1.44,0,2.1.65,2.1,1.9v.12a1.88,1.88,0,0,1-2.1,2.11h-8C118.22,63.87,117.4,63,117.4,61.23Z"/></svg>