<svg xmlns="http://www.w3.org/2000/svg" width="34.93" height="67.47" viewBox="0 0 34.93 67.47"><defs><style>.a{fill:#fff;}</style></defs><title>F4-fles</title><path class="a" d="M24.26,67.47a4,4,0,0,1-.63-.05L2.65,64A3,3,0,0,1,.45,62.68,3.6,3.6,0,0,1,.13,60C2.4,48.18,6.64,26.2,7,24.13a2.2,2.2,0,0,0-.24-.46,2.31,2.31,0,0,1-.72-1.29l0-.22,1.33-8.29a2.3,2.3,0,0,1,1-1.54l.23-.12L16.64,9c.85-3.12,2-7.32,2.07-7.59A1.84,1.84,0,0,1,20.64,0h.12l5.87,1A1.84,1.84,0,0,1,28,2.85l-.41,7.87,6.85,5.82a2.3,2.3,0,0,1,.42,1.76l-1.3,8.07,0,.23-.11.2a2.33,2.33,0,0,1-1.09,1,2.26,2.26,0,0,0-.38.36c-.27,2-3.15,24.27-4.69,36.2a3.6,3.6,0,0,1-1.15,2.47A2.88,2.88,0,0,1,24.26,67.47ZM8.71,21.91a3.54,3.54,0,0,1,.92,2.5c-.07.42-6.24,32.46-6.95,36.11l0,.14a1.06,1.06,0,0,0,0,.65.66.66,0,0,0,.4.16l21,3.37a.64.64,0,0,0,.43,0,1.07,1.07,0,0,0,.22-.63v-.13c.48-3.69,4.66-36.05,4.73-36.47a3.55,3.55,0,0,1,1.67-2.08l1.19-7.43-7.34-6.2,0-.65a33,33,0,0,1-6-1h0l-.17.63L9.9,14.48Zm22.7,3.45h0ZM6.86,23.73h0Zm25.46-5.84h0ZM19.68,7.75a30.79,30.79,0,0,0,5.43.87l.27-5.21-4.33-.7Zm5.74-5v0ZM23.51,40.61a3.2,3.2,0,0,1-3.16-3.73l1.38-8.61A3.21,3.21,0,0,1,23,26.16a3.17,3.17,0,0,1,2.37-.57h0a3.16,3.16,0,0,1,2.09,1.3A3.22,3.22,0,0,1,28,29.28l-1.39,8.61A3.21,3.21,0,0,1,25.38,40,3.16,3.16,0,0,1,23.51,40.61ZM24.9,28.16a.57.57,0,0,0-.33.11.62.62,0,0,0-.25.41l-1.39,8.61a.6.6,0,0,0,.48.7.55.55,0,0,0,.43-.1.62.62,0,0,0,.25-.41l1.38-8.61a.62.62,0,0,0-.11-.46.57.57,0,0,0-.37-.23H24.9Z"/></svg>