<svg xmlns="http://www.w3.org/2000/svg" width="242.11" height="48.24" viewBox="0 0 242.11 48.24"><defs><style>.a{fill:#006365;}</style></defs><title>F2-H1</title><path class="a" d="M29.77,15.86V3.6c0-2.07,1.2-3.2,2.85-3.2h4.68c5.83,0,9.41,3.54,9.41,9.21S43,19,37.18,19H32.8A3.09,3.09,0,0,1,29.77,15.86ZM37,14.14c2.57,0,4.24-1.64,4.24-4.49S39.67,5.3,37.13,5.3H35.18v8.84Z"/><path class="a" d="M48,9.7C48,4.06,51.87,0,57.32,0s9.33,4,9.33,9.7-3.88,9.73-9.33,9.73S48,15.4,48,9.7Zm13.27,0c0-2.74-1.56-4.61-3.91-4.61S53.38,6.88,53.38,9.7s1.56,4.58,3.94,4.58S61.23,12.47,61.23,9.7Z"/><path class="a" d="M68.48,15.86V3.6c0-2.07,1-3.2,2.79-3.2h9.41a2.22,2.22,0,0,1,2.54,2.42V3c0,1.58-.79,2.42-2.54,2.42H74V7.26h4.49c1.81,0,2.54.81,2.54,2.22v.09c0,1.5-.77,2.36-2.54,2.36H74v2.16h6.87c1.72,0,2.52.78,2.52,2.27v.14A2.26,2.26,0,0,1,80.82,19H71.27C69.47,19,68.48,18,68.48,15.86Z"/><path class="a" d="M88.89,15.72a2.86,2.86,0,0,1,1.81-2.88,4,4,0,0,0,3.23,1.7c1.7,0,2.38-.78,2.38-3V2.94c0-1.79.82-2.68,2.33-2.68h.79c1.56,0,2.38.89,2.38,2.68v8.7c0,5.36-2.44,7.8-7.06,7.8C90.94,19.44,88.89,18,88.89,15.72Z"/><path class="a" d="M104.32,15.86V3.6c0-2.07,1-3.2,2.79-3.2h9.41a2.22,2.22,0,0,1,2.54,2.42V3c0,1.58-.79,2.42-2.54,2.42h-6.73V7.26h4.49c1.81,0,2.54.81,2.54,2.22v.09c0,1.5-.77,2.36-2.54,2.36h-4.49v2.16h6.87c1.72,0,2.52.78,2.52,2.27v.14A2.26,2.26,0,0,1,116.66,19h-9.55C105.31,19,104.32,18,104.32,15.86Z"/><path class="a" d="M125.58,15.81V3.6c0-2.07,1-3.2,2.79-3.2h6.35c4.16,0,6.4,1.67,6.4,4.66,0,2.16-1.15,3.37-3.23,3.89a4.55,4.55,0,0,1,3.86,4.69c0,3.74-2.27,5.38-7.69,5.38h-5.69C126.57,19,125.58,17.91,125.58,15.81Zm7.5-7.89c1.61,0,2.41-.63,2.41-1.79s-.79-1.64-2.33-1.64H131V7.92Zm.33,7c1.92,0,2.71-.55,2.71-1.9s-.82-1.76-2.76-1.76H131v3.66Z"/><path class="a" d="M143,9.7c0-5.64,3.91-9.7,9.36-9.7s9.33,4,9.33,9.7-3.88,9.73-9.33,9.73S143,15.4,143,9.7Zm13.27,0c0-2.74-1.56-4.61-3.91-4.61s-3.94,1.79-3.94,4.61,1.56,4.58,3.94,4.58S156.22,12.47,156.22,9.7Z"/><path class="a" d="M162.9,9.7c0-5.64,3.91-9.7,9.36-9.7s9.33,4,9.33,9.7-3.88,9.73-9.33,9.73S162.9,15.4,162.9,9.7Zm13.27,0c0-2.74-1.56-4.61-3.91-4.61s-3.94,1.79-3.94,4.61,1.56,4.58,3.94,4.58S176.17,12.47,176.17,9.7Z"/><path class="a" d="M183.42,15.86V3.6c0-2.07,1.2-3.2,2.84-3.2h4.68c5.83,0,9.41,3.54,9.41,9.21S196.66,19,190.83,19h-4.38A3.09,3.09,0,0,1,183.42,15.86Zm7.28-1.73c2.57,0,4.24-1.64,4.24-4.49s-1.61-4.35-4.16-4.35h-1.94v8.84Z"/><path class="a" d="M201.53,10.39V9.5a2,2,0,0,1,2.08-2.07h7a2,2,0,0,1,2.08,2.07v.89a2,2,0,0,1-2.08,2.07h-7A2,2,0,0,1,201.53,10.39Z"/><path class="a" d="M0,44.41a3.6,3.6,0,0,1,1.81-2.74,8.55,8.55,0,0,0,5.25,2.16c1.7,0,2.46-.52,2.46-1.47,0-1.15-1.4-1.15-3.17-1.55-3-.63-5.94-2-5.94-5.82S3.09,28.8,8,28.8c4.65,0,6.68,1.7,6.68,3.54a3.71,3.71,0,0,1-1.94,2.88,7.14,7.14,0,0,0-4.68-2c-1.59,0-2.38.52-2.38,1.44,0,1.09,1.42,1,3.28,1.44,3.47.81,6.13,2.39,6.13,5.82,0,4.06-2.65,6.33-8,6.33S0,46.36,0,44.41Z"/><path class="a" d="M16.25,38.5c0-5.64,3.78-9.7,9.3-9.7,5,0,6.95,2.76,6.95,4.55,0,2.42-3.06,3-3.15,2.82a3.75,3.75,0,0,0-3.5-2.1c-2.27,0-4,1.73-4,4.43s1.72,4.46,4,4.46a3.65,3.65,0,0,0,3.56-2.25c.08-.17,3.17.4,3.17,2.82,0,1.81-2,4.69-7.06,4.69C20,48.24,16.25,44.2,16.25,38.5Z"/><path class="a" d="M34.36,45.3V31.74c0-1.79.79-2.68,2.3-2.68h.79c1.59,0,2.41.89,2.41,2.68v4.32h5.66V31.74c0-1.79.79-2.68,2.3-2.68h.82c1.56,0,2.38.89,2.38,2.68V45.3C51,47.05,50.2,48,48.65,48h-.82c-1.5,0-2.3-.92-2.3-2.68V40.89H39.86V45.3c0,1.76-.82,2.68-2.41,2.68h-.79C35.16,48,34.36,47.05,34.36,45.3Z"/><path class="a" d="M64.32,44H58.6l-.49,1.44c-.66,2-1.81,2.68-3,2.68-1.5,0-3-1.27-2.82-1.79l5.75-15.66c.27-.92,1-1.58,3.47-1.58s3.12.66,3.39,1.58l6,15.61c.19.52-1.29,1.84-2.93,1.84-1.15,0-2.38-.66-3.15-2.74Zm-4.79-4.15h3.8l-1.92-5.41Z"/><path class="a" d="M72.12,45.3V32.4c0-2.07,1-3.2,2.79-3.2h4.68c5.06,0,7.82,2.3,7.82,6.77s-2.65,6.62-7.66,6.62H77.62V45.3c0,1.7-.82,2.68-2.41,2.68h-.79C73,48,72.12,47.05,72.12,45.3Zm5.42-6.91h2A2.23,2.23,0,0,0,82.08,36c0-1.55-.9-2.42-2.63-2.42H77.54Z"/><path class="a" d="M88.81,45.3V32.4c0-2.07,1-3.2,2.79-3.2h4.68c5.06,0,7.82,2.3,7.82,6.77s-2.65,6.62-7.66,6.62H94.31V45.3c0,1.7-.82,2.68-2.41,2.68h-.79C89.66,48,88.81,47.05,88.81,45.3Zm5.42-6.91h2A2.23,2.23,0,0,0,98.77,36c0-1.55-.9-2.42-2.63-2.42H94.23Z"/><path class="a" d="M105.47,44.66V32.4c0-2.07,1-3.2,2.79-3.2h9.41a2.22,2.22,0,0,1,2.54,2.42v.14c0,1.58-.79,2.42-2.54,2.42h-6.73v1.87h4.49c1.81,0,2.54.81,2.54,2.22v.09c0,1.5-.77,2.36-2.54,2.36h-4.49v2.16h6.87c1.72,0,2.52.78,2.52,2.27v.14a2.26,2.26,0,0,1-2.52,2.53h-9.55C106.46,47.83,105.47,46.77,105.47,44.66Z"/><path class="a" d="M122.19,45.3V31.74c0-1.79.85-2.68,2.24-2.68H125a2.63,2.63,0,0,1,2.46,1.35l6.35,8.7V31.74c0-1.76.82-2.68,2.38-2.68h.46c1.5,0,2.3.92,2.3,2.68V45.3c0,1.79-.85,2.68-2.22,2.68h-.44a2.52,2.52,0,0,1-2.44-1.27l-6.48-8.84V45.3c0,1.76-.82,2.68-2.38,2.68h-.46C123,48,122.19,47.05,122.19,45.3Z"/><path class="a" d="M145.25,38.5c0-5.64,3.91-9.7,9.36-9.7s9.33,4,9.33,9.7-3.88,9.73-9.33,9.73S145.25,44.2,145.25,38.5Zm13.27,0c0-2.74-1.56-4.61-3.91-4.61s-3.94,1.79-3.94,4.61,1.56,4.58,3.94,4.58S158.52,41.27,158.52,38.5Z"/><path class="a" d="M165.77,45.3V31.74c0-1.79.85-2.68,2.24-2.68h.52A2.63,2.63,0,0,1,171,30.41l6.35,8.7V31.74c0-1.76.82-2.68,2.38-2.68h.46c1.5,0,2.3.92,2.3,2.68V45.3c0,1.79-.85,2.68-2.22,2.68h-.44a2.52,2.52,0,0,1-2.44-1.27l-6.48-8.84V45.3c0,1.76-.82,2.68-2.38,2.68h-.46C166.57,48,165.77,47.05,165.77,45.3Z"/><path class="a" d="M184.9,44.66V31.74c0-1.81.79-2.68,2.3-2.68H188c1.56,0,2.38.86,2.38,2.68V42.82h5.39c1.7,0,2.52.81,2.52,2.39v.09a2.24,2.24,0,0,1-2.52,2.53h-8.07C185.88,47.83,184.9,46.77,184.9,44.66Z"/><path class="a" d="M200.08,45.3V31.74c0-1.79.79-2.68,2.3-2.68h.79c1.56,0,2.38.89,2.38,2.68V45.3c0,1.76-.82,2.68-2.38,2.68h-.79C200.87,48,200.08,47.05,200.08,45.3Z"/><path class="a" d="M208.13,45.3V31.74c0-1.79.85-2.68,2.24-2.68h.52a2.63,2.63,0,0,1,2.46,1.35l6.35,8.7V31.74c0-1.76.82-2.68,2.38-2.68h.46c1.5,0,2.3.92,2.3,2.68V45.3c0,1.79-.85,2.68-2.22,2.68h-.44a2.52,2.52,0,0,1-2.44-1.27l-6.48-8.84V45.3c0,1.76-.82,2.68-2.38,2.68h-.46C208.92,48,208.13,47.05,208.13,45.3Z"/><path class="a" d="M227.25,44.66V32.4c0-2.07,1-3.2,2.79-3.2h9.41A2.22,2.22,0,0,1,242,31.62v.14c0,1.58-.79,2.42-2.54,2.42h-6.73v1.87h4.49c1.81,0,2.54.81,2.54,2.22v.09c0,1.5-.77,2.36-2.54,2.36h-4.49v2.16h6.87c1.72,0,2.52.78,2.52,2.27v.14a2.26,2.26,0,0,1-2.52,2.53H230C228.23,47.83,227.25,46.77,227.25,44.66Z"/></svg>