<svg xmlns="http://www.w3.org/2000/svg" viewBox="0 0 164.01 126.55"><defs><style>.a{fill:#006365;}</style></defs><title>F2-picto</title><path class="a" d="M121.11,56.89l-1.21-.49-1.5-.61-1.74-.71-2-.8-7.75-3.15-1.33-.54.22.54,1.6,3.95.73,1.8.49,1.21.65,1.6,1,2.5.13.31.22.53v0l2.5,6.15.62,1.52,1,2.42L116.3,77l.38.93.84-1.87,2.61-5.81,1.59,1.59,10.6,10.6,5.09-5.09L125.64,65.54l-.42-.41.75-.35,3.64-1.64,1.41-.63,1.87-.84-4.86-2-.37-.15L124,58ZM96.76,119.62H67.25a3.15,3.15,0,1,1,0-6.3H96.76a3.15,3.15,0,1,1,0,6.3m57.18-13.23H10.08a10.08,10.08,0,1,0,0,20.16H153.94a10.08,10.08,0,0,0,0-20.16M20.34,11a.29.29,0,0,1,.29-.29H143.39a.29.29,0,0,1,.29.29v78.6a.29.29,0,0,1-.29.28H20.63a.29.29,0,0,1-.29-.28Zm.29,89.56H143.39a11,11,0,0,0,11-11V11a11,11,0,0,0-11-11H20.63a11,11,0,0,0-11,11v78.6a11,11,0,0,0,11,11"/><path class="a" d="M31.73,41.81,27.92,30.35c-.12-.32,1.82-1.6,3.33-1.6a2.31,2.31,0,0,1,2.48,2.08l1.2,6.72,1.79-5.93a2.58,2.58,0,0,1,2.68-1.7A2.47,2.47,0,0,1,42,31.63l1.57,5.64,1.2-6.44a2.29,2.29,0,0,1,2.36-2.08c1.57,0,3.39,1.28,3.28,1.6L46.66,41.81c-.34,1.25-1.74,1.45-2.68,1.45-1.73,0-2.53-.28-3-1.79L39.17,36l-1.74,5.5c-.46,1.51-1.34,1.79-3,1.79-.94,0-2.28-.23-2.7-1.45"/><path class="a" d="M52,40.58V31.43c0-2,1.06-2.62,2.45-2.62h.57c1.48,0,2.45.6,2.45,2.62v9.15c0,2-1,2.65-2.39,2.65h-.57c-1.48,0-2.51-.63-2.51-2.65m-.17-15.81c0-1.57,1.11-2.57,2.87-2.57s3,1,3,2.57-1.11,2.59-2.87,2.59-3-1-3-2.59"/><path class="a" d="M65.36,31.27A5.2,5.2,0,0,1,70,28.67c3.68,0,5,2.65,5,5.59v6.32c0,2-1,2.65-2.42,2.65h-.55c-1.48,0-2.51-.63-2.51-2.65V35.2c0-1.28-.68-2.08-1.82-2.08a2.44,2.44,0,0,0-2.14,1.14v6.32c0,2-1,2.65-2.42,2.65h-.57c-1.45,0-2.48-.63-2.48-2.65V29.44c0-.2,1-.63,2.11-.63a3,3,0,0,1,3.14,2.45"/><path class="a" d="M77.4,40.58V23.65c0-.2,1-.62,2.11-.62,1.57,0,3.37.83,3.37,4.16v7.46l2.82-4.25a3.39,3.39,0,0,1,2.88-1.65c1.65,0,3.11,1.37,3,1.68l-3.79,5.39,4.16,5.84c.14.29-1.4,1.66-3,1.66a3.47,3.47,0,0,1-3-1.66l-3-4.42v3.33c0,2-1,2.65-2.43,2.65h-.57c-1.45,0-2.48-.63-2.48-2.65"/><path class="a" d="M93.15,41v-.46a2,2,0,0,1,2.31-2.31h.65c1.66,0,2.37.74,2.37,2.31V41c0,1.57-.74,2.31-2.37,2.31h-.65A2,2,0,0,1,93.15,41"/><path class="a" d="M111.65,36.08c0-1.94-1.09-3.17-2.76-3.17a2.79,2.79,0,0,0-2.65,1.68v2.14a2.43,2.43,0,0,0,2.62,2.51c1.69,0,2.8-1.25,2.8-3.16M106.21,41a2.13,2.13,0,0,1-2.37,2.23h-.57c-1.45,0-2.48-.63-2.48-2.65V23.65c0-.2,1-.62,2.11-.62,1.57,0,3.36.83,3.36,4.16v3.5a4.89,4.89,0,0,1,4.1-2c3.9,0,6.47,2.83,6.47,7.38,0,4.36-2.56,7.43-6.47,7.43A4.44,4.44,0,0,1,106.21,41"/><path class="a" d="M122.86,34.66H128a2.32,2.32,0,0,0-2.48-2.42,2.69,2.69,0,0,0-2.71,2.42m-4.76,1.54a7.29,7.29,0,0,1,7.52-7.52c4.33,0,7.35,3,7.35,7v.34c0,.82-.28,1.42-1.11,1.42h-8.92c.34,1.48,1.54,2.23,3.28,2.23a3.77,3.77,0,0,0,3.42-1.79c0-.06,2.51.2,2.51,2.28,0,1.88-2.19,3.3-6.18,3.3-4.81,0-7.86-2.76-7.86-7.3"/></svg>