<svg xmlns="http://www.w3.org/2000/svg" width="176.68" height="77.04" viewBox="0 0 176.68 77.04"><defs><style>.a{fill:#fff;}</style></defs><title>F4-H1</title><path class="a" d="M11.12,9.7C11.12,4.06,15,0,20.48,0s9.33,4,9.33,9.7-3.88,9.73-9.33,9.73S11.12,15.4,11.12,9.7Zm13.27,0c0-2.74-1.56-4.61-3.91-4.61S16.54,6.88,16.54,9.7s1.56,4.58,3.94,4.58S24.39,12.47,24.39,9.7Z"/><path class="a" d="M31.64,15.81V3.6c0-2.07,1-3.2,2.79-3.2h8.65c1.72,0,2.52.81,2.52,2.3v.17c0,1.58-.79,2.39-2.52,2.39H37v3h4.13c1.81,0,2.52.81,2.52,2.19v.12c0,1.5-.74,2.33-2.52,2.33H37.23v3.54c0,1.76-.82,2.68-2.41,2.68h-.88C32.44,19.15,31.64,17.91,31.64,15.81Z"/><path class="a" d="M51.67,16.5V2.94c0-1.79.79-2.68,2.3-2.68h.79c1.56,0,2.38.89,2.38,2.68V8.46l4.27-6.25a3.6,3.6,0,0,1,3-2c1.86,0,3.28,1.81,3.12,2.16l-5,7.14L67.79,17c.19.34-1.31,2.13-3.31,2.13a3.53,3.53,0,0,1-3-1.93l-4.32-6.31V16.5c0,1.76-.82,2.68-2.38,2.68H54C52.46,19.18,51.67,18.25,51.67,16.5Z"/><path class="a" d="M69.56,16.5V2.94c0-1.79.79-2.68,2.3-2.68h.79C74.22.26,75,1.15,75,2.94V16.5c0,1.76-.82,2.68-2.38,2.68h-.79C70.36,19.18,69.56,18.25,69.56,16.5Z"/><path class="a" d="M77.61,15.87V3.6c0-2.07,1-3.2,2.79-3.2h9.41a2.22,2.22,0,0,1,2.54,2.42V3c0,1.58-.79,2.42-2.54,2.42H83.08V7.26h4.49c1.81,0,2.54.81,2.54,2.22v.09c0,1.5-.77,2.36-2.54,2.36H83.08v2.16h6.87c1.72,0,2.52.78,2.52,2.27v.14A2.26,2.26,0,0,1,89.95,19H80.4C78.59,19,77.61,18,77.61,15.87Z"/><path class="a" d="M93.61,15.61a3.61,3.61,0,0,1,1.81-2.74A8.55,8.55,0,0,0,100.67,15c1.7,0,2.46-.52,2.46-1.47,0-1.15-1.4-1.15-3.17-1.55C97,11.37,94,10,94,6.19S96.71,0,101.58,0c4.65,0,6.68,1.7,6.68,3.54a3.7,3.7,0,0,1-1.94,2.88,7.14,7.14,0,0,0-4.68-2c-1.59,0-2.38.52-2.38,1.44,0,1.09,1.42,1,3.28,1.44,3.47.81,6.13,2.39,6.13,5.82,0,4.06-2.65,6.33-8,6.33S93.61,17.56,93.61,15.61Z"/><path class="a" d="M114.82,15.87V3.6c0-2.07,1-3.2,2.79-3.2H127a2.22,2.22,0,0,1,2.54,2.42V3c0,1.58-.79,2.42-2.54,2.42h-6.73V7.26h4.49c1.81,0,2.54.81,2.54,2.22v.09c0,1.5-.77,2.36-2.54,2.36h-4.49v2.16h6.87c1.72,0,2.52.78,2.52,2.27v.14A2.26,2.26,0,0,1,127.16,19h-9.55C115.8,19,114.82,18,114.82,15.87Z"/><path class="a" d="M131.56,15.87V3.6c0-2.07,1-3.2,2.79-3.2h9.41a2.22,2.22,0,0,1,2.54,2.42V3c0,1.58-.79,2.42-2.54,2.42H137V7.26h4.49c1.81,0,2.54.81,2.54,2.22v.09c0,1.5-.77,2.36-2.54,2.36H137v2.16h6.87c1.72,0,2.52.78,2.52,2.27v.14A2.26,2.26,0,0,1,143.9,19h-9.55C132.55,19,131.56,18,131.56,15.87Z"/><path class="a" d="M148.31,16.5V2.94c0-1.79.85-2.68,2.24-2.68h.52a2.63,2.63,0,0,1,2.46,1.35l6.35,8.7V2.94c0-1.76.82-2.68,2.38-2.68h.46c1.5,0,2.3.92,2.3,2.68V16.5c0,1.79-.85,2.68-2.22,2.68h-.44a2.52,2.52,0,0,1-2.44-1.27l-6.48-8.84V16.5c0,1.76-.82,2.68-2.38,2.68h-.46C149.1,19.18,148.31,18.25,148.31,16.5Z"/><path class="a" d="M12,44H6.31l-.49,1.44c-.66,2-1.81,2.68-3,2.68-1.5,0-3-1.27-2.82-1.79L5.76,30.64c.27-.92,1-1.58,3.47-1.58s3.12.66,3.39,1.58l6,15.61c.19.52-1.29,1.84-2.93,1.84-1.15,0-2.38-.66-3.15-2.74ZM7.24,39.83H11L9.13,34.41Z"/><path class="a" d="M19.82,44.61V32.4c0-2.07,1-3.2,2.79-3.2h8.65c1.72,0,2.52.81,2.52,2.3v.17c0,1.58-.79,2.39-2.52,2.39h-6v3h4.13c1.81,0,2.52.81,2.52,2.19v.12c0,1.5-.74,2.33-2.52,2.33H25.41v3.54c0,1.76-.82,2.68-2.41,2.68h-.88C20.62,47.95,19.82,46.71,19.82,44.61Z"/><path class="a" d="M35.34,45.3V31.74c0-1.79.79-2.68,2.3-2.68h.79c1.59,0,2.41.89,2.41,2.68v4.32H46.5V31.74c0-1.79.79-2.68,2.3-2.68h.82c1.56,0,2.38.89,2.38,2.68V45.3c0,1.76-.82,2.68-2.38,2.68H48.8c-1.5,0-2.3-.92-2.3-2.68V40.89H40.84V45.3c0,1.76-.82,2.68-2.41,2.68h-.79C36.13,48,35.34,47.05,35.34,45.3Z"/><path class="a" d="M65.27,44H59.55l-.49,1.44c-.66,2-1.81,2.68-3,2.68-1.5,0-3-1.27-2.82-1.79L59,30.64c.27-.92,1-1.58,3.47-1.58s3.12.66,3.39,1.58l6,15.61c.19.52-1.29,1.84-2.93,1.84-1.15,0-2.38-.66-3.15-2.74Zm-4.79-4.15h3.8l-1.92-5.41Z"/><path class="a" d="M84.18,44H78.46L78,45.41c-.66,2-1.81,2.68-3,2.68-1.5,0-3-1.27-2.82-1.79l5.75-15.66c.27-.92,1-1.58,3.47-1.58s3.12.66,3.39,1.58l6,15.61c.19.52-1.29,1.84-2.93,1.84-1.15,0-2.38-.66-3.15-2.74Zm-4.79-4.15h3.8l-1.92-5.41Z"/><path class="a" d="M92,44.67V31.74c0-1.81.79-2.68,2.3-2.68h.79c1.56,0,2.38.86,2.38,2.68V42.82h5.39c1.7,0,2.52.81,2.52,2.39v.09a2.24,2.24,0,0,1-2.52,2.53H94.76C93,47.83,92,46.77,92,44.67Z"/><path class="a" d="M107,45.3V32.4c0-2.07,1-3.2,2.79-3.2h4.68c5.06,0,7.82,2.3,7.82,6.77s-2.65,6.62-7.66,6.62h-2.13V45.3c0,1.7-.82,2.68-2.41,2.68h-.79C107.81,48,107,47.05,107,45.3Zm5.42-6.91h2A2.23,2.23,0,0,0,116.92,36c0-1.55-.9-2.42-2.63-2.42h-1.92Z"/><path class="a" d="M123.57,39.65V31.74c0-1.79.9-2.68,2.41-2.68h.68c1.59,0,2.41.89,2.41,2.68v7.95q0,3.46,2.63,3.46c1.78,0,2.6-1.09,2.6-3.48V31.74c0-1.81.9-2.68,2.41-2.68h.71c1.56,0,2.38.86,2.38,2.68v7.92c0,5.62-2.76,8.49-8.13,8.49S123.57,45.27,123.57,39.65Z"/><path class="a" d="M142.12,45.3V31.74c0-1.79.85-2.68,2.24-2.68h.52a2.63,2.63,0,0,1,2.46,1.35l6.35,8.7V31.74c0-1.76.82-2.68,2.38-2.68h.46c1.5,0,2.3.92,2.3,2.68V45.3c0,1.79-.85,2.68-2.22,2.68h-.44a2.52,2.52,0,0,1-2.44-1.27l-6.48-8.84V45.3c0,1.76-.82,2.68-2.38,2.68h-.46C142.92,48,142.12,47.05,142.12,45.3Z"/><path class="a" d="M160.26,31.68v-.09c0-1.58.88-2.39,2.52-2.39h11.35c1.7,0,2.54.81,2.54,2.39v.09a2.26,2.26,0,0,1-2.54,2.53h-2.87V45.3c0,1.76-.87,2.68-2.46,2.68H168c-1.5,0-2.27-.92-2.27-2.68V34.21h-3A2.27,2.27,0,0,1,160.26,31.68Z"/><path class="a" d="M11.26,74.1V60.54c0-1.79.79-2.68,2.3-2.68h.79c1.56,0,2.38.89,2.38,2.68V74.1c0,1.76-.82,2.68-2.38,2.68h-.79C12.06,76.78,11.26,75.85,11.26,74.1Z"/><path class="a" d="M19.31,74.1V60.54c0-1.79.85-2.68,2.24-2.68h.52a2.63,2.63,0,0,1,2.46,1.35l6.35,8.7V60.54c0-1.76.82-2.68,2.38-2.68h.47c1.5,0,2.3.92,2.3,2.68V74.1c0,1.79-.85,2.68-2.22,2.68h-.44a2.52,2.52,0,0,1-2.43-1.27l-6.48-8.84V74.1c0,1.76-.82,2.68-2.38,2.68H21.6C20.1,76.78,19.31,75.85,19.31,74.1Z"/><path class="a" d="M42.1,73.32a2.86,2.86,0,0,1,1.81-2.88,4,4,0,0,0,3.23,1.7c1.7,0,2.38-.78,2.38-3V60.54c0-1.79.82-2.68,2.33-2.68h.79c1.56,0,2.38.89,2.38,2.68v8.7C55,74.59,52.57,77,48,77,44.15,77,42.1,75.62,42.1,73.32Z"/><path class="a" d="M57.55,73.46V61.2c0-2.07,1-3.2,2.79-3.2h9.41a2.22,2.22,0,0,1,2.54,2.42v.14c0,1.58-.79,2.42-2.54,2.42H63v1.87h4.49c1.81,0,2.54.81,2.54,2.22v.09c0,1.5-.77,2.36-2.54,2.36H63v2.16h6.87c1.72,0,2.52.78,2.52,2.27v.14a2.26,2.26,0,0,1-2.52,2.53H60.34C58.54,76.63,57.55,75.57,57.55,73.46Z"/><path class="a" d="M78.81,73.41V61.2c0-2.07,1-3.2,2.79-3.2H88c4.16,0,6.4,1.67,6.4,4.66,0,2.16-1.15,3.37-3.23,3.89A4.55,4.55,0,0,1,95,71.25c0,3.74-2.27,5.38-7.69,5.38H81.6C79.8,76.63,78.81,75.51,78.81,73.41Zm7.5-7.89c1.61,0,2.41-.63,2.41-1.79s-.79-1.64-2.33-1.64H84.2v3.43Zm.33,7c1.92,0,2.71-.55,2.71-1.9s-.82-1.76-2.76-1.76H84.2v3.66Z"/><path class="a" d="M96.68,68.45V60.54c0-1.79.9-2.68,2.41-2.68h.68c1.59,0,2.41.89,2.41,2.68v7.95q0,3.46,2.63,3.46c1.78,0,2.6-1.09,2.6-3.48V60.54c0-1.81.9-2.68,2.41-2.68h.71c1.56,0,2.38.86,2.38,2.68v7.92c0,5.62-2.76,8.49-8.13,8.49S96.68,74.07,96.68,68.45Z"/><path class="a" d="M115.15,68.45V60.54c0-1.79.9-2.68,2.41-2.68h.68c1.59,0,2.41.89,2.41,2.68v7.95q0,3.46,2.63,3.46c1.78,0,2.6-1.09,2.6-3.48V60.54c0-1.81.9-2.68,2.41-2.68H129c1.56,0,2.38.86,2.38,2.68v7.92c0,5.62-2.76,8.49-8.13,8.49S115.15,74.07,115.15,68.45Z"/><path class="a" d="M142.67,74.33l-2.52-3.51h-1V74.1c0,1.73-.82,2.68-2.41,2.68H136c-1.5,0-2.3-1.24-2.3-3.34V61.2c0-2.07,1-3.2,2.79-3.2H142c4.92,0,7.39,2.13,7.39,6.1a5.29,5.29,0,0,1-3.83,5.47l4,5.21c.16.23-.79,2-3.15,2C144.67,76.78,143.82,76,142.67,74.33Zm-3.58-7.6h2.3c1.64,0,2.46-.78,2.46-2.16s-.79-2.19-2.52-2.19h-2.24Z"/><path class="a" d="M150.3,60.48v-.09c0-1.58.88-2.39,2.52-2.39h11.35c1.7,0,2.54.81,2.54,2.39v.09A2.26,2.26,0,0,1,164.17,63H161.3V74.1c0,1.76-.87,2.68-2.46,2.68h-.77c-1.5,0-2.27-.92-2.27-2.68V63h-3A2.27,2.27,0,0,1,150.3,60.48Z"/></svg>