<svg xmlns="http://www.w3.org/2000/svg" width="273.27" height="48.24" viewBox="0 0 273.27 48.24"><defs><style>.a{fill:#fff;}</style></defs><title>F5-H1</title><path class="a" d="M0,16.5V3.6C0,1.53,1,.4,2.79.4H7.47c5.06,0,7.82,2.3,7.82,6.77s-2.65,6.62-7.66,6.62H5.5V16.5c0,1.7-.82,2.68-2.41,2.68H2.3C.85,19.18,0,18.25,0,16.5ZM5.42,9.59h2A2.23,2.23,0,0,0,10,7.17c0-1.55-.9-2.42-2.63-2.42H5.42Z"/><path class="a" d="M25.23,16.73l-2.52-3.51h-1V16.5c0,1.73-.82,2.68-2.41,2.68h-.77c-1.5,0-2.3-1.24-2.3-3.34V3.6c0-2.07,1-3.2,2.79-3.2h5.47c4.92,0,7.39,2.13,7.39,6.1A5.29,5.29,0,0,1,28.07,12l4,5.21c.16.23-.79,2-3.15,2C27.22,19.18,26.38,18.4,25.23,16.73Zm-3.58-7.6h2.3c1.64,0,2.46-.78,2.46-2.16s-.79-2.19-2.52-2.19H21.64Z"/><path class="a" d="M32.83,9.7c0-5.64,3.91-9.7,9.36-9.7s9.33,4,9.33,9.7-3.88,9.73-9.33,9.73S32.83,15.4,32.83,9.7Zm13.27,0C46.1,7,44.54,5.1,42.19,5.1S38.25,6.88,38.25,9.7s1.56,4.58,3.94,4.58S46.1,12.47,46.1,9.7Z"/><path class="a" d="M52.94,15.81V3.6c0-2.07,1-3.2,2.79-3.2h8.65c1.72,0,2.52.81,2.52,2.3v.17c0,1.58-.79,2.39-2.52,2.39h-6v3h4.13c1.81,0,2.52.81,2.52,2.19v.12c0,1.5-.74,2.33-2.52,2.33H58.52v3.54c0,1.76-.82,2.68-2.41,2.68h-.88C53.73,19.15,52.94,17.91,52.94,15.81Z"/><path class="a" d="M68.24,16.5V2.94c0-1.79.79-2.68,2.3-2.68h.79c1.56,0,2.38.89,2.38,2.68V16.5c0,1.76-.82,2.68-2.38,2.68h-.79C69,19.18,68.24,18.25,68.24,16.5Z"/><path class="a" d="M74.88,2.88V2.79c0-1.58.88-2.39,2.52-2.39H88.75c1.7,0,2.54.81,2.54,2.39v.09a2.26,2.26,0,0,1-2.54,2.53H85.88V16.5c0,1.76-.88,2.68-2.46,2.68h-.77c-1.5,0-2.27-.92-2.27-2.68V5.41h-3A2.27,2.27,0,0,1,74.88,2.88Z"/><path class="a" d="M92.28,15.87V3.6c0-2.07,1-3.2,2.79-3.2h9.41A2.22,2.22,0,0,1,107,2.82V3c0,1.58-.79,2.42-2.54,2.42H97.76V7.26h4.49c1.81,0,2.54.81,2.54,2.22v.09c0,1.5-.77,2.36-2.54,2.36H97.76v2.16h6.87c1.72,0,2.52.78,2.52,2.27v.14A2.26,2.26,0,0,1,104.62,19H95.08C93.27,19,92.28,18,92.28,15.87Z"/><path class="a" d="M108.62,15.87V3.6c0-2.07,1-3.2,2.79-3.2h9.41a2.22,2.22,0,0,1,2.54,2.42V3c0,1.58-.79,2.42-2.54,2.42h-6.73V7.26h4.49c1.81,0,2.54.81,2.54,2.22v.09c0,1.5-.77,2.36-2.54,2.36h-4.49v2.16H121c1.72,0,2.52.78,2.52,2.27v.14A2.26,2.26,0,0,1,121,19h-9.55C109.6,19,108.62,18,108.62,15.87Z"/><path class="a" d="M133.93,16.73l-2.52-3.51h-1V16.5c0,1.73-.82,2.68-2.41,2.68h-.77c-1.5,0-2.3-1.24-2.3-3.34V3.6c0-2.07,1-3.2,2.79-3.2h5.47c4.92,0,7.39,2.13,7.39,6.1A5.29,5.29,0,0,1,136.77,12l4,5.21c.16.23-.79,2-3.15,2C135.92,19.18,135.08,18.4,133.93,16.73Zm-3.58-7.6h2.3c1.64,0,2.46-.78,2.46-2.16s-.79-2.19-2.52-2.19h-2.24Z"/><path class="a" d="M146.29,16.5V2.94c0-1.79.85-2.68,2.24-2.68h.52a2.63,2.63,0,0,1,2.46,1.35l6.35,8.7V2.94c0-1.76.82-2.68,2.38-2.68h.46c1.5,0,2.3.92,2.3,2.68V16.5c0,1.79-.85,2.68-2.22,2.68h-.44a2.52,2.52,0,0,1-2.44-1.27l-6.48-8.84V16.5c0,1.76-.82,2.68-2.38,2.68h-.46C147.09,19.18,146.29,18.25,146.29,16.5Z"/><path class="a" d="M164.93,10.85V2.94c0-1.79.9-2.68,2.41-2.68H168c1.59,0,2.41.89,2.41,2.68v7.95q0,3.46,2.63,3.46c1.78,0,2.6-1.09,2.6-3.48V2.94c0-1.81.9-2.68,2.41-2.68h.71c1.56,0,2.38.86,2.38,2.68v7.92c0,5.62-2.76,8.49-8.13,8.49S164.93,16.47,164.93,10.85Z"/><path class="a" d="M192.53,2.94l2.76,9.27L198,2.94c.52-1.87,1.72-2.68,2.93-2.68,1.78,0,3.47,1.44,3.25,2L198.39,17a3,3,0,0,1-3.17,2.16A2.89,2.89,0,0,1,192.09,17l-6-14.77c-.22-.55,1.59-2,3.39-2A3.32,3.32,0,0,1,192.53,2.94Z"/><path class="a" d="M214,15.17h-5.72l-.49,1.44c-.66,2-1.81,2.68-3,2.68-1.5,0-3-1.27-2.82-1.79l5.75-15.66c.27-.92,1-1.58,3.47-1.58s3.12.66,3.39,1.58l6,15.61c.19.52-1.29,1.84-2.93,1.84-1.15,0-2.38-.66-3.15-2.74ZM209.22,11H213l-1.92-5.41Z"/><path class="a" d="M221.4,16.5V2.94c0-1.79.85-2.68,2.24-2.68h.52a2.63,2.63,0,0,1,2.46,1.35l6.35,8.7V2.94c0-1.76.82-2.68,2.38-2.68h.46c1.5,0,2.3.92,2.3,2.68V16.5c0,1.79-.85,2.68-2.22,2.68h-.44A2.52,2.52,0,0,1,233,17.91l-6.48-8.84V16.5c0,1.76-.82,2.68-2.38,2.68h-.46C222.19,19.18,221.4,18.25,221.4,16.5Z"/><path class="a" d="M243.36,15.72a2.86,2.86,0,0,1,1.81-2.88,4,4,0,0,0,3.23,1.7c1.7,0,2.38-.78,2.38-3V2.94c0-1.79.82-2.68,2.33-2.68h.79c1.56,0,2.38.89,2.38,2.68v8.7c0,5.36-2.44,7.8-7.06,7.8C245.42,19.44,243.36,18,243.36,15.72Z"/><path class="a" d="M258.41,15.87V3.6c0-2.07,1-3.2,2.79-3.2h9.41a2.22,2.22,0,0,1,2.54,2.42V3c0,1.58-.79,2.42-2.54,2.42h-6.73V7.26h4.49c1.81,0,2.54.81,2.54,2.22v.09c0,1.5-.77,2.36-2.54,2.36h-4.49v2.16h6.87c1.72,0,2.52.78,2.52,2.27v.14A2.26,2.26,0,0,1,270.75,19H261.2C259.4,19,258.41,18,258.41,15.87Z"/><path class="a" d="M13.19,45.79,9,31.07a3.52,3.52,0,0,1,3.42-2c1.09,0,2.57.63,3,3.08l1.48,8,1.86-7.28a2.77,2.77,0,0,1,3-2.1,2.85,2.85,0,0,1,2.93,2.1l1.86,7.28L28,32.11c.38-2.25,1.7-3,3-3,2.19,0,3.28,1.67,3.2,2l-4,14.71C29.79,47.43,28.67,48,27,48s-2.74-.52-3.23-2.22L21.67,38.1l-2.05,7.69C19.18,47.46,18,48,16.36,48S13.63,47.52,13.19,45.79Z"/><path class="a" d="M35.81,44.67V32.4c0-2.07,1-3.2,2.79-3.2H48a2.22,2.22,0,0,1,2.54,2.42v.14c0,1.58-.79,2.42-2.54,2.42H41.29v1.87h4.49c1.81,0,2.54.81,2.54,2.22v.09c0,1.5-.77,2.36-2.54,2.36H41.29v2.16h6.87c1.72,0,2.52.78,2.52,2.27v.14a2.26,2.26,0,0,1-2.52,2.53H38.6C36.8,47.83,35.81,46.77,35.81,44.67Z"/><path class="a" d="M52.15,44.67V31.74c0-1.81.79-2.68,2.3-2.68h.79c1.56,0,2.38.86,2.38,2.68V42.82H63c1.7,0,2.52.81,2.52,2.39v.09A2.24,2.24,0,0,1,63,47.83H54.94C53.13,47.83,52.15,46.77,52.15,44.67Z"/><path class="a" d="M66.73,45.3V31.74c0-1.79.79-2.68,2.3-2.68h.79c1.56,0,2.38.89,2.38,2.68v5.53L76.47,31a3.6,3.6,0,0,1,3-2c1.86,0,3.28,1.81,3.12,2.16l-5,7.14,5.2,7.49C83,46.19,81.53,48,79.53,48a3.53,3.53,0,0,1-3-1.93L72.2,39.74V45.3c0,1.76-.82,2.68-2.38,2.68H69C67.52,48,66.73,47.05,66.73,45.3Z"/><path class="a" d="M83.26,38.5c0-5.64,3.91-9.7,9.36-9.7s9.33,4,9.33,9.7-3.88,9.73-9.33,9.73S83.26,44.2,83.26,38.5Zm13.27,0c0-2.74-1.56-4.61-3.91-4.61s-3.94,1.79-3.94,4.61,1.56,4.58,3.94,4.58S96.52,41.27,96.52,38.5Z"/><path class="a" d="M103.36,45.3V31.82c0-1.84.88-2.76,2.43-2.76h1.56a2.12,2.12,0,0,1,2.43,1.55l2.87,7.46,2.9-7.46a2.08,2.08,0,0,1,2.35-1.55h1.53c1.64,0,2.52.92,2.52,2.76V45.3c0,1.76-.57,2.68-2.13,2.68H119c-1.5,0-2.13-.92-2.13-2.68v-8L115,42.79c-.25.72-.27,1.41-2.33,1.41s-2-.66-2.3-1.41l-1.83-5.24V45.3c0,1.76-.55,2.68-2.13,2.68h-.87C104,48,103.36,47.05,103.36,45.3Z"/><path class="a" d="M123.23,44.41A3.61,3.61,0,0,1,125,41.67a8.55,8.55,0,0,0,5.25,2.16c1.7,0,2.46-.52,2.46-1.47,0-1.15-1.4-1.15-3.17-1.55-3-.63-5.94-2-5.94-5.82s2.68-6.19,7.55-6.19c4.65,0,6.68,1.7,6.68,3.54a3.7,3.7,0,0,1-1.94,2.88,7.14,7.14,0,0,0-4.68-2c-1.59,0-2.38.52-2.38,1.44,0,1.09,1.42,1,3.28,1.44,3.47.81,6.13,2.39,6.13,5.82,0,4.06-2.65,6.33-8,6.33S123.23,46.36,123.23,44.41Z"/><path class="a" d="M138.55,31.68v-.09c0-1.58.88-2.39,2.52-2.39h11.35c1.7,0,2.54.81,2.54,2.39v.09a2.26,2.26,0,0,1-2.54,2.53h-2.87V45.3c0,1.76-.87,2.68-2.46,2.68h-.77c-1.5,0-2.27-.92-2.27-2.68V34.21h-3A2.27,2.27,0,0,1,138.55,31.68Z"/><path class="a" d="M165.28,44h-5.72l-.49,1.44c-.66,2-1.81,2.68-3,2.68-1.5,0-3-1.27-2.82-1.79L159,30.64c.27-.92,1-1.58,3.47-1.58s3.12.66,3.39,1.58l6,15.61c.19.52-1.29,1.84-2.93,1.84-1.15,0-2.38-.66-3.15-2.74Zm-4.79-4.15h3.8l-1.92-5.41Z"/><path class="a" d="M183.8,44h-5.72l-.49,1.44c-.66,2-1.81,2.68-3,2.68-1.5,0-3-1.27-2.82-1.79l5.75-15.66c.27-.92,1-1.58,3.47-1.58s3.12.66,3.39,1.58l6,15.61c.19.52-1.29,1.84-2.93,1.84-1.15,0-2.38-.66-3.15-2.74ZM179,39.83h3.8l-1.92-5.41Z"/><path class="a" d="M191.19,45.3V31.74c0-1.79.85-2.68,2.24-2.68H194a2.63,2.63,0,0,1,2.46,1.35l6.35,8.7V31.74c0-1.76.82-2.68,2.38-2.68h.46c1.5,0,2.3.92,2.3,2.68V45.3c0,1.79-.85,2.68-2.22,2.68h-.44a2.52,2.52,0,0,1-2.44-1.27l-6.48-8.84V45.3c0,1.76-.82,2.68-2.38,2.68h-.46C192,48,191.19,47.05,191.19,45.3Z"/><path class="a" d="M209.9,44.61V32.4c0-2.07,1-3.2,2.79-3.2H219c4.16,0,6.4,1.67,6.4,4.66,0,2.16-1.15,3.37-3.23,3.89a4.55,4.55,0,0,1,3.86,4.69c0,3.74-2.27,5.38-7.69,5.38h-5.69C210.89,47.83,209.9,46.71,209.9,44.61Zm7.5-7.89c1.61,0,2.41-.63,2.41-1.79s-.79-1.64-2.33-1.64h-2.19v3.43Zm.33,7c1.92,0,2.71-.55,2.71-1.9s-.82-1.76-2.76-1.76h-2.38v3.66Z"/><path class="a" d="M226.87,38.5c0-5.64,3.91-9.7,9.36-9.7s9.33,4,9.33,9.7-3.88,9.73-9.33,9.73S226.87,44.2,226.87,38.5Zm13.27,0c0-2.74-1.56-4.61-3.91-4.61s-3.94,1.79-3.94,4.61,1.56,4.58,3.94,4.58S240.14,41.27,240.14,38.5Z"/><path class="a" d="M247,44.67V32.4c0-2.07,1.2-3.2,2.84-3.2h4.68c5.83,0,9.41,3.54,9.41,9.21s-3.69,9.42-9.52,9.42H250A3.09,3.09,0,0,1,247,44.67Zm7.28-1.73c2.57,0,4.24-1.64,4.24-4.49s-1.61-4.35-4.16-4.35h-1.94v8.84Z"/></svg>