<svg xmlns="http://www.w3.org/2000/svg" width="176.61" height="37.06" viewBox="0 0 176.61 37.06"><defs><style>.a{fill:#006365;}.b{fill:#fff;}</style></defs><title>F11-btn</title><path class="a" d="M11.13,0S0,0,0,11.13v14.8S0,37.06,11.13,37.06H165.48s11.13,0,11.13-11.13V11.13S176.61,0,165.48,0Z"/><path class="b" d="M10.55,12.79v-.07c0-1.34.78-2,2.24-2H22.9c1.51,0,2.27.68,2.27,2v.07c0,1.39-.75,2.14-2.27,2.14H20.34v9.38a2,2,0,0,1-2.19,2.26h-.68c-1.34,0-2-.78-2-2.26V14.93H12.79A2,2,0,0,1,10.55,12.79Z"/><path class="b" d="M26.5,23.77V13.4c0-1.75.88-2.7,2.48-2.7h8.38c1.56,0,2.27.78,2.27,2v.12c0,1.34-.71,2-2.27,2h-6v1.58h4c1.61,0,2.26.68,2.26,1.88v.07c0,1.27-.68,2-2.26,2h-4v1.83h6.11c1.53,0,2.24.66,2.24,1.92v.12a2,2,0,0,1-2.24,2.14H29C27.38,26.45,26.5,25.55,26.5,23.77Z"/><path class="b" d="M40.85,23.55a3.06,3.06,0,0,1,1.61-2.31,7.82,7.82,0,0,0,4.68,1.83c1.51,0,2.19-.44,2.19-1.24,0-1-1.24-1-2.82-1.32-2.63-.54-5.28-1.66-5.28-4.92s2.39-5.24,6.72-5.24c4.14,0,5.94,1.44,5.94,3a3.15,3.15,0,0,1-1.73,2.43A6.53,6.53,0,0,0,48,14.08c-1.41,0-2.12.44-2.12,1.22s1.27.85,2.92,1.22c3.09.68,5.46,2,5.46,4.92,0,3.43-2.36,5.36-7.11,5.36S40.85,25.21,40.85,23.55Z"/><path class="b" d="M55,12.79v-.07c0-1.34.78-2,2.24-2H67.3c1.51,0,2.27.68,2.27,2v.07c0,1.39-.75,2.14-2.27,2.14H64.75v9.38a2,2,0,0,1-2.19,2.26h-.68c-1.34,0-2-.78-2-2.26V14.93H57.2A2,2,0,0,1,55,12.79Z"/><path class="b" d="M75.05,24.31V12.83c0-1.51.71-2.26,2-2.26h.71c1.41,0,2.14.75,2.14,2.26v3.65h5V12.83c0-1.51.71-2.26,2-2.26h.73c1.39,0,2.12.75,2.12,2.26V24.31c0,1.49-.73,2.26-2.12,2.26H87c-1.34,0-2-.78-2-2.26V20.58h-5v3.73c0,1.49-.73,2.26-2.14,2.26H77.1C75.76,26.57,75.05,25.79,75.05,24.31Z"/><path class="b" d="M92.1,23.77V13.4c0-1.75.88-2.7,2.48-2.7H103c1.56,0,2.26.78,2.26,2v.12c0,1.34-.71,2-2.26,2H97v1.58h4c1.61,0,2.27.68,2.27,1.88v.07c0,1.27-.68,2-2.27,2H97v1.83h6.11c1.53,0,2.24.66,2.24,1.92v.12a2,2,0,0,1-2.24,2.14h-8.5C93,26.45,92.1,25.55,92.1,23.77Z"/><path class="b" d="M106.43,12.79v-.07c0-1.34.78-2,2.24-2h10.11c1.51,0,2.27.68,2.27,2v.07c0,1.39-.76,2.14-2.27,2.14h-2.56v9.38A2,2,0,0,1,114,26.57h-.68c-1.34,0-2-.78-2-2.26V14.93h-2.66A2,2,0,0,1,106.43,12.79Z"/><path class="b" d="M126.53,24.31V12.83c0-1.51.75-2.26,2-2.26H129a2.37,2.37,0,0,1,2.19,1.14l5.65,7.35V12.83c0-1.49.73-2.26,2.12-2.26h.41c1.34,0,2,.78,2,2.26V24.31c0,1.51-.75,2.26-2,2.26H139a2.28,2.28,0,0,1-2.17-1.07L131.1,18v6.28c0,1.49-.73,2.26-2.12,2.26h-.41C127.23,26.57,126.53,25.79,126.53,24.31Z"/><path class="b" d="M143.58,19.53v-6.7a2,2,0,0,1,2.14-2.26h.61c1.41,0,2.14.75,2.14,2.26v6.72q0,2.92,2.34,2.92c1.58,0,2.31-.92,2.31-2.95v-6.7a2,2,0,0,1,2.14-2.26h.63c1.39,0,2.12.73,2.12,2.26v6.7c0,4.75-2.46,7.18-7.23,7.18S143.58,24.28,143.58,19.53Z"/><path class="b" d="M161.26,19.73,160,13.37a2.19,2.19,0,0,1,2.31-3h.61c1.88,0,2.9,1.17,2.44,3l-1.24,6.36c-.27,1-.58,1.46-1.24,1.46h-.46C161.82,21.19,161.53,20.73,161.26,19.73Zm-.85,4.94v-.39a1.72,1.72,0,0,1,2-2h.56c1.39,0,2,.63,2,2v.39c0,1.34-.63,2-2,2h-.56A1.73,1.73,0,0,1,160.41,24.67Z"/></svg>