<svg xmlns="http://www.w3.org/2000/svg" width="38.18" height="39.62" viewBox="0 0 38.18 39.62"><defs><style>.a{fill:#fff;}</style></defs><title>F4-bout</title><path class="a" d="M10.88,4.52a2,2,0,0,1-.34,1.05L9.48,7.15,13,11l-.64.66h0l-.07,0-.15.15-.31.37L10.8,13.33l-3.72-4-1.66,1a1.77,1.77,0,0,1-1,.24,2,2,0,0,1,.05-4.09l2.19,0,.18-2.19a2,2,0,0,1,4.08.23M32.93,19.73A10.36,10.36,0,1,1,17.78,33.86c-1.82-2-6.75-12.25-6.65-15,0-.14,0-.27,0-.4a18.8,18.8,0,0,1,2.48-4.64l.34-.36c.26-.18.63-.42.9-.58s2-.47,3.85-.79c3.21.49,12.41,5.76,14.2,7.65M4.4,4.09h0A4.44,4.44,0,0,0,4.3,13a4.1,4.1,0,0,0,2.35-.58l3,3.24.06.08a22.12,22.12,0,0,0-.87,2.09l0,.13v.14c0,.21-.05.46-.06.71C8.61,22.34,14,33.33,16,35.48a12.76,12.76,0,1,0,18.66-17.4c-2.16-2.27-12.15-8-15.83-8.4l-.17,0-.17,0c-.66.11-1.85.32-2.87.54l-3.1-3.32A4.44,4.44,0,1,0,4.4,4.09"/></svg>