<svg xmlns="http://www.w3.org/2000/svg" width="193.86" height="64.2" viewBox="0 0 193.86 64.2"><defs><style>.a{fill:#fff;}</style></defs><title>F7-H1</title><path class="a" d="M55.88,8.09c0-4.7,3.26-8.09,7.8-8.09s7.77,3.36,7.77,8.09-3.24,8.11-7.77,8.11S55.88,12.84,55.88,8.09Zm11.06,0c0-2.28-1.3-3.84-3.26-3.84S60.4,5.74,60.4,8.09s1.3,3.82,3.28,3.82S66.94,10.39,66.94,8.09Z"/><path class="a" d="M73,13.18V3C73,1.27,73.8.34,75.31.34h7.2c1.44,0,2.1.67,2.1,1.92V2.4c0,1.32-.66,2-2.1,2h-5V6.91h3.44c1.5,0,2.1.67,2.1,1.82v.1c0,1.25-.62,1.94-2.1,1.94H77.63v3c0,1.46-.68,2.23-2,2.23H74.9C73.64,16,73,14.93,73,13.18Z"/><path class="a" d="M89.7,13.75V2.45C89.7,1,90.36.22,91.61.22h.66c1.3,0,2,.74,2,2.23V7.06l3.56-5.21A3,3,0,0,1,100.32.22c1.55,0,2.74,1.51,2.6,1.8L98.79,8l4.33,6.24c.16.29-1.09,1.78-2.76,1.78a2.94,2.94,0,0,1-2.51-1.61l-3.6-5.26v4.63c0,1.46-.68,2.23-2,2.23h-.66C90.36,16,89.7,15.22,89.7,13.75Z"/><path class="a" d="M104.61,13.75V2.45c0-1.49.66-2.23,1.92-2.23h.66c1.3,0,2,.74,2,2.23v11.3c0,1.46-.68,2.23-2,2.23h-.66C105.27,16,104.61,15.22,104.61,13.75Z"/><path class="a" d="M111.31,13.23V3c0-1.73.82-2.66,2.33-2.66h7.84a1.85,1.85,0,0,1,2.12,2v.12c0,1.32-.66,2-2.12,2h-5.61V6h3.74c1.5,0,2.12.67,2.12,1.85V8c0,1.25-.64,2-2.12,2h-3.74v1.8h5.72c1.44,0,2.1.65,2.1,1.9v.12a1.88,1.88,0,0,1-2.1,2.11h-8C112.13,15.87,111.31,15,111.31,13.23Z"/><path class="a" d="M124.65,13a3,3,0,0,1,1.5-2.28,7.13,7.13,0,0,0,4.38,1.8c1.41,0,2.05-.43,2.05-1.22,0-1-1.16-1-2.64-1.3C127.47,9.48,125,8.38,125,5.16S127.22,0,131.28,0c3.88,0,5.56,1.42,5.56,3a3.09,3.09,0,0,1-1.62,2.4,6,6,0,0,0-3.9-1.68c-1.32,0-2,.43-2,1.2s1.19.84,2.74,1.2c2.89.67,5.11,2,5.11,4.85,0,3.38-2.21,5.28-6.66,5.28S124.65,14.64,124.65,13Z"/><path class="a" d="M0,37.23V27c0-1.73.82-2.66,2.33-2.66h7.84a1.85,1.85,0,0,1,2.12,2v.12c0,1.32-.66,2-2.12,2H4.56V30H8.3c1.5,0,2.12.67,2.12,1.85V32c0,1.25-.64,2-2.12,2H4.56v1.8h5.72c1.44,0,2.1.65,2.1,1.9v.12a1.88,1.88,0,0,1-2.1,2.11h-8C.82,39.87,0,39,0,37.23Z"/><path class="a" d="M14,37.23V27c0-1.73.82-2.66,2.33-2.66h7.84a1.85,1.85,0,0,1,2.12,2v.12c0,1.32-.66,2-2.12,2H18.51V30h3.74c1.5,0,2.12.67,2.12,1.85V32c0,1.25-.64,2-2.12,2H18.51v1.8h5.72c1.44,0,2.1.65,2.1,1.9v.12a1.88,1.88,0,0,1-2.1,2.11h-8C14.77,39.87,14,39,14,37.23Z"/><path class="a" d="M27.88,37.75V26.45c0-1.49.71-2.23,1.87-2.23h.43a2.19,2.19,0,0,1,2.05,1.13l5.29,7.25V26.45c0-1.46.68-2.23,2-2.23h.39c1.25,0,1.92.77,1.92,2.23v11.3c0,1.49-.71,2.23-1.85,2.23H39.6a2.1,2.1,0,0,1-2-1.06l-5.4-7.37v6.19c0,1.46-.68,2.23-2,2.23H29.8C28.55,40,27.88,39.22,27.88,37.75Z"/><path class="a" d="M56.68,36.65H51.91l-.41,1.2C51,39.51,50,40.08,49,40.08c-1.25,0-2.51-1.06-2.35-1.49l4.79-13.06c.23-.77.84-1.32,2.9-1.32s2.6.55,2.83,1.32l5,13c.16.43-1.07,1.54-2.44,1.54-1,0-2-.55-2.62-2.28Zm-4-3.46h3.17l-1.6-4.51Z"/><path class="a" d="M63.18,37.18V27c0-1.73.82-2.66,2.33-2.66h7.2c1.44,0,2.1.67,2.1,1.92v.14c0,1.32-.66,2-2.1,2h-5v2.52h3.44c1.5,0,2.1.67,2.1,1.82v.1c0,1.25-.62,1.94-2.1,1.94H67.83v3c0,1.46-.68,2.23-2,2.23h-.73C63.84,40,63.18,38.93,63.18,37.18Z"/><path class="a" d="M76.11,37.75V26.45c0-1.49.66-2.23,1.91-2.23h.66c1.32,0,2,.74,2,2.23V30h4.72v-3.6c0-1.49.66-2.23,1.92-2.23H88c1.3,0,2,.74,2,2.23v11.3C90,39.22,89.3,40,88,40h-.68c-1.25,0-1.92-.77-1.92-2.23V34.08H80.69v3.67c0,1.46-.68,2.23-2,2.23H78C76.77,40,76.11,39.22,76.11,37.75Z"/><path class="a" d="M101,36.65H96.28l-.41,1.2c-.55,1.66-1.5,2.23-2.49,2.23-1.25,0-2.51-1.06-2.35-1.49l4.79-13.06c.23-.77.84-1.32,2.9-1.32s2.6.55,2.83,1.32l5,13c.16.43-1.07,1.54-2.44,1.54-1,0-2-.55-2.62-2.28Zm-4-3.46h3.17l-1.6-4.51Z"/><path class="a" d="M116.8,36.65H112l-.41,1.2c-.55,1.66-1.5,2.23-2.49,2.23-1.25,0-2.51-1.06-2.35-1.49l4.79-13.06c.23-.77.84-1.32,2.9-1.32s2.6.55,2.83,1.32l5,13c.16.43-1.07,1.54-2.44,1.54-1,0-2-.55-2.62-2.28Zm-4-3.46H116l-1.6-4.51Z"/><path class="a" d="M123.3,37.23V26.45c0-1.51.66-2.23,1.92-2.23h.66c1.3,0,2,.72,2,2.23v9.24h4.49c1.41,0,2.1.67,2.1,2v.07a1.87,1.87,0,0,1-2.1,2.11h-6.72C124.12,39.87,123.3,39,123.3,37.23Z"/><path class="a" d="M135.79,37.75V27c0-1.73.82-2.66,2.33-2.66H142c4.22,0,6.52,1.92,6.52,5.64s-2.21,5.52-6.38,5.52h-1.78v2.26c0,1.42-.68,2.23-2,2.23h-.66C136.5,40,135.79,39.22,135.79,37.75ZM140.31,32H142a1.86,1.86,0,0,0,2.12-2c0-1.3-.75-2-2.19-2h-1.6Z"/><path class="a" d="M149.61,33v-6.6c0-1.49.75-2.23,2-2.23h.57c1.32,0,2,.74,2,2.23v6.62q0,2.88,2.19,2.88c1.48,0,2.17-.91,2.17-2.9v-6.6c0-1.51.75-2.23,2-2.23h.59c1.3,0,2,.72,2,2.23V33c0,4.68-2.3,7.08-6.77,7.08S149.61,37.73,149.61,33Z"/><path class="a" d="M165.07,37.75V26.45c0-1.49.71-2.23,1.87-2.23h.43a2.19,2.19,0,0,1,2.05,1.13l5.29,7.25V26.45c0-1.46.68-2.23,2-2.23h.39c1.25,0,1.92.77,1.92,2.23v11.3c0,1.49-.71,2.23-1.85,2.23h-.36a2.1,2.1,0,0,1-2-1.06l-5.4-7.37v6.19c0,1.46-.68,2.23-2,2.23H167C165.73,40,165.07,39.22,165.07,37.75Z"/><path class="a" d="M180.19,26.4v-.07c0-1.32.73-2,2.1-2h9.46c1.41,0,2.12.67,2.12,2v.07a1.89,1.89,0,0,1-2.12,2.11h-2.39v9.24c0,1.46-.73,2.23-2.05,2.23h-.64c-1.25,0-1.89-.77-1.89-2.23V28.51h-2.49A1.89,1.89,0,0,1,180.19,26.4Z"/><path class="a" d="M32.22,61.75V50.45c0-1.49.66-2.23,1.92-2.23h.66c1.3,0,2,.74,2,2.23v11.3c0,1.46-.68,2.23-2,2.23h-.66C32.88,64,32.22,63.22,32.22,61.75Z"/><path class="a" d="M38.92,61.75V50.45c0-1.49.71-2.23,1.87-2.23h.43a2.19,2.19,0,0,1,2.05,1.13l5.29,7.25V50.45c0-1.46.68-2.23,2-2.23h.39c1.25,0,1.92.77,1.92,2.23v11.3c0,1.49-.71,2.23-1.85,2.23h-.36a2.1,2.1,0,0,1-2-1.06l-5.4-7.37v6.19c0,1.46-.68,2.23-2,2.23h-.39C39.58,64,38.92,63.22,38.92,61.75Z"/><path class="a" d="M57.91,61.1a2.38,2.38,0,0,1,1.5-2.4,3.3,3.3,0,0,0,2.69,1.42c1.41,0,2-.65,2-2.5V50.45c0-1.49.68-2.23,1.94-2.23h.66c1.3,0,2,.74,2,2.23V57.7c0,4.46-2,6.5-5.88,6.5C59.62,64.2,57.91,63,57.91,61.1Z"/><path class="a" d="M70.79,61.23V51c0-1.73.82-2.66,2.33-2.66H81a1.85,1.85,0,0,1,2.12,2v.12c0,1.32-.66,2-2.12,2H75.35V54h3.74c1.5,0,2.12.67,2.12,1.85V56c0,1.25-.64,2-2.12,2H75.35v1.8h5.72c1.44,0,2.1.65,2.1,1.9v.12a1.88,1.88,0,0,1-2.1,2.11h-8C71.61,63.87,70.79,63,70.79,61.23Z"/><path class="a" d="M88.51,61.18V51c0-1.73.82-2.66,2.33-2.66h5.29c3.46,0,5.33,1.39,5.33,3.89a3.09,3.09,0,0,1-2.69,3.24A3.79,3.79,0,0,1,102,59.38c0,3.12-1.89,4.49-6.41,4.49H90.83C89.33,63.87,88.51,62.93,88.51,61.18Zm6.25-6.58c1.34,0,2-.53,2-1.49s-.66-1.37-1.94-1.37H93V54.6ZM95,60.43c1.6,0,2.26-.46,2.26-1.58s-.68-1.46-2.3-1.46H93v3Z"/><path class="a" d="M103.4,57v-6.6c0-1.49.75-2.23,2-2.23H106c1.32,0,2,.74,2,2.23v6.62Q108,60,110.17,60c1.48,0,2.17-.91,2.17-2.9v-6.6c0-1.51.75-2.23,2-2.23h.59c1.3,0,2,.72,2,2.23V57c0,4.68-2.3,7.08-6.77,7.08S103.4,61.73,103.4,57Z"/><path class="a" d="M118.79,57v-6.6c0-1.49.75-2.23,2-2.23h.57c1.32,0,2,.74,2,2.23v6.62q0,2.88,2.19,2.88c1.48,0,2.17-.91,2.17-2.9v-6.6c0-1.51.75-2.23,2-2.23h.59c1.3,0,2,.72,2,2.23V57c0,4.68-2.3,7.08-6.77,7.08S118.79,61.73,118.79,57Z"/><path class="a" d="M141.72,61.95,139.63,59h-.82v2.74c0,1.44-.68,2.23-2,2.23h-.64c-1.25,0-1.92-1-1.92-2.78V51c0-1.73.82-2.66,2.33-2.66h4.56c4.1,0,6.15,1.78,6.15,5.09A4.41,4.41,0,0,1,144.09,58l3.33,4.34c.14.19-.66,1.66-2.62,1.66C143.39,64,142.68,63.34,141.72,61.95Zm-3-6.34h1.91c1.37,0,2.05-.65,2.05-1.8S142,52,140.61,52h-1.87Z"/><path class="a" d="M148.08,50.4v-.07c0-1.32.73-2,2.1-2h9.46c1.41,0,2.12.67,2.12,2v.07a1.89,1.89,0,0,1-2.12,2.11h-2.39v9.24c0,1.46-.73,2.23-2.05,2.23h-.64c-1.25,0-1.89-.77-1.89-2.23V52.51h-2.49A1.89,1.89,0,0,1,148.08,50.4Z"/></svg>