<svg xmlns="http://www.w3.org/2000/svg" width="179.15" height="72.9" viewBox="0 0 179.15 72.9"><defs><style>.a{fill:#b8d445;}.b{fill:#006365;}</style></defs><title>auto-zonder-koffer</title><path class="a" d="M161.14,62.33c7.89-3.55,9.41-6.62,11.24-8.73,2.08-2.39,2.45-4.94,1.18-8.88-.19-.59-5.47-16.13-35.94-17.71h-.9l-.67-.58C119.82,12.36,101.79,5.24,82.44,5.24,55.23,5.24,31.06,19.58,17.51,33l-.23.23-.29.16A70.75,70.75,0,0,0,6,41.85c-.76,4-1.36,9.2.46,11.39a5,5,0,0,0,3.18,1.55l5,5.32,31.76,2.13Z"/><path class="b" d="M30.87,51.6a8.06,8.06,0,1,0,0,16.09,8.06,8.06,0,1,0,0-16.09m0,21.29a13.26,13.26,0,0,1-1-26.5q.51,0,1,0a13.26,13.26,0,1,1,1,26.5q-.51,0-1,0"/><path class="b" d="M44.69,28.53H65.12V17.73c-5.76,1.34-14.65,5-20.39,10.8m25.6,5.21H34.63l2.46-4C44.3,18.1,60.93,12.74,67.42,12l2.87-.3V31.11Zm9.81-4.83c6.48,0,13,.15,19.35.28s12.83.25,19.27.28V25.54c-10.28-8.12-22.81-9.85-31.62-9.85a67.82,67.82,0,0,0-7,.36ZM124,34.68h-2.6c-7.34,0-14.77-.15-22-.29s-14.58-.28-21.85-.28h-2.6V11.48l2.25-.31a72.64,72.64,0,0,1,10-.69c9.95,0,24.25,2,35.9,11.82l.93.78ZM51.49,57h72.32c1.21-13,11.47-19.8,21.61-19.8,9.44,0,19.55,6.15,20.79,19.57,2.85-.45,4.92-1.55,6.17-3.25,2.58-3.51,1.2-8.83,1.18-8.88-.19-.59-5.47-16.13-35.94-17.71h-.9l-.67-.58C119.83,12.32,101.8,5.24,82.45,5.24c-27.21,0-51.38,14.3-64.93,27.7l-.24.23-.29.16A70.75,70.75,0,0,0,6,41.81c-.73,4-1.34,9.19.48,11.39a5,5,0,0,0,3.16,1.55c1.31-11.88,11-18.07,20.66-18.07S50.36,43.08,51.51,57m109.65,5.29V59.65c0-11.88-7.89-17.19-15.72-17.19-8.21,0-16.52,5.91-16.52,17.19v2.59H46.39v-2.6c0-12.27-8.1-17.76-16.12-17.76-7.52,0-15.64,4.91-15.64,15.65v2.59H11.89c-4.38,0-7.48-1.18-9.48-3.6C-.86,52.52-.22,46.28,1,40.08l0-.27.1-.25C1.71,38.13,9.16,31.91,14,29,28.37,14.94,53.77,0,82.4,0c20.35,0,39.3,7.34,56.33,21.81,33.67,2.07,39.6,20.63,39.84,21.43.1.36,2.12,7.82-2,13.41-2.59,3.53-6.89,5.41-12.76,5.6Z"/><path class="b" d="M145.76,51.6a8.06,8.06,0,1,0,8.52,8,8.31,8.31,0,0,0-8.52-8m0,21.29a13.26,13.26,0,1,1,13.73-13.25,13.51,13.51,0,0,1-13.73,13.25"/><path class="a" d="M145.76,51.6a8.06,8.06,0,1,0,8.52,8,8.31,8.31,0,0,0-8.52-8"/><path class="a" d="M30.87,51.6a8.06,8.06,0,1,0,0,16.08,8.06,8.06,0,1,0,0-16.08"/></svg>