<svg xmlns="http://www.w3.org/2000/svg" width="131" height="52.91" viewBox="0 0 131 52.91"><defs><style>.a{fill:#006365;}.b{fill:#fff;}</style></defs><title>F11-btn</title><path class="a" d="M9.91,0S0,0,0,9.91V43s0,9.91,9.91,9.91H121.09S131,52.91,131,43V9.91S131,0,121.09,0Z"/><path class="b" d="M16.34,11.38v-.07c0-1.19.69-1.8,2-1.8h9c1.34,0,2,.61,2,1.8v.07c0,1.24-.67,1.91-2,1.91H25.06v8.35a1.78,1.78,0,0,1-2,2H22.5c-1.19,0-1.8-.69-1.8-2V13.28H18.34A1.75,1.75,0,0,1,16.34,11.38Z"/><path class="b" d="M30.54,21.15V11.92c0-1.56.78-2.41,2.21-2.41h7.46c1.39,0,2,.69,2,1.82v.11c0,1.19-.63,1.82-2,1.82H34.88v1.41h3.56c1.43,0,2,.61,2,1.67v.06c0,1.13-.61,1.78-2,1.78H34.88v1.63h5.44c1.37,0,2,.59,2,1.71v.11a1.74,1.74,0,0,1-2,1.91H32.75C31.32,23.54,30.54,22.74,30.54,21.15Z"/><path class="b" d="M43.31,21a2.72,2.72,0,0,1,1.43-2.06,7,7,0,0,0,4.16,1.63c1.34,0,2-.39,2-1.11,0-.87-1.11-.87-2.52-1.17-2.34-.48-4.71-1.47-4.71-4.38s2.13-4.66,6-4.66c3.69,0,5.29,1.28,5.29,2.67A2.81,2.81,0,0,1,53.37,14a5.81,5.81,0,0,0-3.71-1.52c-1.26,0-1.89.39-1.89,1.08s1.13.76,2.6,1.08c2.75.61,4.86,1.8,4.86,4.38,0,3.06-2.1,4.77-6.33,4.77S43.31,22.43,43.31,21Z"/><path class="b" d="M55.86,11.38v-.07c0-1.19.69-1.8,2-1.8h9c1.34,0,2,.61,2,1.8v.07c0,1.24-.67,1.91-2,1.91H64.58v8.35a1.78,1.78,0,0,1-2,2H62c-1.19,0-1.8-.69-1.8-2V13.28H57.86A1.75,1.75,0,0,1,55.86,11.38Z"/><path class="b" d="M73.75,21.63V11.42c0-1.34.63-2,1.82-2h.63c1.26,0,1.91.67,1.91,2v3.25H82.6V11.42c0-1.34.63-2,1.82-2h.65c1.24,0,1.89.67,1.89,2V21.63c0,1.32-.65,2-1.89,2h-.65c-1.19,0-1.82-.69-1.82-2V18.31H78.11v3.32c0,1.32-.65,2-1.91,2h-.63C74.38,23.65,73.75,23,73.75,21.63Z"/><path class="b" d="M88.93,21.15V11.92c0-1.56.78-2.41,2.21-2.41H98.6c1.39,0,2,.69,2,1.82v.11c0,1.19-.63,1.82-2,1.82H93.26v1.41h3.56c1.43,0,2,.61,2,1.67v.06c0,1.13-.61,1.78-2,1.78H93.26v1.63H98.7c1.37,0,2,.59,2,1.71v.11a1.74,1.74,0,0,1-2,1.91H91.14C89.71,23.54,88.93,22.74,88.93,21.15Z"/><path class="b" d="M101.65,11.38v-.07c0-1.19.69-1.8,2-1.8h9c1.34,0,2,.61,2,1.8v.07c0,1.24-.67,1.91-2,1.91h-2.28v8.35a1.78,1.78,0,0,1-2,2h-.61c-1.19,0-1.8-.69-1.8-2V13.28h-2.36A1.75,1.75,0,0,1,101.65,11.38Z"/><path class="b" d="M48.3,43.31V33.1c0-1.34.67-2,1.78-2h.41a2.11,2.11,0,0,1,2,1l5,6.55V33.1c0-1.32.65-2,1.89-2h.37c1.19,0,1.82.69,1.82,2V43.31c0,1.34-.67,2-1.76,2h-.35a2,2,0,0,1-1.93-1l-5.14-6.66v5.59c0,1.32-.65,2-1.89,2h-.37C48.93,45.33,48.3,44.63,48.3,43.31Z"/><path class="b" d="M63.47,39.06v-6a1.77,1.77,0,0,1,1.91-2h.54c1.26,0,1.91.67,1.91,2v6q0,2.6,2.08,2.6c1.41,0,2.06-.82,2.06-2.62v-6a1.76,1.76,0,0,1,1.91-2h.56c1.24,0,1.89.65,1.89,2v6c0,4.23-2.19,6.4-6.44,6.4S63.47,43.29,63.47,39.06Z"/><path class="b" d="M79.21,39.23l-1.11-5.66a2,2,0,0,1,2.06-2.65h.54c1.67,0,2.58,1,2.17,2.65l-1.11,5.66c-.24.89-.52,1.3-1.11,1.3h-.41C79.71,40.54,79.45,40.12,79.21,39.23Zm-.76,4.4v-.35a1.54,1.54,0,0,1,1.76-1.76h.5c1.24,0,1.8.56,1.8,1.76v.35c0,1.19-.56,1.76-1.8,1.76h-.5A1.54,1.54,0,0,1,78.45,43.64Z"/></svg>