<svg xmlns="http://www.w3.org/2000/svg" width="115.73" height="88.2" viewBox="0 0 115.73 88.2"><defs><style>.a{fill:#fff;}</style></defs><title>F2-H1</title><path class="a" d="M21.14,13.22V3A2.35,2.35,0,0,1,23.51.34h3.9c4.86,0,7.84,3,7.84,7.68s-3.08,7.85-7.93,7.85H23.67A2.57,2.57,0,0,1,21.14,13.22Zm6.06-1.44c2.14,0,3.53-1.37,3.53-3.74s-1.35-3.62-3.46-3.62H25.65v7.37Z"/><path class="a" d="M36.3,8.09C36.3,3.38,39.56,0,44.09,0s7.77,3.36,7.77,8.09-3.24,8.11-7.77,8.11S36.3,12.84,36.3,8.09Zm11.06,0c0-2.28-1.3-3.84-3.26-3.84s-3.28,1.49-3.28,3.84,1.3,3.82,3.28,3.82S47.35,10.39,47.35,8.09Z"/><path class="a" d="M53.4,13.22V3c0-1.73.82-2.66,2.33-2.66h7.84a1.85,1.85,0,0,1,2.12,2v.12c0,1.32-.66,2-2.12,2H58V6h3.74c1.5,0,2.12.67,2.12,1.85V8c0,1.25-.64,2-2.12,2H58v1.8h5.72c1.44,0,2.1.65,2.1,1.9v.12a1.88,1.88,0,0,1-2.1,2.11h-8C54.22,15.87,53.4,15,53.4,13.22Z"/><path class="a" d="M70.41,13.11a2.38,2.38,0,0,1,1.51-2.4,3.3,3.3,0,0,0,2.69,1.42c1.41,0,2-.65,2-2.5V2.45c0-1.49.68-2.23,1.94-2.23h.66c1.3,0,2,.74,2,2.23V9.7c0,4.46-2,6.5-5.88,6.5C72.12,16.2,70.41,15,70.41,13.11Z"/><path class="a" d="M83.26,13.22V3c0-1.73.82-2.66,2.33-2.66h7.84a1.85,1.85,0,0,1,2.12,2v.12c0,1.32-.66,2-2.12,2H87.82V6h3.74c1.5,0,2.12.67,2.12,1.85V8c0,1.25-.64,2-2.12,2H87.82v1.8h5.72c1.44,0,2.1.65,2.1,1.9v.12a1.88,1.88,0,0,1-2.1,2.11h-8C84.08,15.87,83.26,15,83.26,13.22Z"/><path class="a" d="M22,37.18V27c0-1.73.82-2.66,2.33-2.66h5.29c3.47,0,5.33,1.39,5.33,3.89a3.09,3.09,0,0,1-2.69,3.24,3.79,3.79,0,0,1,3.21,3.91c0,3.12-1.89,4.49-6.41,4.49H24.3C22.8,39.87,22,38.93,22,37.18Zm6.25-6.58c1.35,0,2-.53,2-1.49s-.66-1.37-1.94-1.37H26.47V30.6Zm.27,5.83c1.6,0,2.26-.46,2.26-1.58s-.68-1.46-2.3-1.46h-2v3Z"/><path class="a" d="M36.46,32.09c0-4.71,3.26-8.09,7.8-8.09S52,27.36,52,32.09s-3.24,8.11-7.77,8.11S36.46,36.84,36.46,32.09Zm11.06,0c0-2.28-1.3-3.84-3.26-3.84S41,29.74,41,32.09s1.3,3.82,3.28,3.82S47.51,34.39,47.51,32.09Z"/><path class="a" d="M53.08,32.09c0-4.71,3.26-8.09,7.8-8.09s7.77,3.36,7.77,8.09-3.24,8.11-7.77,8.11S53.08,36.84,53.08,32.09Zm11.06,0c0-2.28-1.3-3.84-3.26-3.84s-3.28,1.49-3.28,3.84,1.3,3.82,3.28,3.82S64.13,34.39,64.13,32.09Z"/><path class="a" d="M70.18,37.22V27a2.35,2.35,0,0,1,2.37-2.66h3.9c4.86,0,7.84,3,7.84,7.68s-3.08,7.85-7.93,7.85H72.71A2.57,2.57,0,0,1,70.18,37.22Zm6.06-1.44c2.14,0,3.53-1.37,3.53-3.74s-1.34-3.63-3.46-3.63H74.69v7.37Z"/><path class="a" d="M85.36,32.66v-.74a1.66,1.66,0,0,1,1.73-1.73H93a1.64,1.64,0,0,1,1.73,1.73v.74A1.63,1.63,0,0,1,93,34.39H87.1A1.65,1.65,0,0,1,85.36,32.66Z"/><path class="a" d="M0,61a3,3,0,0,1,1.5-2.28,7.12,7.12,0,0,0,4.38,1.8c1.41,0,2.05-.43,2.05-1.22,0-1-1.16-1-2.64-1.3C2.83,57.48.34,56.38.34,53.16S2.58,48,6.63,48c3.88,0,5.56,1.42,5.56,3a3.09,3.09,0,0,1-1.62,2.4,6,6,0,0,0-3.9-1.68c-1.32,0-2,.43-2,1.2s1.19.84,2.74,1.2c2.9.67,5.11,2,5.11,4.85,0,3.38-2.21,5.28-6.66,5.28S0,62.64,0,61Z"/><path class="a" d="M13.54,56.09c0-4.71,3.15-8.09,7.75-8.09,4.17,0,5.79,2.3,5.79,3.79,0,2-2.55,2.5-2.62,2.35a3.13,3.13,0,0,0-2.92-1.75c-1.89,0-3.31,1.44-3.31,3.7s1.44,3.72,3.31,3.72a3,3,0,0,0,3-1.87c.07-.14,2.64.34,2.64,2.35,0,1.51-1.64,3.91-5.88,3.91C16.67,64.2,13.54,60.84,13.54,56.09Z"/><path class="a" d="M28.64,61.75V50.45c0-1.49.66-2.23,1.91-2.23h.66c1.32,0,2,.74,2,2.23V54h4.72v-3.6c0-1.49.66-2.23,1.92-2.23h.68c1.3,0,2,.74,2,2.23v11.3c0,1.46-.68,2.23-2,2.23h-.68c-1.25,0-1.92-.77-1.92-2.23V58.08H33.22v3.67c0,1.46-.68,2.23-2,2.23h-.66C29.3,64,28.64,63.22,28.64,61.75Z"/><path class="a" d="M53.6,60.65H48.84l-.41,1.2c-.55,1.66-1.5,2.23-2.48,2.23-1.25,0-2.51-1.06-2.35-1.49l4.79-13.06c.23-.77.84-1.32,2.9-1.32s2.6.55,2.83,1.32l5,13c.16.43-1.07,1.54-2.44,1.54-1,0-2-.55-2.62-2.28Zm-4-3.46h3.17l-1.6-4.51Z"/><path class="a" d="M60.1,61.75V51c0-1.73.82-2.66,2.33-2.66h3.9c4.22,0,6.52,1.92,6.52,5.64s-2.21,5.52-6.38,5.52H64.68v2.26c0,1.42-.68,2.23-2,2.23H62C60.81,64,60.1,63.22,60.1,61.75ZM64.61,56h1.66a1.86,1.86,0,0,0,2.12-2c0-1.3-.75-2-2.19-2h-1.6Z"/><path class="a" d="M74,61.75V51c0-1.73.82-2.66,2.33-2.66h3.9c4.22,0,6.52,1.92,6.52,5.64s-2.21,5.52-6.38,5.52H78.57v2.26c0,1.42-.68,2.23-2,2.23H75.9C74.69,64,74,63.22,74,61.75ZM78.5,56h1.66a1.86,1.86,0,0,0,2.12-2c0-1.3-.75-2-2.19-2H78.5Z"/><path class="a" d="M87.87,61.22V51c0-1.73.82-2.66,2.33-2.66H98a1.85,1.85,0,0,1,2.12,2v.12c0,1.32-.66,2-2.12,2H92.43V54h3.74c1.5,0,2.12.67,2.12,1.85V56c0,1.25-.64,2-2.12,2H92.43v1.8h5.72c1.44,0,2.1.65,2.1,1.9v.12a1.88,1.88,0,0,1-2.1,2.11h-8C88.69,63.87,87.87,63,87.87,61.22Z"/><path class="a" d="M101.8,61.75V50.45c0-1.49.71-2.23,1.87-2.23h.43a2.19,2.19,0,0,1,2.05,1.13l5.29,7.25V50.45c0-1.46.68-2.23,2-2.23h.39c1.25,0,1.91.77,1.91,2.23v11.3c0,1.49-.71,2.23-1.85,2.23h-.37a2.1,2.1,0,0,1-2-1.06l-5.4-7.37v6.19c0,1.46-.68,2.23-2,2.23h-.39C102.46,64,101.8,63.22,101.8,61.75Z"/><path class="a" d="M17.81,80.09c0-4.71,3.26-8.09,7.8-8.09s7.77,3.36,7.77,8.09S30.14,88.2,25.6,88.2,17.81,84.84,17.81,80.09Zm11.06,0c0-2.28-1.3-3.84-3.26-3.84s-3.28,1.49-3.28,3.84,1.3,3.82,3.28,3.82S28.86,82.39,28.86,80.09Z"/><path class="a" d="M34.91,85.75V74.45c0-1.49.71-2.23,1.87-2.23h.43a2.19,2.19,0,0,1,2.05,1.13l5.29,7.25V74.45c0-1.46.68-2.23,2-2.23h.39c1.25,0,1.92.77,1.92,2.23v11.3c0,1.49-.71,2.23-1.85,2.23h-.36a2.1,2.1,0,0,1-2-1.06l-5.4-7.37v6.19c0,1.46-.68,2.23-2,2.23h-.39C35.57,88,34.91,87.22,34.91,85.75Z"/><path class="a" d="M50.84,85.22V74.45c0-1.51.66-2.23,1.91-2.23h.66c1.3,0,2,.72,2,2.23v9.24h4.49c1.41,0,2.1.67,2.1,2v.07a1.87,1.87,0,0,1-2.1,2.11H53.17C51.66,87.87,50.84,87,50.84,85.22Z"/><path class="a" d="M63.5,85.75V74.45c0-1.49.66-2.23,1.91-2.23h.66c1.3,0,2,.74,2,2.23v11.3c0,1.46-.68,2.23-2,2.23h-.66C64.16,88,63.5,87.22,63.5,85.75Z"/><path class="a" d="M70.2,85.75V74.45c0-1.49.71-2.23,1.87-2.23h.43a2.19,2.19,0,0,1,2.05,1.13l5.29,7.25V74.45c0-1.46.68-2.23,2-2.23h.39c1.25,0,1.92.77,1.92,2.23v11.3c0,1.49-.71,2.23-1.85,2.23h-.37a2.1,2.1,0,0,1-2-1.06l-5.4-7.37v6.19c0,1.46-.68,2.23-2,2.23h-.39C70.86,88,70.2,87.22,70.2,85.75Z"/><path class="a" d="M86.14,85.22V75c0-1.73.82-2.66,2.32-2.66H96.3a1.85,1.85,0,0,1,2.12,2v.12c0,1.32-.66,2-2.12,2H90.7V78h3.74c1.5,0,2.12.67,2.12,1.85V80c0,1.25-.64,2-2.12,2H90.7v1.8h5.72c1.44,0,2.1.65,2.1,1.9v.12a1.88,1.88,0,0,1-2.1,2.11h-8C87,87.87,86.14,87,86.14,85.22Z"/></svg>