<svg xmlns="http://www.w3.org/2000/svg" width="116.87" height="87.87" viewBox="0 0 116.87 87.87"><defs><style>.a{fill:#fff;}</style></defs><title>F3-H1</title><path class="a" d="M41.79,13.95,38.3,1.68A2.93,2.93,0,0,1,41.15,0c.91,0,2.14.53,2.51,2.57l1.23,6.7,1.55-6.07a2.31,2.31,0,0,1,2.51-1.75,2.37,2.37,0,0,1,2.44,1.75l1.55,6.07,1.23-6.77C54.49.67,55.58,0,56.65,0a2.67,2.67,0,0,1,2.67,1.63L56,13.95c-.34,1.37-1.28,1.85-2.69,1.85a2.4,2.4,0,0,1-2.69-1.85L48.86,7.54l-1.71,6.41a2.42,2.42,0,0,1-2.71,1.85C43,15.79,42.16,15.39,41.79,13.95Z"/><path class="a" d="M61.15,13.54V2.23C61.15.74,61.81,0,63.06,0h.66c1.3,0,2,.74,2,2.23v11.3c0,1.46-.68,2.23-2,2.23h-.66C61.81,15.77,61.15,15,61.15,13.54Z"/><path class="a" d="M67.15,12.89a2.38,2.38,0,0,1,1.5-2.4,3.3,3.3,0,0,0,2.69,1.42c1.41,0,2-.65,2-2.5V2.23C73.32.74,74,0,75.26,0h.66c1.3,0,2,.74,2,2.23V9.48c0,4.46-2,6.5-5.88,6.5C68.86,16,67.15,14.81,67.15,12.89Z"/><path class="a" d="M0,37.75v-.22a3.52,3.52,0,0,1,1.21-2.76l5.61-6.7H2.19c-1.32,0-2-.5-2-1.87V26c0-1.32.68-1.87,2-1.87h8.25c1.66,0,2.33.94,2.33,1.87v.24A3.51,3.51,0,0,1,11.56,29l-5.72,6.7H10.9c1.32,0,2,.53,2,1.9v.19c0,1.32-.68,1.9-2,1.9H2.3C.66,39.65,0,38.69,0,37.75Z"/><path class="a" d="M14.41,37V26.78c0-1.73.82-2.66,2.33-2.66h7.84a1.85,1.85,0,0,1,2.12,2v.12c0,1.32-.66,2-2.12,2H19v1.56h3.74c1.5,0,2.12.67,2.12,1.85v.07c0,1.25-.64,2-2.12,2H19v1.8h5.72c1.44,0,2.1.65,2.1,1.9v.12a1.88,1.88,0,0,1-2.1,2.11h-8C15.23,39.65,14.41,38.76,14.41,37Z"/><path class="a" d="M27.68,26.18v-.07c0-1.32.73-2,2.1-2h9.46c1.41,0,2.12.67,2.12,2v.07a1.89,1.89,0,0,1-2.12,2.11H36.84v9.24c0,1.46-.73,2.23-2.05,2.23h-.64c-1.25,0-1.89-.77-1.89-2.23V28.3H29.78A1.89,1.89,0,0,1,27.68,26.18Z"/><path class="a" d="M41.91,26.18v-.07c0-1.32.73-2,2.1-2h9.46c1.41,0,2.12.67,2.12,2v.07a1.89,1.89,0,0,1-2.12,2.11H51.07v9.24c0,1.46-.73,2.23-2.05,2.23h-.64c-1.25,0-1.89-.77-1.89-2.23V28.3H44A1.89,1.89,0,0,1,41.91,26.18Z"/><path class="a" d="M56.75,37V26.78c0-1.73.82-2.66,2.32-2.66h7.84a1.85,1.85,0,0,1,2.12,2v.12c0,1.32-.66,2-2.12,2H61.31v1.56H65c1.5,0,2.12.67,2.12,1.85v.07c0,1.25-.64,2-2.12,2H61.31v1.8H67c1.44,0,2.1.65,2.1,1.9v.12A1.88,1.88,0,0,1,67,39.65h-8C57.57,39.65,56.75,38.76,56.75,37Z"/><path class="a" d="M70.7,37.54V26.23c0-1.49.71-2.23,1.87-2.23H73a2.19,2.19,0,0,1,2.05,1.13l5.29,7.25V26.23c0-1.46.68-2.23,2-2.23h.39c1.25,0,1.92.77,1.92,2.23v11.3c0,1.49-.71,2.23-1.85,2.23h-.37a2.1,2.1,0,0,1-2-1.06L75,31.34v6.19c0,1.46-.68,2.23-2,2.23h-.39C71.36,39.77,70.7,39,70.7,37.54Z"/><path class="a" d="M90.08,37.75v-.22a3.52,3.52,0,0,1,1.21-2.76l5.61-6.7H92.27c-1.32,0-2-.5-2-1.87V26c0-1.32.68-1.87,2-1.87h8.25c1.66,0,2.33.94,2.33,1.87v.24A3.51,3.51,0,0,1,101.64,29l-5.72,6.7H101c1.32,0,2,.53,2,1.9v.19c0,1.32-.68,1.9-2,1.9H92.38C90.74,39.65,90.08,38.69,90.08,37.75Z"/><path class="a" d="M104.49,37V26.78c0-1.73.82-2.66,2.33-2.66h7.84a1.85,1.85,0,0,1,2.12,2v.12c0,1.32-.66,2-2.12,2h-5.61v1.56h3.74c1.5,0,2.12.67,2.12,1.85v.07c0,1.25-.64,2-2.12,2h-3.74v1.8h5.72c1.44,0,2.1.65,2.1,1.9v.12a1.88,1.88,0,0,1-2.1,2.11h-8C105.31,39.65,104.49,38.76,104.49,37Z"/><path class="a" d="M17.49,50.23,19.79,58l2.28-7.73A2.62,2.62,0,0,1,24.51,48c1.48,0,2.9,1.2,2.71,1.66L22.37,62a2.5,2.5,0,0,1-2.64,1.8,2.41,2.41,0,0,1-2.6-1.8l-5-12.31C11.95,49.2,13.45,48,15,48A2.77,2.77,0,0,1,17.49,50.23Z"/><path class="a" d="M27.38,55.87c0-4.7,3.26-8.09,7.8-8.09S43,51.14,43,55.87,39.72,64,35.18,64,27.38,60.63,27.38,55.87Zm11.06,0c0-2.28-1.3-3.84-3.26-3.84s-3.28,1.49-3.28,3.84,1.3,3.82,3.28,3.82S38.44,58.18,38.44,55.87Z"/><path class="a" d="M44,55.87c0-4.7,3.26-8.09,7.8-8.09s7.77,3.36,7.77,8.09S56.34,64,51.8,64,44,60.63,44,55.87Zm11.06,0c0-2.28-1.3-3.84-3.26-3.84s-3.28,1.49-3.28,3.84,1.3,3.82,3.28,3.82S55.06,58.18,55.06,55.87Z"/><path class="a" d="M68.58,61.73l-2.1-2.93h-.82v2.74c0,1.44-.68,2.23-2,2.23H63c-1.25,0-1.92-1-1.92-2.78V50.78c0-1.73.82-2.66,2.33-2.66H68c4.1,0,6.15,1.78,6.15,5.09A4.41,4.41,0,0,1,71,57.77l3.33,4.34c.14.19-.66,1.66-2.62,1.66C70.25,63.77,69.54,63.12,68.58,61.73Zm-3-6.34h1.91c1.37,0,2.05-.65,2.05-1.8s-.66-1.82-2.1-1.82H65.59Z"/><path class="a" d="M78.86,60.89a2.38,2.38,0,0,1,1.5-2.4,3.3,3.3,0,0,0,2.69,1.42c1.41,0,2-.65,2-2.5V50.23C85,48.74,85.73,48,87,48h.66c1.3,0,2,.74,2,2.23v7.25c0,4.46-2,6.5-5.88,6.5C80.57,64,78.86,62.81,78.86,60.89Z"/><path class="a" d="M91.72,61V50.78c0-1.73.82-2.66,2.33-2.66h7.84a1.85,1.85,0,0,1,2.12,2v.12c0,1.32-.66,2-2.12,2H96.28v1.56H100c1.5,0,2.12.67,2.12,1.85v.07c0,1.25-.64,2-2.12,2H96.28v1.8H102c1.44,0,2.1.65,2.1,1.9v.12a1.88,1.88,0,0,1-2.1,2.11H94C92.54,63.65,91.72,62.76,91.72,61Z"/><path class="a" d="M22.46,85.54V74.23c0-1.49.66-2.23,1.91-2.23H25c1.3,0,2,.74,2,2.23v4.61l3.56-5.21A3,3,0,0,1,33.08,72c1.55,0,2.74,1.51,2.6,1.8l-4.13,6L35.89,86c.16.29-1.09,1.78-2.76,1.78a2.94,2.94,0,0,1-2.51-1.61L27,80.9v4.63c0,1.46-.68,2.23-2,2.23h-.66C23.12,87.77,22.46,87,22.46,85.54Z"/><path class="a" d="M37.21,85V74.23c0-1.51.66-2.23,1.91-2.23h.66c1.3,0,2,.72,2,2.23v9.24h4.49c1.41,0,2.1.67,2.1,2v.07a1.87,1.87,0,0,1-2.1,2.11H39.53C38,87.65,37.21,86.76,37.21,85Z"/><path class="a" d="M59.23,84.43H54.47l-.41,1.2c-.55,1.66-1.5,2.23-2.48,2.23-1.25,0-2.51-1.06-2.35-1.49L54,73.32c.23-.77.84-1.32,2.9-1.32s2.6.55,2.83,1.32l5,13c.16.43-1.07,1.54-2.44,1.54-1,0-2-.55-2.62-2.28Zm-4-3.46h3.17l-1.6-4.51Z"/><path class="a" d="M75,84.43H70.22l-.41,1.2c-.55,1.66-1.5,2.23-2.49,2.23-1.25,0-2.51-1.06-2.35-1.49l4.79-13.06c.23-.77.84-1.32,2.9-1.32s2.6.55,2.83,1.32l5,13c.16.43-1.07,1.54-2.44,1.54-1,0-2-.55-2.62-2.28ZM71,81h3.17l-1.6-4.51Z"/><path class="a" d="M89,85.73l-2.1-2.93H86v2.74c0,1.44-.68,2.23-2,2.23H83.4c-1.25,0-1.92-1-1.92-2.78V74.78c0-1.73.82-2.66,2.33-2.66h4.56c4.1,0,6.15,1.78,6.15,5.09a4.41,4.41,0,0,1-3.19,4.56l3.33,4.34c.14.19-.66,1.66-2.62,1.66C90.63,87.77,89.92,87.12,89,85.73Zm-3-6.34h1.91c1.37,0,2.05-.65,2.05-1.8s-.66-1.82-2.1-1.82H86Z"/></svg>