<svg xmlns="http://www.w3.org/2000/svg" width="108.03" height="88.13" viewBox="0 0 108.03 88.13"><defs><style>.a{fill:#fff;}</style></defs><title>F4-H1</title><path class="a" d="M30.44,13.75V2.45C30.44,1,31.1.22,32.35.22H33c1.3,0,2,.74,2,2.23V7.06l3.56-5.21A3,3,0,0,1,41.06.22c1.55,0,2.74,1.51,2.6,1.8L39.53,8l4.33,6.24C44,14.5,42.77,16,41.11,16a2.94,2.94,0,0,1-2.51-1.61L35,9.12v4.63c0,1.46-.68,2.23-2,2.23h-.66C31.1,16,30.44,15.22,30.44,13.75Z"/><path class="a" d="M45.35,13.75V2.45C45.35,1,46,.22,47.26.22h.66c1.3,0,2,.74,2,2.23v11.3c0,1.46-.68,2.23-2,2.23h-.66C46,16,45.35,15.22,45.35,13.75Z"/><path class="a" d="M52.05,13.23V3c0-1.73.82-2.66,2.33-2.66h7.84a1.85,1.85,0,0,1,2.12,2v.12c0,1.32-.66,2-2.12,2H56.61V6h3.74c1.5,0,2.12.67,2.12,1.85V8c0,1.25-.64,2-2.12,2H56.61v1.8h5.72c1.44,0,2.1.65,2.1,1.9v.12a1.88,1.88,0,0,1-2.1,2.11h-8C52.87,15.87,52.05,15,52.05,13.23Z"/><path class="a" d="M65.39,13a3,3,0,0,1,1.5-2.28,7.13,7.13,0,0,0,4.38,1.8c1.41,0,2.05-.43,2.05-1.22,0-1-1.16-1-2.64-1.3-2.46-.53-4.95-1.63-4.95-4.85S68,0,72,0c3.88,0,5.56,1.42,5.56,3A3.09,3.09,0,0,1,76,5.35a6,6,0,0,0-3.9-1.68c-1.32,0-2,.43-2,1.2s1.19.84,2.74,1.2c2.89.67,5.11,2,5.11,4.85,0,3.38-2.21,5.28-6.66,5.28S65.39,14.64,65.39,13Z"/><path class="a" d="M28,26.45l2.3,7.73,2.28-7.73A2.62,2.62,0,0,1,35,24.22c1.48,0,2.9,1.2,2.71,1.66L32.83,38.19A2.5,2.5,0,0,1,30.19,40a2.41,2.41,0,0,1-2.6-1.8l-5-12.31c-.18-.46,1.32-1.66,2.83-1.66A2.77,2.77,0,0,1,28,26.45Z"/><path class="a" d="M37.85,32.09c0-4.7,3.26-8.09,7.8-8.09s7.77,3.36,7.77,8.09-3.24,8.11-7.77,8.11S37.85,36.84,37.85,32.09Zm11.06,0c0-2.28-1.3-3.84-3.26-3.84s-3.28,1.49-3.28,3.84,1.3,3.82,3.28,3.82S48.9,34.39,48.9,32.09Z"/><path class="a" d="M54.47,32.09c0-4.7,3.26-8.09,7.8-8.09S70,27.36,70,32.09,66.8,40.2,62.27,40.2,54.47,36.84,54.47,32.09Zm11.06,0c0-2.28-1.3-3.84-3.26-3.84S59,29.74,59,32.09s1.3,3.82,3.28,3.82S65.52,34.39,65.52,32.09Z"/><path class="a" d="M79,37.95,76.95,35h-.82v2.74c0,1.44-.68,2.23-2,2.23h-.64c-1.25,0-1.92-1-1.92-2.78V27c0-1.73.82-2.66,2.33-2.66h4.56c4.1,0,6.15,1.78,6.15,5.09A4.41,4.41,0,0,1,81.42,34l3.33,4.34c.14.19-.66,1.66-2.62,1.66C80.71,40,80,39.34,79,37.95Zm-3-6.34H78c1.37,0,2.05-.65,2.05-1.8S79.36,28,77.93,28H76.06Z"/><path class="a" d="M16.07,50.4v-.07c0-1.32.73-2,2.1-2h9.46c1.41,0,2.12.67,2.12,2v.07a1.89,1.89,0,0,1-2.12,2.11H25.24v9.24c0,1.46-.73,2.23-2.05,2.23h-.64c-1.25,0-1.89-.77-1.89-2.23V52.51H18.17A1.89,1.89,0,0,1,16.07,50.4Z"/><path class="a" d="M30.92,61.75V50.45c0-1.49.66-2.23,1.91-2.23h.66c1.32,0,2,.74,2,2.23V54h4.72v-3.6c0-1.49.66-2.23,1.92-2.23h.68c1.3,0,2,.74,2,2.23v11.3c0,1.46-.68,2.23-2,2.23h-.68c-1.25,0-1.92-.77-1.92-2.23V58.08H35.5v3.67c0,1.46-.68,2.23-2,2.23h-.66C31.58,64,30.92,63.22,30.92,61.75Z"/><path class="a" d="M46.72,57v-6.6c0-1.49.75-2.23,2-2.23h.57c1.32,0,2,.74,2,2.23v6.62Q51.3,60,53.49,60C55,60,55.65,59,55.65,57v-6.6c0-1.51.75-2.23,2-2.23h.59c1.3,0,2,.72,2,2.23V57c0,4.68-2.3,7.08-6.77,7.08S46.72,61.73,46.72,57Z"/><path class="a" d="M62.33,61.75V50.45c0-1.49.66-2.23,1.92-2.23h.66c1.3,0,2,.74,2,2.23v11.3c0,1.46-.68,2.23-2,2.23h-.66C63,64,62.33,63.22,62.33,61.75Z"/><path class="a" d="M68.42,61a3,3,0,0,1,1.5-2.28,7.13,7.13,0,0,0,4.38,1.8c1.41,0,2.05-.43,2.05-1.22,0-1-1.16-1-2.64-1.3-2.46-.53-4.95-1.63-4.95-4.85S71,48,75.06,48c3.88,0,5.56,1.42,5.56,3A3.09,3.09,0,0,1,79,53.35a6,6,0,0,0-3.9-1.68c-1.32,0-2,.43-2,1.2s1.19.84,2.74,1.2c2.89.67,5.11,2,5.11,4.85,0,3.38-2.21,5.28-6.66,5.28S68.42,62.64,68.42,61Z"/><path class="a" d="M0,85.23V74.45c0-1.51.66-2.23,1.91-2.23h.66c1.3,0,2,.72,2,2.23v9.24H9.05c1.41,0,2.1.67,2.1,2v.07a1.87,1.87,0,0,1-2.1,2.11H2.33C.82,87.87,0,87,0,85.23Z"/><path class="a" d="M12.49,85.23V75c0-1.73.82-2.66,2.33-2.66h7.84a1.85,1.85,0,0,1,2.12,2v.12c0,1.32-.66,2-2.12,2H17.05V78h3.74c1.5,0,2.12.67,2.12,1.85V80c0,1.25-.64,2-2.12,2H17.05v1.8h5.72c1.44,0,2.1.65,2.1,1.9v.12a1.88,1.88,0,0,1-2.1,2.11h-8C13.31,87.87,12.49,87,12.49,85.23Z"/><path class="a" d="M31.05,74.45l2.3,7.73,2.28-7.73a2.62,2.62,0,0,1,2.44-2.23c1.48,0,2.9,1.2,2.71,1.66L35.93,86.19A2.5,2.5,0,0,1,33.29,88a2.41,2.41,0,0,1-2.6-1.8l-5-12.31c-.18-.46,1.32-1.66,2.83-1.66A2.77,2.77,0,0,1,31.05,74.45Z"/><path class="a" d="M41.86,85.23V75c0-1.73.82-2.66,2.33-2.66H52a1.85,1.85,0,0,1,2.12,2v.12c0,1.32-.66,2-2.12,2H46.42V78h3.74c1.5,0,2.12.67,2.12,1.85V80c0,1.25-.64,2-2.12,2H46.42v1.8h5.72c1.44,0,2.1.65,2.1,1.9v.12a1.88,1.88,0,0,1-2.1,2.11h-8C42.68,87.87,41.86,87,41.86,85.23Z"/><path class="a" d="M63.29,85.95,61.19,83h-.82v2.74c0,1.44-.68,2.23-2,2.23h-.64c-1.25,0-1.92-1-1.92-2.78V75c0-1.73.82-2.66,2.33-2.66H62.7c4.1,0,6.15,1.78,6.15,5.09A4.41,4.41,0,0,1,65.66,82L69,86.33c.14.19-.66,1.66-2.62,1.66C65,88,64.25,87.34,63.29,85.95Zm-3-6.34h1.91c1.37,0,2.05-.65,2.05-1.8S63.61,76,62.17,76H60.31Z"/><path class="a" d="M70.68,85.75V74.45c0-1.49.66-2.23,1.92-2.23h.66c1.3,0,2,.74,2,2.23v11.3c0,1.46-.68,2.23-2,2.23h-.66C71.34,88,70.68,87.22,70.68,85.75Z"/><path class="a" d="M77.38,85.75V74.45c0-1.49.71-2.23,1.87-2.23h.43a2.19,2.19,0,0,1,2.05,1.13L87,80.59V74.45c0-1.46.68-2.23,2-2.23h.39c1.25,0,1.92.77,1.92,2.23v11.3c0,1.49-.71,2.23-1.85,2.23H89.1a2.1,2.1,0,0,1-2-1.06l-5.4-7.37v6.19c0,1.46-.68,2.23-2,2.23H79.3C78,88,77.38,87.22,77.38,85.75Z"/><path class="a" d="M104.24,86.16a4.85,4.85,0,0,1-4.29,2c-4.26,0-7-3.38-7-8A7.7,7.7,0,0,1,101,72c3.69,0,5.84,1.54,5.84,3.58a2.38,2.38,0,0,1-2.28,2.18,4,4,0,0,0-3.28-1.66c-2.1,0-3.74,1.68-3.74,4.22s1.48,4.2,3.53,4.2c1.6,0,2.67-.77,2.89-2h-1.53c-1.44,0-2.14-.36-2.14-1.66v-.22c0-1.37.71-1.66,2.14-1.66h4c1.32,0,1.6.65,1.57,2v6.5c0,.14-.71.48-1.53.48A2.17,2.17,0,0,1,104.24,86.16Z"/></svg>