<svg xmlns="http://www.w3.org/2000/svg" width="160.75" height="102.52" viewBox="0 0 160.75 102.52"><defs><style>.a{fill:#b8d445;}</style></defs><title>F5-vrachtwagen</title><path class="a" d="M46.72,52.59a3.18,3.18,0,0,1-3.18,3.18H19.09c-2.93,0-4.69-2.31-3.41-4.94,6-12.29,18.37-16.52,23.76-16.52h4.1a3.18,3.18,0,0,1,3.18,3.18Zm108.76,24V6.35A6.36,6.36,0,0,0,149.11,0H60.75a6.36,6.36,0,0,0-6.37,6.35V29.94a5.3,5.3,0,0,0-5-3.57H39.44c-12.7,0-35.05,12.17-35.05,40V76.64A5.3,5.3,0,0,0,0,81.85v.53a5.3,5.3,0,0,0,5.3,5.3h6.5a18,18,0,0,1,35.82,0h62.86a18,18,0,0,1,35-3.51,17.68,17.68,0,0,1,.78,3.51h9.15a5.3,5.3,0,0,0,5.3-5.3v-.53a5.3,5.3,0,0,0-5.27-5.29"/><path class="a" d="M41.39,84.66a12.77,12.77,0,0,0-23.36,0A12.81,12.81,0,0,0,17,89.79a12.76,12.76,0,1,0,24.44-5.12"/><path class="a" d="M139.83,84.16a12.77,12.77,0,0,0-22.89,0,12.61,12.61,0,0,0-1.13,3.51,12.76,12.76,0,1,0,24-3.51"/></svg>