<svg xmlns="http://www.w3.org/2000/svg" width="51.06" height="43.71" viewBox="0 0 51.06 43.71"><defs><style>.a{fill:#b8d445;}</style></defs><title>F6-mandje</title><path class="a" d="M45.3,25,33.66,29.12a4,4,0,0,0-1.07-.85l1.31-3.42a8.14,8.14,0,0,0,.29-3.51l1.15-.46L36,20.7a9.07,9.07,0,0,0-1.57,3.72.89.89,0,0,0,.57.94l.22.06a.89.89,0,0,0,1-.78,7.9,7.9,0,0,1,3.25-4.87l0,0,1.14-.32a12.52,12.52,0,0,1,6.66.07A3,3,0,0,1,49.09,21a1.7,1.7,0,0,1,.05,1.42c-.28.65-1.18,1.61-3.84,2.56m-13,6.91,0,.05-.12.18,0,.06a2.38,2.38,0,0,1-.2.23l-7.53,7.9a5.37,5.37,0,0,1-5.29,1.19L5.37,36.26a5.37,5.37,0,0,1-3.13-4.42L1.93,20.92a1.72,1.72,0,0,1,.58-1.53,1.73,1.73,0,0,1,1.64,0l.41.16,3.66,1.4,1.67.64,10.58,4.06,2.09.8,3.85,1.48,3.85,1.48,1.06.41a1.73,1.73,0,0,1,1.18,1.13,1.41,1.41,0,0,1-.19,1m-27-20.74a2.7,2.7,0,0,1,1.36-.69l.65-.12.43-3.59L6.54,7a5.64,5.64,0,0,1-2.83.16l-.06,0c-.05,0-.06,0-.06-.05s0,0,0-.09S4,6.45,6.06,5.81l1.6-.5L6.36,4.26c-1.43-1.16-2-2-2-2.29,0-.08,0-.11,0-.12a.16.16,0,0,1,.13-.06A1.72,1.72,0,0,1,5.23,2,14,14,0,0,1,8.06,3.65L8.5,4,9,3.74c2-1,2.7-.83,2.82-.79h0c0,.09-.1.45-.79,1.19l-1,1,1.32.44.37.13c.93.35,1.16.64,1.21.72s-.66.56-3.15.38l-.74-.05-1,3.69.57.34a2.66,2.66,0,0,1,1,1,4.39,4.39,0,0,1,.46,2.22,23.28,23.28,0,0,1-1.28,5l-4-1.54a4.48,4.48,0,0,0-.61-.18A27.51,27.51,0,0,1,4,14.28a4.61,4.61,0,0,1,1.35-3.11m6.89,7.2A2.94,2.94,0,0,1,16,16.68l7.44,2.85a5.23,5.23,0,0,0-.58,1.07L21.57,24l-10-3.85Zm11.35,5.39,1-2.5a3.86,3.86,0,0,1,.55-.93A2.94,2.94,0,0,1,26,23.65l-.68,1.76-2.05-.79Zm4.3-6.07c.44-.36,1-.81,1.29-1.12l.49-.49-.36-.6a.43.43,0,0,1,0-.32.56.56,0,0,1,.14-.22l0,0,3.26,1.25a.43.43,0,0,1,0,.32.58.58,0,0,1-.14.22l0,0-.67.2,0,.7c0,.43.12,1.09.2,1.67v0c0,.28.09.57.13.87,0,.15,0,.3.06.45h0c.06.46.1.93.13,1.38a5.64,5.64,0,0,1-.22,2.17l-1.29,3.37L27.09,26.1l.68-1.76a4.87,4.87,0,0,0-1.36-5.41c.48-.44,1-.86,1.46-1.25m22.86,2.63a4.75,4.75,0,0,0-2.79-2.49,14.1,14.1,0,0,0-7.7-.15l-5.42,1.5-.85.34-.07-.46v0c0-.31-.1-.67-.14-1h0a2.36,2.36,0,0,0,.64-.93,2,2,0,0,0-1-2.63l-3.26-1.25a1.83,1.83,0,0,0-1.86.35,2.36,2.36,0,0,0-.64.94,2.33,2.33,0,0,0-.15,1.14l-.78.66c-.62.51-1.31,1.08-1.94,1.69l-8.1-3.11a4.86,4.86,0,0,0-5,1,11.5,11.5,0,0,0,.26-1.65A6.15,6.15,0,0,0,11.26,11a4.48,4.48,0,0,0-1.07-1.33l.26-1c2.62.07,4.07-.57,4.3-1.91.16-.95-.38-1.75-1.63-2.38a2.08,2.08,0,0,0,.18-2.43,1.83,1.83,0,0,0-.86-.67c-.87-.34-2.07-.14-3.75.62A14.1,14.1,0,0,0,5.87.29,3.37,3.37,0,0,0,4.21,0,1.94,1.94,0,0,0,2.89.78a1.93,1.93,0,0,0-.35,1.46c0,.28.16,1,1.54,2.39a4.22,4.22,0,0,0-2,1.47,1.86,1.86,0,0,0,.65,2.61A4.37,4.37,0,0,0,5.36,9a4.6,4.6,0,0,0-1.25.82A6.38,6.38,0,0,0,2.18,14.3a28.26,28.26,0,0,0,.25,3.06,3.06,3.06,0,0,0-1,.46A3.63,3.63,0,0,0,0,21L.32,31.89a7.27,7.27,0,0,0,4.37,6.17l13.7,5.26a7.27,7.27,0,0,0,7.37-1.66l7.53-7.9a3.69,3.69,0,0,0,1.12-3L45.9,26.68c2.66-.94,4.26-2.09,4.88-3.53a3.48,3.48,0,0,0-.05-2.84"/></svg>