<svg xmlns="http://www.w3.org/2000/svg" width="147.21" height="88.2" viewBox="0 0 147.21 88.2"><defs><style>.a{fill:#fff;}</style></defs><title>F5-H1</title><path class="a" d="M33.05,8.09c0-4.7,3.26-8.09,7.8-8.09s7.77,3.36,7.77,8.09-3.24,8.11-7.77,8.11S33.05,12.84,33.05,8.09Zm11.06,0c0-2.28-1.3-3.84-3.26-3.84s-3.28,1.49-3.28,3.84,1.3,3.82,3.28,3.82S44.11,10.39,44.11,8.09Z"/><path class="a" d="M50.15,13.18V3c0-1.73.82-2.66,2.33-2.66h7.2c1.44,0,2.1.67,2.1,1.92V2.4c0,1.32-.66,2-2.1,2h-5V6.91h3.44c1.5,0,2.1.67,2.1,1.82v.1c0,1.25-.62,1.94-2.1,1.94H54.8v3c0,1.46-.68,2.23-2,2.23h-.73C50.81,16,50.15,14.93,50.15,13.18Z"/><path class="a" d="M66.84,13.75V2.45C66.84,1,67.5.22,68.76.22h.66c1.3,0,2,.74,2,2.23V7.06L75,1.85A3,3,0,0,1,77.46.22C79,.22,80.2,1.73,80.06,2L75.94,8l4.33,6.24c.16.29-1.09,1.78-2.76,1.78A2.94,2.94,0,0,1,75,14.38L71.4,9.12v4.63c0,1.46-.68,2.23-2,2.23h-.66C67.5,16,66.84,15.22,66.84,13.75Z"/><path class="a" d="M81.75,13.75V2.45c0-1.49.66-2.23,1.92-2.23h.66c1.3,0,2,.74,2,2.23v11.3c0,1.46-.68,2.23-2,2.23h-.66C82.41,16,81.75,15.22,81.75,13.75Z"/><path class="a" d="M88.45,13.23V3c0-1.73.82-2.66,2.33-2.66h7.84a1.85,1.85,0,0,1,2.12,2v.12c0,1.32-.66,2-2.12,2H93V6h3.74c1.5,0,2.12.67,2.12,1.85V8c0,1.25-.64,2-2.12,2H93v1.8h5.72c1.44,0,2.1.65,2.1,1.9v.12a1.88,1.88,0,0,1-2.1,2.11h-8C89.27,15.87,88.45,15,88.45,13.23Z"/><path class="a" d="M101.79,13a3,3,0,0,1,1.5-2.28,7.13,7.13,0,0,0,4.38,1.8c1.41,0,2.05-.43,2.05-1.22,0-1-1.16-1-2.64-1.3-2.46-.53-4.95-1.63-4.95-4.85S104.37,0,108.43,0C112.3,0,114,1.42,114,3a3.09,3.09,0,0,1-1.62,2.4,6,6,0,0,0-3.9-1.68c-1.32,0-2,.43-2,1.2s1.19.84,2.74,1.2c2.89.67,5.11,2,5.11,4.85,0,3.38-2.21,5.28-6.66,5.28S101.79,14.64,101.79,13Z"/><path class="a" d="M52.68,37.23V27c0-1.73.82-2.66,2.33-2.66h7.84a1.85,1.85,0,0,1,2.12,2v.12c0,1.32-.66,2-2.12,2H57.24V30H61c1.5,0,2.12.67,2.12,1.85V32c0,1.25-.64,2-2.12,2H57.24v1.8H63c1.44,0,2.1.65,2.1,1.9v.12A1.88,1.88,0,0,1,63,39.87H55C53.5,39.87,52.68,39,52.68,37.23Z"/><path class="a" d="M66.64,37.23V27c0-1.73.82-2.66,2.33-2.66H76.8a1.85,1.85,0,0,1,2.12,2v.12c0,1.32-.66,2-2.12,2H71.19V30h3.74c1.5,0,2.12.67,2.12,1.85V32c0,1.25-.64,2-2.12,2H71.19v1.8h5.72c1.44,0,2.1.65,2.1,1.9v.12a1.88,1.88,0,0,1-2.1,2.11H69C67.46,39.87,66.64,39,66.64,37.23Z"/><path class="a" d="M80.59,37.75V26.45c0-1.49.71-2.23,1.87-2.23h.43a2.19,2.19,0,0,1,2.05,1.13l5.29,7.25V26.45c0-1.46.68-2.23,2-2.23h.39c1.25,0,1.92.77,1.92,2.23v11.3c0,1.49-.71,2.23-1.85,2.23h-.37a2.1,2.1,0,0,1-2-1.06l-5.4-7.37v6.19c0,1.46-.68,2.23-2,2.23H82.5C81.25,40,80.59,39.22,80.59,37.75Z"/><path class="a" d="M10,60.65H5.26l-.41,1.2c-.55,1.66-1.5,2.23-2.48,2.23C1.11,64.08-.15,63,0,62.59L4.8,49.54c.23-.77.84-1.32,2.9-1.32s2.6.55,2.83,1.32l5,13c.16.43-1.07,1.54-2.44,1.54-1,0-2-.55-2.62-2.28ZM6,57.19H9.2l-1.6-4.51Z"/><path class="a" d="M16.52,61.18V51c0-1.73.82-2.66,2.33-2.66H26c1.44,0,2.1.67,2.1,1.92v.14c0,1.32-.66,2-2.1,2H21v2.52h3.44c1.5,0,2.1.67,2.1,1.82v.1c0,1.25-.62,1.94-2.1,1.94H21.17v3c0,1.46-.68,2.23-2,2.23h-.73C17.18,64,16.52,62.93,16.52,61.18Z"/><path class="a" d="M29.45,61.75V50.45c0-1.49.66-2.23,1.91-2.23H32c1.32,0,2,.74,2,2.23V54h4.72v-3.6c0-1.49.66-2.23,1.92-2.23h.68c1.3,0,2,.74,2,2.23v11.3c0,1.46-.68,2.23-2,2.23h-.68c-1.25,0-1.92-.77-1.92-2.23V58.08H34v3.67c0,1.46-.68,2.23-2,2.23h-.66C30.11,64,29.45,63.22,29.45,61.75Z"/><path class="a" d="M54.39,60.65H49.63l-.41,1.2c-.55,1.66-1.5,2.23-2.48,2.23-1.25,0-2.51-1.06-2.35-1.49l4.79-13.06c.23-.77.84-1.32,2.9-1.32s2.6.55,2.83,1.32l5,13c.16.43-1.07,1.54-2.44,1.54-1,0-2-.55-2.62-2.28Zm-4-3.46h3.17L52,52.68Z"/><path class="a" d="M70.14,60.65H65.38L65,61.85c-.55,1.66-1.5,2.23-2.48,2.23-1.25,0-2.51-1.06-2.35-1.49l4.79-13.06c.23-.77.84-1.32,2.9-1.32s2.6.55,2.83,1.32l5,13c.16.43-1.07,1.54-2.44,1.54-1,0-2-.55-2.62-2.28Zm-4-3.46h3.17l-1.6-4.51Z"/><path class="a" d="M76.64,61.23V50.45c0-1.51.66-2.23,1.92-2.23h.66c1.3,0,2,.72,2,2.23v9.24h4.49c1.41,0,2.1.67,2.1,2v.07a1.87,1.87,0,0,1-2.1,2.11H79C77.46,63.87,76.64,63,76.64,61.23Z"/><path class="a" d="M89.14,61.75V51c0-1.73.82-2.66,2.33-2.66h3.9c4.22,0,6.52,1.92,6.52,5.64S99.67,59.5,95.5,59.5H93.72v2.26c0,1.42-.68,2.23-2,2.23h-.66C89.84,64,89.14,63.22,89.14,61.75ZM93.65,56h1.66a1.86,1.86,0,0,0,2.12-2c0-1.3-.75-2-2.19-2h-1.6Z"/><path class="a" d="M103,57v-6.6c0-1.49.75-2.23,2-2.23h.57c1.32,0,2,.74,2,2.23v6.62q0,2.88,2.19,2.88c1.48,0,2.17-.91,2.17-2.9v-6.6c0-1.51.75-2.23,2-2.23h.59c1.3,0,2,.72,2,2.23V57c0,4.68-2.3,7.08-6.77,7.08S103,61.73,103,57Z"/><path class="a" d="M118.41,61.75V50.45c0-1.49.71-2.23,1.87-2.23h.43a2.19,2.19,0,0,1,2.05,1.13l5.29,7.25V50.45c0-1.46.68-2.23,2-2.23h.39c1.25,0,1.92.77,1.92,2.23v11.3c0,1.49-.71,2.23-1.85,2.23h-.36a2.1,2.1,0,0,1-2-1.06l-5.4-7.37v6.19c0,1.46-.68,2.23-2,2.23h-.39C119.07,64,118.41,63.22,118.41,61.75Z"/><path class="a" d="M133.53,50.4v-.07c0-1.32.73-2,2.1-2h9.46c1.41,0,2.12.67,2.12,2v.07a1.89,1.89,0,0,1-2.12,2.11h-2.39v9.24c0,1.46-.73,2.23-2.05,2.23H140c-1.25,0-1.89-.77-1.89-2.23V52.51h-2.49A1.89,1.89,0,0,1,133.53,50.4Z"/><path class="a" d="M9.38,85.75V74.45c0-1.49.66-2.23,1.92-2.23H12c1.3,0,2,.74,2,2.23v11.3c0,1.46-.68,2.23-2,2.23H11.3C10,88,9.38,87.22,9.38,85.75Z"/><path class="a" d="M16.09,85.75V74.45c0-1.49.71-2.23,1.87-2.23h.43a2.19,2.19,0,0,1,2.05,1.13l5.29,7.25V74.45c0-1.46.68-2.23,2-2.23h.39c1.25,0,1.92.77,1.92,2.23v11.3c0,1.49-.71,2.23-1.85,2.23H27.8a2.1,2.1,0,0,1-2-1.06l-5.4-7.37v6.19c0,1.46-.68,2.23-2,2.23H18C16.75,88,16.09,87.22,16.09,85.75Z"/><path class="a" d="M35.1,85.1a2.38,2.38,0,0,1,1.5-2.4,3.3,3.3,0,0,0,2.69,1.42c1.41,0,2-.65,2-2.5V74.45c0-1.49.68-2.23,1.94-2.23h.66c1.3,0,2,.74,2,2.23V81.7c0,4.46-2,6.5-5.88,6.5C36.81,88.2,35.1,87,35.1,85.1Z"/><path class="a" d="M48,85.23V75c0-1.73.82-2.66,2.33-2.66h7.84a1.85,1.85,0,0,1,2.12,2v.12c0,1.32-.66,2-2.12,2H52.52V78h3.74c1.5,0,2.12.67,2.12,1.85V80c0,1.25-.64,2-2.12,2H52.52v1.8h5.72c1.44,0,2.1.65,2.1,1.9v.12a1.88,1.88,0,0,1-2.1,2.11h-8C48.78,87.87,48,87,48,85.23Z"/><path class="a" d="M65.65,85.18V75c0-1.73.82-2.66,2.33-2.66h5.29c3.46,0,5.33,1.39,5.33,3.89a3.09,3.09,0,0,1-2.69,3.24,3.79,3.79,0,0,1,3.21,3.91c0,3.12-1.89,4.49-6.41,4.49H68C66.47,87.87,65.65,86.93,65.65,85.18ZM71.9,78.6c1.35,0,2-.53,2-1.49s-.66-1.37-1.94-1.37H70.14V78.6Zm.27,5.83c1.6,0,2.26-.46,2.26-1.58s-.68-1.46-2.3-1.46h-2v3Z"/><path class="a" d="M80.54,81v-6.6c0-1.49.75-2.23,2-2.23h.57c1.32,0,2,.74,2,2.23v6.62q0,2.88,2.19,2.88c1.48,0,2.17-.91,2.17-2.9v-6.6c0-1.51.75-2.23,2-2.23h.59c1.3,0,2,.72,2,2.23V81c0,4.68-2.3,7.08-6.77,7.08S80.54,85.73,80.54,81Z"/><path class="a" d="M95.93,81v-6.6c0-1.49.75-2.23,2-2.23h.57c1.32,0,2,.74,2,2.23v6.62q0,2.88,2.19,2.88c1.48,0,2.17-.91,2.17-2.9v-6.6c0-1.51.75-2.23,2-2.23h.59c1.3,0,2,.72,2,2.23V81c0,4.68-2.3,7.08-6.77,7.08S95.93,85.73,95.93,81Z"/><path class="a" d="M118.87,85.95,116.77,83h-.82v2.74c0,1.44-.68,2.23-2,2.23h-.64c-1.25,0-1.92-1-1.92-2.78V75c0-1.73.82-2.66,2.33-2.66h4.56c4.1,0,6.15,1.78,6.15,5.09A4.41,4.41,0,0,1,121.24,82l3.33,4.34c.14.19-.66,1.66-2.62,1.66C120.53,88,119.82,87.34,118.87,85.95Zm-3-6.34h1.91c1.37,0,2.05-.65,2.05-1.8s-.66-1.82-2.1-1.82h-1.87Z"/><path class="a" d="M125.21,74.4v-.07c0-1.32.73-2,2.1-2h9.46c1.41,0,2.12.67,2.12,2v.07a1.89,1.89,0,0,1-2.12,2.11h-2.39v9.24c0,1.46-.73,2.23-2.05,2.23h-.64c-1.25,0-1.89-.77-1.89-2.23V76.51H127.3A1.89,1.89,0,0,1,125.21,74.4Z"/></svg>