<?xml version="1.0" encoding="utf-8"?>
<!-- Generator: Adobe Illustrator 21.1.0, SVG Export Plug-In . SVG Version: 6.00 Build 0)  -->
<svg version="1.1" id="Layer_1" xmlns="http://www.w3.org/2000/svg" xmlns:xlink="http://www.w3.org/1999/xlink" x="0px" y="0px"
	 viewBox="0 0 184.9 184.9" style="enable-background:new 0 0 184.9 184.9;" xml:space="preserve">
<style type="text/css">
	.st0{fill:#C63E55;}
	.st1{fill:#FFFFFF;}
	.st2{fill:#FFDC22;}
</style>
<title>promobol-simplified</title>
<path class="st0" d="M109.8,181.9c49.3-9.6,81.5-57.4,71.9-106.7C172.1,25.8,124.3-6.4,75,3.2C25.7,12.9-6.5,60.6,3.1,109.9
	c9.6,49.3,57.3,81.6,106.7,72C109.8,181.9,109.8,181.9,109.8,181.9"/>
<g>
	<g>
		<path class="st1" d="M183.2,74.9C173.4,24.8,124.9-8,74.8,1.8S-8,60.1,1.7,110.2c9.1,47,52.7,79.3,100.3,74.3
			c2.7-0.3,5.4-0.7,8-1.2C160.2,173.5,192.9,125,183.2,74.9C183.2,74.9,183.2,74.9,183.2,74.9z M166.8,142.6
			c-27.6,41.1-83.3,52-124.4,24.3C8.5,144.1-5.7,101.4,7.9,62.9l161.2-16.9C187.2,75.9,186.3,113.6,166.8,142.6L166.8,142.6z"/>
	</g>
</g>
<path class="st0" d="M40.1,40.3l-3.5-8.6c0.3-0.8,1.1-1.4,2-1.4c0.7-0.1,1.6,0.2,2,1.7l1.4,4.7l0.7-4.5c0.1-0.8,0.8-1.5,1.7-1.5
	c0.8-0.1,1.6,0.3,1.9,1.1l1.6,4.3l0.4-5c0.1-1.4,0.8-1.9,1.6-2c0.8-0.1,1.7,0.3,2.1,1l-1.5,9.1c-0.2,1-0.8,1.4-1.8,1.5
	c-0.9,0.2-1.8-0.3-2.1-1.1l-1.7-4.5l-0.8,4.8c-0.1,0.9-0.9,1.6-1.8,1.5C41.2,41.5,40.5,41.3,40.1,40.3z"/>
<path class="st0" d="M54,38.1l-0.8-7.4c-0.1-1.2,0.4-2,1.5-2.1l5.7-0.6c0.7-0.2,1.5,0.2,1.7,1c0,0.1,0,0.2,0,0.3v0.1
	c0.1,1-0.3,1.5-1.4,1.6l-4.1,0.4l0.1,1.1l2.7-0.3c1.1-0.1,1.6,0.3,1.7,1.2v0c0.1,0.9-0.3,1.5-1.4,1.6l-2.7,0.3l0.1,1.3l4.2-0.4
	c1-0.1,1.6,0.3,1.7,1.2v0.1c0.2,0.7-0.3,1.5-1,1.7c-0.1,0-0.2,0-0.4,0l-5.8,0.6C54.8,40,54.1,39.4,54,38.1z"/>
<path class="st0" d="M64.3,37l-0.8-7.8c-0.1-1.1,0.3-1.7,1.2-1.8l0.5,0c0.9-0.1,1.5,0.4,1.6,1.5l0.7,6.7l3.3-0.3
	c1-0.1,1.6,0.3,1.7,1.3v0c0.2,0.7-0.3,1.5-1,1.7c-0.1,0-0.2,0-0.4,0l-4.9,0.5C65.1,38.9,64.4,38.3,64.3,37z"/>
<path class="st0" d="M73.4,36.5l-0.9-8.2c-0.1-1.1,0.3-1.7,1.2-1.8l0.5,0c0.9-0.1,1.5,0.4,1.6,1.5l0.3,3.3l2.2-4
	c0.3-0.7,0.9-1.3,1.7-1.4c1.1-0.1,2.1,0.9,2,1.1l-2.6,4.6l3.7,4.2c0.1,0.2-0.7,1.4-1.9,1.5c-0.8,0.1-1.6-0.3-2-1l-3-3.5l0.3,3.3
	c0.1,1.1-0.3,1.7-1.3,1.8l-0.5,0C74.1,38,73.5,37.5,73.4,36.5z"/>
<path class="st0" d="M83.1,31.3c-0.4-3.1,1.7-6,4.9-6.5c3.1-0.4,6,1.7,6.5,4.9c0,0.1,0,0.3,0,0.4c0.4,3.1-1.7,6-4.9,6.5
	c-3.1,0.4-6-1.7-6.5-4.9C83.1,31.6,83.1,31.5,83.1,31.3z M91.2,30.5c-0.2-1.7-1.2-2.7-2.7-2.5s-2.3,1.3-2.1,3s1.2,2.7,2.7,2.5
	S91.3,32.1,91.2,30.5L91.2,30.5z"/>
<path class="st0" d="M96.2,34.1L95.3,26c-0.1-1.1,0.4-1.7,1.3-1.8l0.9-0.1c0.6-0.2,1.3,0.1,1.6,0.8l2.2,4.3l1.3-4.7
	c0.1-0.7,0.7-1.1,1.3-1.1l0.9-0.1c1-0.1,1.6,0.4,1.7,1.5l0.8,8.1c0.1,1.1-0.2,1.7-1.1,1.8l-0.5,0.1c-0.9,0.1-1.4-0.4-1.5-1.5
	l-0.5-4.8l-0.8,3.5c-0.1,0.5-0.1,0.9-1.3,1s-1.3-0.3-1.5-0.7l-1.4-3l0.5,4.7c0.1,1.1-0.2,1.7-1.1,1.8l-0.5,0.1
	C96.8,35.6,96.3,35.1,96.2,34.1z"/>
<path class="st0" d="M108.8,32.2c0-0.7,0.4-1.4,0.9-1.8c1,0.7,2.1,1.1,3.3,1c1-0.1,1.5-0.5,1.4-1s-0.9-0.6-2-0.7
	c-1.8-0.2-3.7-0.8-4-3.1s1.2-3.9,4.2-4.2c3-0.3,4.2,0.6,4.3,1.7c0,0.7-0.4,1.4-1,1.9c-0.9-0.7-1.9-1-3-0.9c-1,0.1-1.4,0.5-1.4,1
	s0.9,0.5,2.1,0.7c2.2,0.3,3.9,1,4.1,3.1c0.3,2.4-1.2,4-4.5,4.3S108.8,33.4,108.8,32.2z"/>
<path class="st0" d="M117.6,23.5L117.6,23.5c-0.1-1,0.4-1.5,1.4-1.6l6.9-0.7c1-0.1,1.6,0.3,1.7,1.3v0c0.2,0.7-0.3,1.5-1,1.7
	c-0.1,0-0.2,0-0.4,0l-1.8,0.2l0.7,6.7c0.2,0.7-0.2,1.5-1,1.7c-0.1,0-0.2,0-0.3,0h-0.5c-0.9,0.1-1.4-0.4-1.6-1.5l-0.7-6.7l-1.8,0.2
	c-0.7,0.2-1.5-0.3-1.7-1C117.6,23.7,117.6,23.6,117.6,23.5z"/>
<path class="st0" d="M127.7,27l-0.1-0.5c-0.1-0.7,0.4-1.3,1-1.4c0.1,0,0.1,0,0.2,0l4.3-0.5c0.7-0.1,1.3,0.3,1.4,1c0,0,0,0.1,0,0.1
	l0.1,0.5c0.1,0.6-0.3,1.3-1,1.4c0,0-0.1,0-0.1,0l-4.3,0.5c-0.6,0.1-1.3-0.3-1.4-0.9C127.7,27.2,127.7,27.1,127.7,27z"/>
<path class="st0" d="M60,50.2l-3.5,0.4l-0.2,0.9c-0.3,1.2-0.9,1.7-1.6,1.8c-0.9,0.1-1.9-0.6-1.8-0.9l2.5-9.8c0.1-0.6,0.5-1,2-1.2
	s1.9,0.2,2.2,0.7l4.6,9c0.2,0.3-0.7,1.2-1.7,1.3c-0.7,0.1-1.5-0.2-2.1-1.4L60,50.2z M56.8,48.1l2.3-0.2l-1.5-3.1L56.8,48.1z"/>
<path class="st0" d="M71.8,49l-3.5,0.4l-0.2,0.9c-0.3,1.2-0.9,1.7-1.6,1.8c-0.9,0.1-1.9-0.6-1.8-0.9l2.5-9.8c0.1-0.6,0.5-1,2-1.2
	s1.9,0.2,2.2,0.7l4.6,9c0.2,0.3-0.7,1.2-1.7,1.3c-0.7,0.1-1.5-0.2-2.1-1.4L71.8,49z M68.6,46.9l2.3-0.3l-1.5-3.1L68.6,46.9z"/>
<path class="st0" d="M76.6,49.3l-0.9-8.2c-0.1-1.1,0.3-1.7,1.2-1.8h0.3c0.6-0.1,1.2,0.2,1.6,0.7l4.4,4.8l-0.4-4.5
	c-0.1-1.1,0.3-1.7,1.3-1.8h0.3c0.9-0.1,1.5,0.4,1.6,1.5l0.9,8.1c0.1,1.1-0.3,1.7-1.2,1.8h-0.3c-0.6,0.1-1.2-0.1-1.6-0.6l-4.5-4.9
	l0.5,4.5c0.1,1.1-0.3,1.7-1.3,1.8h-0.3C77.3,50.9,76.8,50.4,76.6,49.3z"/>
<path class="st0" d="M88.5,47.6l-0.8-7.3c-0.1-1.2,0.4-2,1.5-2.1l3.9-0.4c2.5-0.3,4,0.6,4.2,2.4c0.2,1.2-0.6,2.3-1.7,2.5
	c1.4,0.1,2.5,1.2,2.6,2.6c0.2,2.2-1,3.4-4.3,3.7l-3.5,0.4C89.3,49.5,88.7,48.9,88.5,47.6z M92.6,42.4c1-0.1,1.4-0.5,1.3-1.2
	s-0.6-0.9-1.5-0.8l-1.3,0.1l0.2,2.1L92.6,42.4z M93.2,46.6c1.2-0.1,1.6-0.5,1.5-1.3s-0.6-1-1.8-0.9l-1.4,0.2l0.2,2.2L93.2,46.6z"/>
<path class="st0" d="M98.8,42.9c-0.4-3.1,1.7-6,4.9-6.5c3.1-0.4,6,1.7,6.5,4.9c0,0.1,0,0.3,0,0.4c0.4,3.1-1.7,6-4.9,6.5
	c-3.1,0.4-6-1.7-6.5-4.9C98.8,43.2,98.8,43,98.8,42.9z M106.9,42c-0.2-1.7-1.2-2.7-2.7-2.5s-2.3,1.3-2.1,3s1.2,2.7,2.7,2.5
	S107,43.7,106.9,42L106.9,42z"/>
<path class="st0" d="M111.8,45.2l-0.8-7.3c-0.2-0.9,0.4-1.9,1.3-2.1c0.1,0,0.2,0,0.3,0l2.8-0.3c3.5-0.4,6,1.5,6.3,4.9
	s-1.6,5.9-5.2,6.3l-2.7,0.3C112.8,47,111.9,46.3,111.8,45.2C111.9,45.2,111.9,45.2,111.8,45.2z M116.2,43.7c1.4-0.1,2.4-1.2,2.4-2.6
	c0-0.1,0-0.3-0.1-0.4c0-1.3-1.1-2.4-2.4-2.4c-0.1,0-0.3,0-0.4,0l-1.2,0.1l0.6,5.3L116.2,43.7z"/>
<path d="M26,89.4l-0.8-7.9c-0.3,0.2-0.7,0.3-1,0.3c-1.7,0.2-3.2-1-3.4-2.7c0-0.1,0-0.1,0-0.2c-0.2-2.3,1.2-3.3,1.4-3.2
	c0.6,0.3,1.2,0.4,1.9,0.3c1.2-0.1,2.2-1,2.4-2.2l1.7-0.2c2-0.2,3.1,0.7,3.3,2.8l1.3,12.3c0.2,2.1-0.7,3.3-2.6,3.5l-0.8,0.1
	C27.4,92.5,26.2,91.5,26,89.4z"/>
<path d="M33.5,80.4c0-0.6,0.2-1.1,0.7-1.4c0.8,0.5,1.8,0.7,2.7,0.6c0.4,0,0.7-0.2,0.6-0.3c0-0.2-0.5-0.2-1-0.3c-1-0.1-3-0.2-3.2-2.3
	c-0.2-1.7,1-2.9,3.5-3.2s3.7,0.3,3.8,1.6c0,0.6-0.3,1.2-0.8,1.5c-0.7-0.5-1.6-0.8-2.5-0.7c-0.4,0-0.6,0.2-0.6,0.4
	c0,0.2,0.5,0.2,1.2,0.3c1,0.1,3.1,0.2,3.3,2.3c0.2,1.8-1.1,2.9-3.7,3.2S33.6,81.7,33.5,80.4z"/>
<path d="M43,78.3l-0.3-2.6c-1,0.1-1.6-0.3-1.6-1.1v-0.2c-0.1-0.9,0.4-1.4,1.4-1.5l-0.1-0.6c-0.2-0.9,0.3-1.7,1.2-2
	c0.1,0,0.2,0,0.3,0h0.3c1-0.1,1.8,0.2,1.9,1.7l0.1,0.6l0.5-0.1c1-0.1,1.5,0.3,1.6,1.1v0.2c0.1,0.9-0.4,1.4-1.4,1.5l-0.6,0.1l0.2,2.1
	c0,0.3,0.2,0.5,0.5,0.5c0,0,0.1,0,0.1,0c0.3,0,0.6-0.3,0.7-0.6c0-0.1,0.8,0.3,0.9,1.3c0.1,1.2-0.9,2.2-2.5,2.3
	C44.3,81.3,43.2,80.4,43,78.3z"/>
<path d="M49.2,76.5c-0.3-2.3,1.3-4.5,3.7-4.8c0.1,0,0.2,0,0.3,0c2.2-0.4,4.4,1.1,4.8,3.3c0,0.1,0,0.2,0,0.3v0.2
	c0,0.5-0.1,0.9-0.6,0.9l-5,0.5c0.3,0.6,1,1,1.7,0.8c0.7,0,1.3-0.4,1.6-1c0,0,1.7-0.2,1.9,1.2c0.1,1.2-1.1,2.1-3.4,2.3
	C51.4,80.5,49.4,79.2,49.2,76.5z M52.3,75.3l2.2-0.2c0-0.6-0.4-1-1-1c-0.1,0-0.2,0-0.2,0C52.7,74.1,52.3,74.7,52.3,75.3z"/>
<path d="M62.8,73.2L62.8,73.2c-0.2-2,0.8-3,2.8-3.2l11-1.2c2.1-0.2,3.2,0.6,3.4,2.5v0.1c0.2,2-0.7,3.1-2.8,3.3l-2,0.2l1,9.1
	c0.2,2.1-0.8,3.3-2.7,3.5l-1,0.1c-1.9,0.2-2.9-0.8-3.2-2.8l-1-9.1l-2.2,0.2C64.3,76,63.1,75.1,62.8,73.2z"/>
<path d="M82.4,83.4l-1.3-12c-0.2-2.1,0.7-3.3,2.5-3.4l1-0.1c2-0.2,3.1,0.7,3.3,2.8l0.3,3.1l4.1-0.4L92,70.2
	c-0.2-2.1,0.7-3.3,2.5-3.4l1-0.1c2-0.2,3.1,0.7,3.3,2.8l1.3,12c0.2,2.1-0.7,3.3-2.7,3.5l-1,0.1c-1.9,0.2-3-0.8-3.2-2.8L93,79
	l-4.1,0.4l0.3,3.2c0.2,2.1-0.7,3.3-2.7,3.5l-1,0.1C83.7,86.4,82.6,85.4,82.4,83.4z"/>
<path d="M101.9,76.1l-0.7-6.9c-0.2-2.1,0.8-3.3,2.7-3.5l0.8-0.1c2-0.2,3.1,0.7,3.3,2.8l0.7,6.9c0.2,1.7,0.9,2.4,2.1,2.3
	s1.7-0.9,1.6-2.7l-0.7-6.9c-0.2-2.1,0.8-3.3,2.7-3.5l0.8-0.1c2-0.2,3.1,0.7,3.3,2.8l0.7,6.9c0.6,5.6-2,8.8-7.8,9.4
	C105.7,84.2,102.5,81.7,101.9,76.1z"/>
<path d="M122.2,79.2l-1.3-12c-0.2-2.1,0.7-3.3,2.5-3.5l1-0.1c2-0.2,3.1,0.7,3.3,2.8l1.3,12c0.2,2.1-0.7,3.3-2.7,3.5l-1,0.1
	C123.5,82.2,122.4,81.2,122.2,79.2z"/>
<path d="M130.7,78c-0.2-1.5,1.5-3.5,1.8-3.4c1.7,0.9,3.6,1.3,5.5,1.2c1.4-0.1,1.8-0.4,1.8-1s-1.2-0.6-2.8-0.8
	c-3.2-0.3-6.4-1.2-6.8-5c-0.4-4,2.1-6.5,7.6-7.1c5.1-0.5,7.3,0.8,7.5,2.8c0,1.4-0.7,2.8-1.9,3.6c-1.5-0.9-3.2-1.3-4.9-1.2
	c-1.3,0.1-1.8,0.4-1.7,1s1.4,0.5,3,0.7c3.9,0.4,6.6,1.7,6.9,4.9c0.4,4.2-2.1,6.7-8.1,7.3C132.8,81.5,130.9,80,130.7,78z"/>
<path d="M148.1,71.2l-0.1-1.1c-0.2-1.3,0.8-2.5,2.1-2.7c0.1,0,0.1,0,0.2,0l7.6-0.8c1.3-0.2,2.5,0.7,2.8,2c0,0.1,0,0.1,0,0.2l0.1,1.1
	c0.2,1.3-0.7,2.5-2,2.7c-0.1,0-0.2,0-0.2,0l-7.6,0.8c-1.3,0.2-2.5-0.7-2.8-2C148.1,71.3,148.1,71.2,148.1,71.2z"/>
<path d="M26.1,115.7l-1.2-11.3c-0.2-2.1,0.7-3.3,2.5-3.4l1-0.1c2-0.2,3.1,0.7,3.3,2.8l1,9.1l4.4-0.5c2.1-0.2,3.2,0.6,3.5,2.5v0.1
	c0.2,2-0.7,3.1-2.8,3.3L30,119C27.7,119.3,26.4,118.2,26.1,115.7z"/>
<path d="M41.5,114l-1.1-10.5c-0.3-2.5,0.8-3.9,3.1-4.2l9.2-1c2.2-0.2,3.2,0.5,3.4,2.3v0.1c0.2,1.9-0.7,2.7-2.9,2.9l-5.8,0.6l0.1,1.2
	l3.4-0.4c2.3-0.2,3.2,0.3,3.4,2v0.1c0.2,1.8-0.7,2.6-2.9,2.8l-3.4,0.4l0.2,1.4l5.9-0.6c2.2-0.2,3.2,0.3,3.4,2.1v0.1
	c0.2,1.9-0.7,2.8-2.9,3l-9.3,1C43.1,117.7,41.8,116.5,41.5,114z"/>
<path d="M64.9,100.2l2.5,6.2l1.2-6.6c0.4-2.3,1.8-3.4,3.3-3.6c2.2-0.2,4.5,1.3,4.3,1.9l-4.3,14c-0.3,1.7-1.8,3-3.6,3
	c-1.7,0.4-3.4-0.5-4.1-2.2l-7.3-12.8c-0.3-0.6,1.7-2.6,4-2.8C62.7,97.3,64.4,98.4,64.9,100.2z"/>
<path d="M78.4,110.2l-1.1-10.5c-0.3-2.5,0.8-3.9,3.1-4.2l9.2-1c2.2-0.2,3.2,0.5,3.4,2.3v0.1c0.2,1.9-0.7,2.7-2.9,2.9l-5.8,0.6
	l0.1,1.2l3.4-0.4c2.3-0.2,3.2,0.3,3.4,2v0.1c0.2,1.8-0.7,2.6-2.9,2.8l-3.4,0.4l0.2,1.4l5.9-0.6c2.2-0.2,3.2,0.3,3.4,2.1v0.1
	c0.2,1.9-0.7,2.8-2.9,3l-9.3,1C79.9,113.8,78.6,112.7,78.4,110.2z"/>
<path d="M105,108.3l-2-2.3h-0.3l0.2,2.2c0.2,2.1-0.7,3.3-2.7,3.5l-1,0.1c-1.9,0.2-3-1.2-3.3-3.7l-1.1-10.3c-0.3-2.5,0.8-3.9,3.1-4.2
	l5.8-0.6c5.3-0.6,8.1,1.3,8.5,5.3c0.4,2.3-0.8,4.5-2.8,5.5l4.1,4.2c0.2,0.2-0.7,2.4-3.6,2.7C107.7,111,106.6,110.2,105,108.3z
	 M102.1,101.6l1.7-0.2c1.2-0.1,1.8-0.8,1.7-1.8s-0.8-1.6-2.1-1.4l-1.6,0.2L102.1,101.6z"/>
<path d="M115.2,107l-1.3-12c-0.2-2.1,0.7-3.3,2.5-3.4l1-0.1c2-0.2,3.1,0.7,3.3,2.8l1.3,12c0.2,2.1-0.7,3.3-2.6,3.5l-1,0.1
	C116.5,110.1,115.4,109.1,115.2,107z"/>
<path d="M124.4,106.1l-1.3-12.2c-0.2-2.1,0.7-3.1,2.4-3.3l0.6-0.1c1.1-0.2,2.3,0.2,3,1.1l6,6l-0.5-4.8c-0.2-2.1,0.7-3.3,2.6-3.5
	l0.6-0.1c1.9-0.2,3,0.8,3.2,2.8l1.3,12.2c0.2,2.1-0.7,3.1-2.4,3.3l-0.6,0.1c-1.1,0.2-2.3-0.2-3-1.1l-6-5.8l0.5,4.6
	c0.2,2.1-0.7,3.3-2.6,3.5l-0.6,0.1C125.8,109.1,124.7,108.1,124.4,106.1z"/>
<path d="M157.7,103.4c-0.7,1.6-2.2,2.7-4.8,3c-4.9,0.5-8.9-3-9.4-8.4s3-9.8,9.2-10.5c4.6-0.5,7.4,0.8,7.7,3.6c0.2,2.3-2.8,3.6-3,3.4
	c-1-0.9-2.3-1.3-3.6-1.2c-2.1,0.2-3.6,2.1-3.4,4.1c0,0.1,0,0.2,0,0.2c0.3,2.5,2,3.8,3.9,3.6c1,0,1.9-0.5,2.3-1.3l-0.6,0.1
	c-2.1,0.2-3.2-0.1-3.4-2v-0.3c-0.2-2,0.8-2.4,2.9-2.6l4.8-0.5c1.9-0.2,2.2,0.6,2.4,2.5l0.8,7.5c0,0.2-1,0.8-2.2,0.9
	C159.7,105.7,158.2,104.8,157.7,103.4z"/>
<path d="M61,140.7c-0.7,1.6-2.2,2.7-4.8,3c-4.9,0.5-8.9-3-9.4-8.4s3-9.8,9.2-10.5c4.6-0.5,7.4,0.8,7.7,3.6c0.2,2.3-2.8,3.6-3,3.4
	c-1-0.9-2.3-1.3-3.6-1.2c-2.1,0.2-3.6,2-3.4,4.1c0,0.1,0,0.2,0,0.2c0.3,2.5,2,3.8,3.9,3.6c1,0,1.9-0.5,2.4-1.4l-0.6,0.1
	c-2.1,0.2-3.2-0.1-3.4-2v-0.3c-0.2-2,0.8-2.4,2.9-2.6l4.8-0.5c1.9-0.2,2.2,0.6,2.4,2.5l0.8,7.5c0,0.2-1,0.8-2.2,0.9
	C63.1,142.9,61.6,142.1,61,140.7z"/>
<path d="M77.4,138.3l-2-2.3h-0.3l0.2,2.2c0.2,2.1-0.7,3.3-2.7,3.5l-1,0.1c-1.9,0.2-3-1.2-3.3-3.7l-1.1-10.4
	c-0.3-2.5,0.8-3.9,3.1-4.1l5.8-0.6c5.3-0.6,8.1,1.4,8.5,5.3c0.4,2.3-0.8,4.5-2.8,5.5l4.1,4.2c0.2,0.2-0.7,2.4-3.6,2.7
	C80.2,141,79.1,140.2,77.4,138.3z M74.5,131.6l1.7-0.2c1.2-0.1,1.8-0.8,1.7-1.8s-0.8-1.6-2.1-1.4l-1.6,0.2L74.5,131.6z"/>
<path d="M99,135.9l-5.1,0.5v0.1c-0.6,2.4-1.9,3.4-3.4,3.6c-1.8,0.2-3.9-1.1-3.7-1.8l4.1-15.1c0.2-1.1,1-2,4.1-2.3s3.9,0.4,4.3,1.4
	l7.4,13.8c0.3,0.6-1.4,2.3-3.4,2.6C101.8,138.9,100.2,138.3,99,135.9L99,135.9z M94.3,131.5l3-0.3l-1.9-3.9L94.3,131.5z"/>
<path d="M103.3,123.1L103.3,123.1c-0.2-1.9,0.8-3,2.8-3.2l11-1.2c2.1-0.2,3.2,0.6,3.4,2.5v0.1c0.2,2-0.7,3.1-2.8,3.3l-2,0.2l1,9.1
	c0.2,2.1-0.8,3.3-2.7,3.5l-1,0.1c-1.9,0.2-2.9-0.8-3.2-2.9l-1-9.1l-2.2,0.2C104.7,126,103.5,125.1,103.3,123.1z"/>
<path d="M122.9,133.3l-1.3-12c-0.2-2.1,0.7-3.2,2.5-3.4l1-0.1c2-0.2,3.1,0.7,3.3,2.8l1.3,12c0.2,2.1-0.7,3.3-2.7,3.5l-1,0.1
	C124.3,136.4,123.2,135.4,122.9,133.3z"/>
<path d="M131.5,132.1c-0.2-1.5,1.5-3.5,1.8-3.4c1.7,0.9,3.6,1.3,5.5,1.2c1.4-0.1,1.9-0.4,1.8-1s-1.2-0.6-2.8-0.8
	c-3.2-0.3-6.4-1.2-6.8-5c-0.4-4,2.1-6.5,7.6-7.1c5.1-0.5,7.3,0.8,7.5,2.8c0,1.4-0.7,2.8-1.9,3.6c-1.5-0.9-3.2-1.3-4.9-1.2
	c-1.3,0.1-1.8,0.4-1.7,1s1.4,0.5,3,0.7c3.9,0.4,6.6,1.7,6.9,4.9c0.4,4.2-2.1,6.6-8.1,7.3C133.5,135.7,131.7,134.2,131.5,132.1z"/>
<path class="st1" d="M24.4,88.1l-0.8-7.9c-0.3,0.2-0.7,0.3-1,0.3c-1.7,0.2-3.2-1-3.4-2.7c0-0.1,0-0.1,0-0.2
	c-0.2-2.3,1.2-3.3,1.4-3.2c0.6,0.3,1.2,0.4,1.9,0.3c1.2-0.1,2.2-1,2.4-2.2l1.7-0.2c2-0.2,3.1,0.7,3.3,2.8l1.3,12.3
	c0.2,2.1-0.7,3.3-2.7,3.5l-0.8,0.1C25.7,91.1,24.6,90.2,24.4,88.1z"/>
<path class="st1" d="M31.9,79.1c0-0.6,0.2-1.1,0.7-1.4c0.8,0.5,1.8,0.7,2.7,0.6c0.4,0,0.7-0.2,0.6-0.3c0-0.2-0.5-0.2-1-0.3
	c-1-0.1-3-0.2-3.2-2.3c-0.2-1.7,1-2.9,3.5-3.2s3.7,0.3,3.8,1.6c0,0.6-0.3,1.2-0.8,1.5c-0.7-0.5-1.6-0.8-2.5-0.7
	c-0.4,0-0.6,0.2-0.6,0.4c0,0.2,0.5,0.2,1.2,0.3c1,0.1,3.1,0.2,3.3,2.3c0.2,1.8-1.1,2.9-3.7,3.2S31.9,80.4,31.9,79.1z"/>
<path class="st1" d="M41.4,77l-0.3-2.6c-1,0.1-1.6-0.3-1.6-1.1v-0.2c-0.1-0.9,0.4-1.4,1.4-1.5L40.8,71c-0.2-0.9,0.3-1.7,1.2-2
	c0.1,0,0.2,0,0.3,0h0.3c1-0.1,1.8,0.2,1.9,1.7l0.1,0.6l0.5-0.1c1-0.1,1.5,0.3,1.6,1.1v0.2c0.1,0.9-0.4,1.4-1.4,1.5l-0.6,0.1l0.2,2.1
	c0,0.3,0.2,0.5,0.5,0.5c0,0,0.1,0,0.1,0c0.3,0,0.6-0.3,0.7-0.6c0-0.1,0.8,0.3,0.9,1.3c0.1,1.2-0.9,2.2-2.5,2.3
	C42.7,79.9,41.6,79,41.4,77z"/>
<path class="st1" d="M47.5,75.2c-0.3-2.3,1.3-4.5,3.7-4.8c0.1,0,0.2,0,0.3,0c2.2-0.4,4.4,1.1,4.8,3.3c0,0.1,0,0.2,0,0.3v0.2
	c0,0.5-0.1,0.9-0.6,0.9l-4.9,0.5c0.3,0.6,1,1,1.7,0.8c0.7,0,1.3-0.4,1.6-1c0,0,1.7-0.2,1.9,1.2c0.1,1.2-1.1,2.1-3.4,2.3
	C49.7,79.2,47.8,77.9,47.5,75.2z M50.7,74l2.2-0.2c0-0.6-0.4-1-1-1c-0.1,0-0.2,0-0.2,0C51,72.8,50.6,73.3,50.7,74L50.7,74z"/>
<path class="st1" d="M61.2,71.8L61.2,71.8c-0.2-2,0.8-3,2.8-3.2l11-1.2c2.1-0.2,3.2,0.6,3.4,2.5V70c0.2,2-0.7,3.1-2.8,3.3l-2,0.2
	l1,9.1c0.2,2.1-0.8,3.3-2.7,3.5l-1,0.1c-1.9,0.2-2.9-0.8-3.2-2.8l-1-9.1l-2.2,0.2C62.6,74.7,61.4,73.8,61.2,71.8z"/>
<path class="st1" d="M80.7,82l-1.3-12c-0.2-2.1,0.7-3.3,2.5-3.4l1-0.1c2-0.2,3.1,0.7,3.3,2.8l0.3,3.1l4.1-0.4l-0.3-3.1
	c-0.2-2.1,0.7-3.3,2.5-3.4l1-0.1c2-0.2,3.1,0.7,3.3,2.8l1.3,12c0.2,2.1-0.7,3.3-2.7,3.5l-1,0.1c-1.9,0.2-3-0.8-3.2-2.8l-0.3-3.2
	l-4.1,0.4l0.3,3.2c0.2,2.1-0.7,3.3-2.7,3.5l-1,0.1C82.1,85.1,81,84.1,80.7,82z"/>
<path class="st1" d="M100.3,74.8l-0.7-6.9c-0.2-2.1,0.8-3.3,2.7-3.5l0.8-0.1c2-0.2,3.1,0.7,3.3,2.8l0.7,6.9c0.2,1.7,0.9,2.4,2.1,2.3
	s1.7-0.9,1.6-2.7l-0.7-6.9c-0.2-2.1,0.8-3.3,2.7-3.5l0.8-0.1c2-0.2,3.1,0.7,3.3,2.8l0.7,6.9c0.6,5.6-2,8.8-7.8,9.4
	C104,82.9,100.9,80.4,100.3,74.8z"/>
<path class="st1" d="M120.5,77.9l-1.3-12c-0.2-2.1,0.7-3.3,2.5-3.5l1-0.1c2-0.2,3.1,0.7,3.3,2.8l1.3,12c0.2,2.1-0.7,3.3-2.6,3.5
	l-1,0.1C121.8,80.9,120.7,79.9,120.5,77.9z"/>
<path class="st1" d="M129,76.6c-0.2-1.5,1.5-3.5,1.8-3.4c1.7,0.9,3.6,1.3,5.5,1.2c1.4-0.1,1.8-0.4,1.8-1s-1.2-0.6-2.8-0.8
	c-3.2-0.3-6.4-1.2-6.8-5c-0.4-4,2.1-6.5,7.6-7.1c5.1-0.5,7.3,0.8,7.5,2.8c0,1.4-0.7,2.8-1.9,3.6c-1.5-0.9-3.2-1.3-4.9-1.2
	c-1.3,0.1-1.8,0.4-1.7,1s1.4,0.5,3,0.7c3.9,0.4,6.6,1.7,6.9,4.9c0.4,4.2-2.1,6.7-8.1,7.3C131.1,80.2,129.3,78.7,129,76.6z"/>
<path class="st1" d="M146.4,69.9l-0.1-1.1c-0.2-1.3,0.8-2.5,2.1-2.7c0.1,0,0.1,0,0.2,0l7.6-0.8c1.3-0.2,2.5,0.7,2.8,2
	c0,0.1,0,0.1,0,0.2l0.1,1.1c0.2,1.3-0.7,2.5-2,2.7c-0.1,0-0.2,0-0.2,0l-7.6,0.8c-1.3,0.2-2.5-0.7-2.8-2
	C146.4,70,146.4,69.9,146.4,69.9z"/>
<path class="st1" d="M24.5,114.3L23.3,103c-0.2-2.1,0.7-3.3,2.5-3.4l1-0.1c2-0.2,3.1,0.7,3.3,2.8l1,9.1l4.4-0.5
	c2.1-0.2,3.2,0.6,3.4,2.5v0.1c0.2,2-0.7,3.1-2.8,3.3l-7.8,0.8C26.1,117.9,24.7,116.9,24.5,114.3z"/>
<path class="st1" d="M39.8,112.7l-1.1-10.5c-0.3-2.5,0.8-3.9,3.1-4.2l9.2-1c2.2-0.2,3.2,0.5,3.4,2.3v0.1c0.2,1.9-0.7,2.7-2.9,2.9
	l-5.8,0.6l0.1,1.2l3.4-0.4c2.3-0.2,3.2,0.3,3.4,2v0.1c0.2,1.8-0.7,2.6-2.9,2.8l-3.4,0.4l0.2,1.4l5.9-0.6c2.2-0.2,3.2,0.3,3.4,2.1
	v0.1c0.2,1.9-0.7,2.8-2.9,3l-9.3,1C41.4,116.3,40.1,115.2,39.8,112.7z"/>
<path class="st1" d="M63.3,98.9l2.6,6.2l1.2-6.6c0.4-2.3,1.8-3.4,3.3-3.6c2.2-0.2,4.5,1.3,4.3,1.9l-4.3,14c-0.3,1.7-1.8,3-3.6,3
	c-1.7,0.4-3.4-0.5-4.1-2.2l-7.3-12.8c-0.3-0.6,1.7-2.6,4-2.8C61,95.9,62.7,97.1,63.3,98.9z"/>
<path class="st1" d="M76.7,108.9l-1.1-10.5c-0.3-2.5,0.8-3.9,3.1-4.2l9.2-1c2.2-0.2,3.2,0.5,3.4,2.3v0.1c0.2,1.9-0.7,2.7-2.9,2.9
	l-5.8,0.6l0.1,1.2l3.4-0.4c2.3-0.2,3.2,0.3,3.4,2v0.1c0.2,1.8-0.7,2.6-2.9,2.8l-3.4,0.4l0.2,1.4l5.9-0.6c2.2-0.2,3.2,0.3,3.4,2.1
	v0.1c0.2,1.9-0.7,2.8-2.9,3l-9.3,1C78.3,112.4,77,111.3,76.7,108.9z"/>
<path class="st1" d="M103.3,107l-2-2.3H101l0.2,2.2c0.2,2.1-0.7,3.3-2.7,3.5l-1,0.1c-1.9,0.2-3-1.2-3.3-3.7l-1.1-10.4
	c-0.3-2.5,0.8-3.9,3.1-4.2l5.8-0.6c5.3-0.6,8.1,1.3,8.5,5.3c0.4,2.3-0.8,4.5-2.8,5.5l4.1,4.2c0.2,0.2-0.7,2.4-3.6,2.7
	C106,109.7,104.9,108.8,103.3,107z M100.4,100.3l1.7-0.2c1.2-0.1,1.8-0.8,1.7-1.8s-0.8-1.6-2.1-1.4l-1.6,0.2L100.4,100.3z"/>
<path class="st1" d="M113.5,105.7l-1.3-12c-0.2-2.1,0.7-3.3,2.5-3.4l1-0.1c2-0.2,3.1,0.7,3.3,2.8l1.3,12c0.2,2.1-0.7,3.3-2.7,3.5
	l-1,0.1C114.8,108.7,113.7,107.8,113.5,105.7z"/>
<path class="st1" d="M122.8,104.7l-1.3-12.2c-0.2-2.1,0.7-3.1,2.4-3.3l0.6-0.1c1.1-0.2,2.3,0.2,3,1.1l6,6l-0.5-4.8
	c-0.2-2.1,0.7-3.3,2.6-3.5l0.6-0.1c1.9-0.2,3,0.8,3.2,2.8l1.3,12.2c0.2,2.1-0.7,3.1-2.4,3.3l-0.6,0.1c-1.1,0.2-2.3-0.2-3-1.1l-6-5.8
	l0.5,4.6c0.2,2.1-0.7,3.3-2.7,3.5l-0.6,0.1C124.1,107.8,123,106.8,122.8,104.7z"/>
<path class="st1" d="M156,102.1c-0.7,1.6-2.2,2.7-4.8,3c-4.9,0.5-8.9-3-9.4-8.4s3-9.8,9.2-10.5c4.6-0.5,7.4,0.8,7.7,3.6
	c0.2,2.3-2.8,3.6-3,3.4c-1-0.9-2.3-1.3-3.6-1.2c-2.1,0.2-3.6,2.1-3.4,4.1c0,0.1,0,0.2,0,0.2c0.3,2.5,2,3.8,3.9,3.6
	c1,0,1.9-0.5,2.4-1.4l-0.6,0.1c-2.1,0.2-3.2-0.1-3.4-2v-0.3c-0.2-2,0.8-2.4,2.9-2.6l4.8-0.5c1.9-0.2,2.2,0.6,2.4,2.5l0.8,7.5
	c0,0.2-1,0.8-2.2,0.9C158.1,104.3,156.6,103.5,156,102.1z"/>
<path class="st2" d="M59.4,139.3c-0.7,1.6-2.2,2.7-4.8,3c-4.9,0.5-8.9-3-9.4-8.4s3-9.8,9.2-10.5c4.6-0.5,7.4,0.8,7.7,3.6
	c0.2,2.3-2.8,3.6-3,3.4c-1-0.9-2.3-1.3-3.6-1.2c-2.1,0.2-3.6,2.1-3.4,4.1c0,0.1,0,0.2,0,0.2c0.3,2.5,2,3.8,3.9,3.6
	c1,0,1.9-0.5,2.4-1.4l-0.6,0.1c-2.1,0.2-3.2-0.1-3.4-2v-0.3c-0.2-2,0.8-2.4,2.9-2.6l4.8-0.5c1.9-0.2,2.2,0.6,2.4,2.5l0.8,7.5
	c0,0.2-1,0.8-2.2,0.9C61.5,141.6,60,140.8,59.4,139.3z"/>
<path class="st2" d="M75.8,137l-2-2.3h-0.3l0.2,2.2c0.2,2.1-0.7,3.3-2.7,3.5l-1,0.1c-1.9,0.2-3-1.2-3.3-3.7l-1.1-10.3
	c-0.3-2.5,0.8-3.9,3.1-4.1l5.8-0.6c5.3-0.6,8.1,1.4,8.5,5.3c0.4,2.3-0.8,4.5-2.8,5.5l4.1,4.2c0.2,0.2-0.7,2.4-3.6,2.7
	C78.5,139.7,77.4,138.9,75.8,137z M72.8,130.3l1.7-0.2c1.2-0.1,1.8-0.8,1.7-1.8c-0.1-1.1-0.8-1.6-2.1-1.4l-1.6,0.2L72.8,130.3z"/>
<path class="st2" d="M97.3,134.5l-5.1,0.5v0.1c-0.6,2.4-1.9,3.4-3.4,3.6c-1.8,0.2-3.9-1.1-3.7-1.8l4-15.1c0.2-1.1,1-2,4.1-2.3
	s3.9,0.4,4.3,1.4l7.4,13.9c0.3,0.6-1.4,2.3-3.4,2.6C100.1,137.6,98.5,137,97.3,134.5L97.3,134.5z M92.7,130.1l3-0.3l-1.9-4
	L92.7,130.1z"/>
<path class="st2" d="M101.7,121.8L101.7,121.8c-0.2-1.9,0.8-3,2.8-3.2l11-1.2c2.1-0.2,3.2,0.6,3.5,2.5v0.1c0.2,2-0.7,3.1-2.8,3.3
	l-2,0.2l1,9.1c0.2,2.1-0.8,3.3-2.7,3.5l-1,0.1c-1.9,0.2-2.9-0.8-3.2-2.9l-1-9.1l-2.2,0.2C103.1,124.7,101.8,123.7,101.7,121.8z"/>
<path class="st2" d="M121.3,132l-1.3-12c-0.2-2.1,0.7-3.2,2.5-3.4l1-0.1c2-0.2,3.1,0.7,3.3,2.8l1.3,12c0.2,2.1-0.7,3.3-2.7,3.5
	l-1,0.1C122.6,135,121.5,134,121.3,132z"/>
<path class="st2" d="M129.9,130.8c-0.2-1.5,1.5-3.5,1.8-3.4c1.7,0.9,3.6,1.3,5.5,1.2c1.4-0.1,1.9-0.4,1.8-1
	c-0.1-0.6-1.2-0.6-2.8-0.8c-3.2-0.3-6.4-1.2-6.8-5c-0.4-4,2.1-6.5,7.6-7.1c5.1-0.5,7.3,0.8,7.5,2.8c0,1.4-0.7,2.8-1.9,3.6
	c-1.5-0.9-3.2-1.3-5-1.2c-1.3,0.1-1.8,0.4-1.7,1s1.4,0.5,3,0.7c3.9,0.4,6.6,1.7,6.9,4.9c0.4,4.2-2.1,6.6-8.1,7.3
	C131.9,134.3,130,132.9,129.9,130.8z"/>
</svg>
